<?xml version="1.0" encoding="utf-8"?>
<!-- Generator: Adobe Illustrator 23.0.1, SVG Export Plug-In . SVG Version: 6.00 Build 0)  -->
<svg version="1.1" id="Layer_1" xmlns="http://www.w3.org/2000/svg" xmlns:xlink="http://www.w3.org/1999/xlink" x="0px" y="0px"
	 viewBox="0 0 725 97" style="enable-background:new 0 0 725 97;" xml:space="preserve">
<style type="text/css">
	.st0{fill:#FFFFFF;}
	.st1{fill:#5FE0D4;}
</style>
<g>
	<path class="st0" d="M107.3,26.7v43.2h-7.6h0V50.4H80.1v19.5h-7.6V26.7h7.6v17.2h19.7V26.7h0H107.3z M64.9,69.9L64.9,69.9h-7.6
		V26.7h7.6V69.9z M49.9,69.9L49.9,69.9h-8L22.3,38.1h-0.2v31.8h-7.2h0V26.7h0h8h0l19.7,31.8h0.1V26.7h7.2V69.9z M133.9,48.2
		L107.2-0.1H8.8c-4.9,0-8.9,4-8.9,8.9v78.8c0,4.9,4,8.9,8.9,8.9h98.3L133.9,48.2z"/>
	<path class="st1" d="M113.8,96.5l26.8-48.3L113.9-0.1h6.7c3.7,0,8.1,2.6,9.9,5.8l23.5,42.4l-23.5,42.5c-1.8,3.2-6.2,5.8-9.9,5.8
		H113.8z"/>
	<g>
		<g>
			<path class="st0" d="M173.3,3.9h6.5L196,29.9h0.1V3.9h5.9v35.4h-6.5l-16.1-26h-0.1v26h-5.9V3.9z"/>
			<path class="st0" d="M229.1,33.5c0,0.7,0.1,1.2,0.3,1.5c0.2,0.3,0.5,0.4,1.1,0.4c0.2,0,0.4,0,0.6,0c0.2,0,0.5,0,0.8-0.1v3.9
				c-0.2,0.1-0.5,0.1-0.8,0.2c-0.3,0.1-0.6,0.2-1,0.2c-0.3,0.1-0.7,0.1-1,0.1c-0.3,0-0.6,0-0.8,0c-1.2,0-2.1-0.2-2.9-0.7
				c-0.8-0.5-1.3-1.3-1.5-2.4c-1.1,1.1-2.5,1.9-4.1,2.4c-1.6,0.5-3.2,0.7-4.7,0.7c-1.2,0-2.3-0.2-3.3-0.5c-1.1-0.3-2-0.8-2.8-1.4
				c-0.8-0.6-1.5-1.4-1.9-2.3c-0.5-0.9-0.7-2-0.7-3.3c0-1.6,0.3-2.9,0.9-3.9c0.6-1,1.3-1.8,2.3-2.3c0.9-0.6,2-1,3.2-1.2
				c1.2-0.2,2.4-0.4,3.5-0.6c1-0.2,2-0.3,2.9-0.4c0.9-0.1,1.7-0.2,2.5-0.4c0.7-0.2,1.3-0.5,1.7-0.9c0.4-0.4,0.6-1,0.6-1.9
				c0-0.7-0.2-1.3-0.5-1.8c-0.3-0.5-0.8-0.8-1.3-1.1c-0.5-0.2-1.1-0.4-1.7-0.5c-0.6-0.1-1.2-0.1-1.8-0.1c-1.6,0-2.9,0.3-3.9,1
				c-1,0.7-1.6,1.7-1.7,3.1h-5.6c0.1-1.7,0.5-3,1.2-4.1c0.7-1.1,1.6-2,2.7-2.6c1.1-0.7,2.3-1.1,3.6-1.4c1.4-0.3,2.7-0.4,4.2-0.4
				c1.3,0,2.5,0.1,3.7,0.4c1.2,0.3,2.3,0.7,3.3,1.3c1,0.6,1.8,1.4,2.4,2.3c0.6,0.9,0.9,2.1,0.9,3.4V33.5z M223.5,26.4
				c-0.9,0.6-1.9,0.9-3.2,1c-1.3,0.1-2.5,0.3-3.8,0.5c-0.6,0.1-1.2,0.2-1.7,0.4c-0.6,0.2-1.1,0.4-1.5,0.7c-0.4,0.3-0.8,0.7-1,1.2
				c-0.2,0.5-0.4,1.1-0.4,1.9c0,0.6,0.2,1.2,0.5,1.6c0.4,0.4,0.8,0.8,1.3,1c0.5,0.2,1.1,0.4,1.7,0.5c0.6,0.1,1.2,0.1,1.7,0.1
				c0.6,0,1.3-0.1,2-0.2c0.7-0.2,1.4-0.4,2.1-0.8c0.6-0.4,1.2-0.9,1.6-1.5c0.4-0.6,0.6-1.4,0.6-2.3V26.4z"/>
			<path class="st0" d="M231.7,13.6h4.3V5.9h5.6v7.7h5.1v4.2h-5.1v13.7c0,0.6,0,1.1,0.1,1.5c0,0.4,0.2,0.8,0.3,1.1
				c0.2,0.3,0.5,0.5,0.8,0.7c0.4,0.1,0.9,0.2,1.5,0.2c0.4,0,0.8,0,1.2,0c0.4,0,0.8-0.1,1.2-0.2v4.4c-0.6,0.1-1.2,0.1-1.8,0.2
				c-0.6,0.1-1.2,0.1-1.8,0.1c-1.5,0-2.7-0.1-3.6-0.4c-0.9-0.3-1.6-0.7-2.1-1.2c-0.5-0.5-0.9-1.2-1-2.1c-0.2-0.8-0.3-1.8-0.3-2.8
				V17.8h-4.3V13.6z"/>
			<path class="st0" d="M250.1,3.9h5.6v5.4h-5.6V3.9z M250.1,13.6h5.6v25.6h-5.6V13.6z"/>
			<path class="st0" d="M272.8,39.9c-2,0-3.9-0.3-5.5-1c-1.6-0.7-3-1.6-4.1-2.8c-1.1-1.2-1.9-2.6-2.5-4.3c-0.6-1.7-0.9-3.5-0.9-5.5
				c0-1.9,0.3-3.7,0.9-5.4c0.6-1.7,1.4-3.1,2.5-4.3c1.1-1.2,2.5-2.1,4.1-2.8c1.6-0.7,3.4-1,5.5-1c2,0,3.9,0.3,5.5,1
				c1.6,0.7,3,1.6,4.1,2.8c1.1,1.2,1.9,2.6,2.5,4.3c0.6,1.7,0.9,3.5,0.9,5.4c0,2-0.3,3.8-0.9,5.5c-0.6,1.7-1.4,3.1-2.5,4.3
				c-1.1,1.2-2.5,2.1-4.1,2.8C276.6,39.6,274.8,39.9,272.8,39.9z M272.8,35.5c1.3,0,2.3-0.3,3.3-0.8c0.9-0.5,1.7-1.2,2.3-2.1
				c0.6-0.9,1-1.8,1.3-2.9c0.3-1.1,0.4-2.2,0.4-3.3c0-1.1-0.1-2.2-0.4-3.3c-0.3-1.1-0.7-2.1-1.3-2.9c-0.6-0.8-1.4-1.5-2.3-2.1
				c-0.9-0.5-2-0.8-3.3-0.8c-1.3,0-2.3,0.3-3.3,0.8c-0.9,0.5-1.7,1.2-2.3,2.1c-0.6,0.8-1,1.8-1.3,2.9c-0.3,1.1-0.4,2.2-0.4,3.3
				c0,1.1,0.1,2.2,0.4,3.3c0.3,1.1,0.7,2,1.3,2.9c0.6,0.9,1.4,1.6,2.3,2.1C270.4,35.2,271.5,35.5,272.8,35.5z"/>
			<path class="st0" d="M289.6,13.6h5.3v3.8l0.1,0.1c0.9-1.4,2-2.5,3.4-3.3c1.4-0.8,2.9-1.2,4.6-1.2c2.8,0,5,0.7,6.6,2.2
				c1.6,1.5,2.4,3.6,2.4,6.5v17.6h-5.7V23.1c-0.1-2-0.5-3.5-1.3-4.4c-0.8-0.9-2-1.4-3.7-1.4c-1,0-1.8,0.2-2.6,0.5
				c-0.8,0.3-1.4,0.8-1.9,1.4c-0.5,0.6-0.9,1.3-1.2,2.2c-0.3,0.8-0.4,1.7-0.4,2.6v15.1h-5.6V13.6z"/>
			<path class="st0" d="M338.6,33.5c0,0.7,0.1,1.2,0.3,1.5c0.2,0.3,0.5,0.4,1.1,0.4c0.2,0,0.4,0,0.6,0c0.2,0,0.5,0,0.8-0.1v3.9
				c-0.2,0.1-0.5,0.1-0.8,0.2c-0.3,0.1-0.6,0.2-1,0.2c-0.3,0.1-0.7,0.1-1,0.1c-0.3,0-0.6,0-0.8,0c-1.2,0-2.1-0.2-2.9-0.7
				c-0.8-0.5-1.3-1.3-1.5-2.4c-1.1,1.1-2.5,1.9-4.1,2.4c-1.6,0.5-3.2,0.7-4.7,0.7c-1.2,0-2.3-0.2-3.3-0.5c-1.1-0.3-2-0.8-2.8-1.4
				c-0.8-0.6-1.5-1.4-1.9-2.3c-0.5-0.9-0.7-2-0.7-3.3c0-1.6,0.3-2.9,0.9-3.9c0.6-1,1.3-1.8,2.3-2.3c0.9-0.6,2-1,3.2-1.2
				c1.2-0.2,2.4-0.4,3.5-0.6c1-0.2,2-0.3,2.9-0.4c0.9-0.1,1.7-0.2,2.5-0.4c0.7-0.2,1.3-0.5,1.7-0.9c0.4-0.4,0.6-1,0.6-1.9
				c0-0.7-0.2-1.3-0.5-1.8c-0.3-0.5-0.8-0.8-1.3-1.1c-0.5-0.2-1.1-0.4-1.7-0.5c-0.6-0.1-1.2-0.1-1.8-0.1c-1.6,0-2.9,0.3-3.9,1
				c-1,0.7-1.6,1.7-1.7,3.1h-5.6c0.1-1.7,0.5-3,1.2-4.1c0.7-1.1,1.6-2,2.7-2.6c1.1-0.7,2.3-1.1,3.6-1.4c1.4-0.3,2.7-0.4,4.2-0.4
				c1.3,0,2.5,0.1,3.7,0.4c1.2,0.3,2.3,0.7,3.3,1.3c1,0.6,1.8,1.4,2.4,2.3c0.6,0.9,0.9,2.1,0.9,3.4V33.5z M333,26.4
				c-0.9,0.6-1.9,0.9-3.2,1c-1.3,0.1-2.5,0.3-3.8,0.5c-0.6,0.1-1.2,0.2-1.7,0.4c-0.6,0.2-1.1,0.4-1.5,0.7c-0.4,0.3-0.8,0.7-1,1.2
				c-0.2,0.5-0.4,1.1-0.4,1.9c0,0.6,0.2,1.2,0.5,1.6c0.4,0.4,0.8,0.8,1.3,1c0.5,0.2,1.1,0.4,1.7,0.5c0.6,0.1,1.2,0.1,1.7,0.1
				c0.6,0,1.3-0.1,2-0.2c0.7-0.2,1.4-0.4,2.1-0.8c0.6-0.4,1.2-0.9,1.6-1.5c0.4-0.6,0.6-1.4,0.6-2.3V26.4z"/>
			<path class="st0" d="M344,3.9h5.6v35.4H344V3.9z"/>
			<path class="st0" d="M368.4,3.9h6.2v14.1h16.1V3.9h6.2v35.4h-6.2v-16h-16.1v16h-6.2V3.9z"/>
			<path class="st0" d="M425.2,39.2h-5.6v-3.6h-0.1c-0.7,1.3-1.7,2.3-3.1,3.1c-1.4,0.8-2.8,1.2-4.2,1.2c-3.4,0-5.8-0.8-7.3-2.5
				c-1.5-1.7-2.3-4.2-2.3-7.6V13.6h5.6v15.7c0,2.2,0.4,3.8,1.3,4.8c0.9,0.9,2.1,1.4,3.6,1.4c1.2,0,2.2-0.2,3-0.5
				c0.8-0.4,1.4-0.8,1.9-1.5c0.5-0.6,0.8-1.3,1.1-2.2c0.2-0.9,0.3-1.8,0.3-2.8V13.6h5.6V39.2z"/>
			<path class="st0" d="M430.3,13.6h5.4v3.6h0.2c0.4-0.6,0.9-1.2,1.4-1.7c0.5-0.5,1-1,1.7-1.3c0.6-0.4,1.3-0.7,2.1-0.9
				c0.8-0.2,1.7-0.3,2.7-0.3c1.6,0,3,0.3,4.3,1c1.3,0.7,2.3,1.8,2.8,3.2c1-1.3,2.1-2.4,3.3-3.1c1.3-0.8,2.8-1.1,4.7-1.1
				c2.7,0,4.8,0.7,6.3,2c1.5,1.3,2.3,3.5,2.3,6.6v17.7h-5.7v-15c0-1,0-2-0.1-2.8c-0.1-0.8-0.3-1.6-0.6-2.2c-0.3-0.6-0.8-1.1-1.4-1.4
				c-0.6-0.3-1.5-0.5-2.6-0.5c-1.9,0-3.3,0.6-4.2,1.8c-0.9,1.2-1.3,2.9-1.3,5.1v15h-5.6V22.8c0-1.8-0.3-3.1-1-4
				c-0.6-0.9-1.8-1.4-3.5-1.4c-0.7,0-1.4,0.1-2.1,0.4c-0.7,0.3-1.3,0.7-1.8,1.3c-0.5,0.6-0.9,1.3-1.2,2.1C436.1,22,436,23,436,24
				v15.2h-5.7V13.6z"/>
			<path class="st0" d="M494,33.5c0,0.7,0.1,1.2,0.3,1.5c0.2,0.3,0.5,0.4,1.1,0.4c0.2,0,0.4,0,0.6,0c0.2,0,0.5,0,0.8-0.1v3.9
				c-0.2,0.1-0.5,0.1-0.8,0.2c-0.3,0.1-0.6,0.2-1,0.2c-0.3,0.1-0.7,0.1-1,0.1c-0.3,0-0.6,0-0.8,0c-1.2,0-2.1-0.2-2.9-0.7
				s-1.3-1.3-1.5-2.4c-1.1,1.1-2.5,1.9-4.1,2.4c-1.6,0.5-3.2,0.7-4.7,0.7c-1.2,0-2.3-0.2-3.3-0.5c-1.1-0.3-2-0.8-2.8-1.4
				c-0.8-0.6-1.5-1.4-1.9-2.3c-0.5-0.9-0.7-2-0.7-3.3c0-1.6,0.3-2.9,0.9-3.9c0.6-1,1.3-1.8,2.3-2.3c0.9-0.6,2-1,3.2-1.2
				c1.2-0.2,2.4-0.4,3.5-0.6c1-0.2,2-0.3,2.9-0.4c0.9-0.1,1.7-0.2,2.5-0.4c0.7-0.2,1.3-0.5,1.7-0.9c0.4-0.4,0.6-1,0.6-1.9
				c0-0.7-0.2-1.3-0.5-1.8c-0.3-0.5-0.8-0.8-1.3-1.1c-0.5-0.2-1.1-0.4-1.7-0.5c-0.6-0.1-1.2-0.1-1.8-0.1c-1.6,0-2.9,0.3-3.9,1
				c-1,0.7-1.6,1.7-1.7,3.1h-5.7c0.1-1.7,0.5-3,1.2-4.1c0.7-1.1,1.6-2,2.7-2.6c1.1-0.7,2.3-1.1,3.6-1.4c1.4-0.3,2.7-0.4,4.2-0.4
				c1.3,0,2.5,0.1,3.7,0.4c1.2,0.3,2.3,0.7,3.3,1.3c1,0.6,1.8,1.4,2.4,2.3c0.6,0.9,0.9,2.1,0.9,3.4V33.5z M488.4,26.4
				c-0.9,0.6-1.9,0.9-3.2,1c-1.3,0.1-2.5,0.3-3.8,0.5c-0.6,0.1-1.2,0.2-1.7,0.4c-0.6,0.2-1.1,0.4-1.5,0.7c-0.4,0.3-0.8,0.7-1,1.2
				c-0.3,0.5-0.4,1.1-0.4,1.9c0,0.6,0.2,1.2,0.5,1.6c0.4,0.4,0.8,0.8,1.3,1c0.5,0.2,1.1,0.4,1.7,0.5c0.6,0.1,1.2,0.1,1.7,0.1
				c0.6,0,1.3-0.1,2-0.2c0.7-0.2,1.4-0.4,2.1-0.8c0.6-0.4,1.2-0.9,1.6-1.5c0.4-0.6,0.6-1.4,0.6-2.3V26.4z"/>
			<path class="st0" d="M499.2,13.6h5.3v3.8l0.1,0.1c0.9-1.4,2-2.5,3.4-3.3c1.4-0.8,2.9-1.2,4.6-1.2c2.8,0,5,0.7,6.6,2.2
				c1.6,1.5,2.4,3.6,2.4,6.5v17.6h-5.7V23.1c-0.1-2-0.5-3.5-1.3-4.4c-0.8-0.9-2-1.4-3.7-1.4c-1,0-1.8,0.2-2.6,0.5
				c-0.8,0.3-1.4,0.8-1.9,1.4c-0.5,0.6-0.9,1.3-1.2,2.2c-0.3,0.8-0.4,1.7-0.4,2.6v15.1h-5.6V13.6z"/>
			<path class="st0" d="M571.4,39.2h-4l-0.9-4.2c-1.7,1.9-3.3,3.2-5,3.9c-1.6,0.7-3.6,1.1-5.7,1.1c-2.6,0-5-0.5-7.1-1.5
				c-2.1-1-3.9-2.3-5.3-4c-1.5-1.7-2.6-3.6-3.3-5.9c-0.8-2.2-1.2-4.6-1.2-7.2c0-2.5,0.4-4.9,1.2-7.1c0.8-2.2,1.9-4.2,3.3-5.9
				c1.5-1.7,3.2-3,5.3-4s4.5-1.5,7.1-1.5c1.9,0,3.7,0.3,5.5,0.8c1.7,0.5,3.3,1.3,4.6,2.3c1.4,1,2.5,2.3,3.4,3.8
				c0.9,1.5,1.4,3.3,1.7,5.3h-6c-0.2-1.2-0.5-2.2-1.1-3c-0.5-0.9-1.2-1.6-2.1-2.2c-0.8-0.6-1.8-1-2.8-1.3c-1-0.3-2.1-0.4-3.2-0.4
				c-1.9,0-3.5,0.4-4.9,1.1c-1.4,0.8-2.5,1.8-3.3,3c-0.9,1.3-1.5,2.7-1.9,4.3c-0.4,1.6-0.6,3.3-0.6,5c0,1.7,0.2,3.3,0.6,5
				c0.4,1.6,1.1,3.1,1.9,4.3c0.9,1.3,2,2.3,3.3,3c1.4,0.8,3,1.1,4.9,1.1c1.6,0,3-0.2,4.2-0.6c1.2-0.4,2.3-1.1,3.1-1.9
				c0.8-0.8,1.5-1.9,1.9-3.1c0.4-1.2,0.7-2.6,0.7-4.1h-9.4v-4.7h15.1V39.2z"/>
			<path class="st0" d="M581,27.9c0,1,0.1,1.9,0.4,2.9c0.3,0.9,0.7,1.7,1.3,2.4c0.6,0.7,1.3,1.2,2.1,1.7c0.9,0.4,1.9,0.6,3.1,0.6
				c1.7,0,3-0.4,4-1.1c1-0.7,1.8-1.8,2.3-3.2h5.3c-0.3,1.4-0.8,2.6-1.5,3.7c-0.7,1.1-1.6,2-2.6,2.8c-1,0.7-2.2,1.3-3.4,1.7
				c-1.3,0.4-2.6,0.6-4,0.6c-2,0-3.8-0.3-5.3-1c-1.6-0.7-2.9-1.6-3.9-2.8c-1.1-1.2-1.9-2.6-2.4-4.3c-0.5-1.7-0.8-3.5-0.8-5.5
				c0-1.8,0.3-3.5,0.9-5.2c0.6-1.6,1.4-3.1,2.5-4.3c1.1-1.2,2.4-2.2,3.9-2.9c1.5-0.7,3.2-1.1,5.2-1.1c2,0,3.8,0.4,5.4,1.3
				c1.6,0.8,2.9,2,4,3.3c1.1,1.4,1.8,3,2.3,4.8c0.5,1.8,0.6,3.7,0.4,5.6H581z M594.1,24.2c-0.1-0.9-0.3-1.8-0.6-2.6
				c-0.3-0.8-0.7-1.5-1.3-2.2c-0.5-0.6-1.2-1.1-2-1.5c-0.8-0.4-1.6-0.6-2.6-0.6c-1,0-1.9,0.2-2.7,0.5c-0.8,0.3-1.5,0.8-2.1,1.4
				c-0.6,0.6-1,1.3-1.4,2.2c-0.3,0.8-0.5,1.7-0.6,2.7H594.1z"/>
			<path class="st0" d="M603.2,13.6h5.4v3.8l0.1,0.1c0.9-1.4,2-2.5,3.4-3.3c1.4-0.8,2.9-1.2,4.6-1.2c2.8,0,5,0.7,6.6,2.2
				c1.6,1.5,2.4,3.6,2.4,6.5v17.6h-5.6V23.1c-0.1-2-0.5-3.5-1.3-4.4c-0.8-0.9-2-1.4-3.7-1.4c-1,0-1.8,0.2-2.6,0.5s-1.4,0.8-1.9,1.4
				c-0.5,0.6-0.9,1.3-1.2,2.2c-0.3,0.8-0.4,1.7-0.4,2.6v15.1h-5.7V13.6z"/>
			<path class="st0" d="M642.6,39.9c-2,0-3.9-0.3-5.5-1c-1.6-0.7-3-1.6-4.1-2.8c-1.1-1.2-1.9-2.6-2.5-4.3c-0.6-1.7-0.9-3.5-0.9-5.5
				c0-1.9,0.3-3.7,0.9-5.4c0.6-1.7,1.4-3.1,2.5-4.3c1.1-1.2,2.5-2.1,4.1-2.8c1.6-0.7,3.4-1,5.5-1c2.1,0,3.9,0.3,5.5,1
				c1.6,0.7,3,1.6,4.1,2.8c1.1,1.2,1.9,2.6,2.5,4.3c0.6,1.7,0.9,3.5,0.9,5.4c0,2-0.3,3.8-0.9,5.5c-0.6,1.7-1.4,3.1-2.5,4.3
				c-1.1,1.2-2.5,2.1-4.1,2.8C646.5,39.6,644.6,39.9,642.6,39.9z M642.6,35.5c1.3,0,2.3-0.3,3.3-0.8c0.9-0.5,1.7-1.2,2.3-2.1
				c0.6-0.9,1-1.8,1.3-2.9c0.3-1.1,0.4-2.2,0.4-3.3c0-1.1-0.1-2.2-0.4-3.3c-0.3-1.1-0.7-2.1-1.3-2.9c-0.6-0.8-1.4-1.5-2.3-2.1
				c-0.9-0.5-2-0.8-3.3-0.8c-1.3,0-2.3,0.3-3.3,0.8c-0.9,0.5-1.7,1.2-2.3,2.1c-0.6,0.8-1,1.8-1.3,2.9c-0.3,1.1-0.4,2.2-0.4,3.3
				c0,1.1,0.1,2.2,0.4,3.3c0.3,1.1,0.7,2,1.3,2.9c0.6,0.9,1.4,1.6,2.3,2.1C640.2,35.2,641.3,35.5,642.6,35.5z"/>
			<path class="st0" d="M659.4,13.6h5.3v3.6h0.1c0.4-0.6,0.9-1.2,1.4-1.7c0.5-0.5,1.1-1,1.7-1.3c0.6-0.4,1.3-0.7,2.1-0.9
				c0.8-0.2,1.7-0.3,2.7-0.3c1.6,0,3,0.3,4.3,1c1.3,0.7,2.3,1.8,2.8,3.2c1-1.3,2.1-2.4,3.3-3.1c1.3-0.8,2.8-1.1,4.7-1.1
				c2.7,0,4.8,0.7,6.3,2c1.5,1.3,2.3,3.5,2.3,6.6v17.7h-5.7v-15c0-1,0-2-0.1-2.8c-0.1-0.8-0.3-1.6-0.6-2.2c-0.3-0.6-0.8-1.1-1.4-1.4
				c-0.6-0.3-1.5-0.5-2.6-0.5c-1.9,0-3.3,0.6-4.2,1.8c-0.9,1.2-1.3,2.9-1.3,5.1v15h-5.7V22.8c0-1.8-0.3-3.1-1-4
				c-0.6-0.9-1.8-1.4-3.5-1.4c-0.7,0-1.4,0.1-2.1,0.4c-0.7,0.3-1.3,0.7-1.8,1.3c-0.5,0.6-0.9,1.3-1.2,2.1C665.2,22,665,23,665,24
				v15.2h-5.6V13.6z"/>
			<path class="st0" d="M706.1,27.9c0,1,0.1,1.9,0.4,2.9c0.3,0.9,0.7,1.7,1.3,2.4c0.6,0.7,1.3,1.2,2.1,1.7c0.9,0.4,1.9,0.6,3.1,0.6
				c1.7,0,3-0.4,4-1.1c1-0.7,1.8-1.8,2.3-3.2h5.3c-0.3,1.4-0.8,2.6-1.5,3.7c-0.7,1.1-1.6,2-2.6,2.8c-1,0.7-2.2,1.3-3.4,1.7
				c-1.3,0.4-2.6,0.6-4,0.6c-2,0-3.8-0.3-5.3-1c-1.6-0.7-2.9-1.6-3.9-2.8c-1.1-1.2-1.9-2.6-2.4-4.3c-0.5-1.7-0.8-3.5-0.8-5.5
				c0-1.8,0.3-3.5,0.9-5.2c0.6-1.6,1.4-3.1,2.5-4.3c1.1-1.2,2.4-2.2,3.9-2.9c1.5-0.7,3.2-1.1,5.2-1.1c2,0,3.8,0.4,5.4,1.3
				c1.6,0.8,2.9,2,4,3.3c1.1,1.4,1.8,3,2.3,4.8c0.5,1.8,0.6,3.7,0.4,5.6H706.1z M719.2,24.2c-0.1-0.9-0.3-1.8-0.6-2.6
				c-0.3-0.8-0.7-1.5-1.3-2.2c-0.5-0.6-1.2-1.1-2-1.5c-0.8-0.4-1.6-0.6-2.6-0.6c-1,0-1.9,0.2-2.7,0.5c-0.8,0.3-1.5,0.8-2.1,1.4
				c-0.6,0.6-1,1.3-1.4,2.2c-0.3,0.8-0.5,1.7-0.6,2.7H719.2z"/>
		</g>
		<g>
			<path class="st0" d="M173.5,57.3h16.9c3.9,0,6.8,0.8,8.8,2.5c1.9,1.7,2.9,4,2.9,7c0,1.7-0.2,3.1-0.7,4.2c-0.5,1.1-1.1,2-1.7,2.7
				c-0.7,0.7-1.3,1.2-2,1.5c-0.6,0.3-1.1,0.5-1.4,0.6v0.1c0.5,0.1,1.1,0.2,1.7,0.5c0.6,0.3,1.2,0.7,1.7,1.3c0.5,0.6,1,1.3,1.3,2.3
				c0.3,0.9,0.5,2.1,0.5,3.5c0,2.1,0.2,4,0.5,5.7c0.3,1.7,0.8,2.9,1.5,3.6h-6.6c-0.5-0.8-0.7-1.6-0.8-2.5c-0.1-0.9-0.1-1.8-0.1-2.7
				c0-1.6-0.1-3-0.3-4.2c-0.2-1.2-0.6-2.1-1.1-2.9c-0.5-0.8-1.2-1.3-2.2-1.7s-2.1-0.5-3.5-0.5h-9.1v14.6h-6.2V57.3z M179.7,73.4
				h10.2c2,0,3.5-0.5,4.5-1.4c1-0.9,1.5-2.4,1.5-4.2c0-1.1-0.2-2-0.5-2.7c-0.3-0.7-0.8-1.3-1.4-1.7c-0.6-0.4-1.2-0.7-2-0.8
				c-0.7-0.1-1.5-0.2-2.3-0.2h-10.1V73.4z"/>
			<path class="st0" d="M211.1,81.3c0,1,0.1,2,0.4,2.9c0.3,0.9,0.7,1.7,1.3,2.4c0.6,0.7,1.3,1.2,2.1,1.7c0.9,0.4,1.9,0.6,3.1,0.6
				c1.7,0,3-0.4,4-1.1c1-0.7,1.8-1.8,2.3-3.2h5.4c-0.3,1.4-0.8,2.6-1.5,3.7c-0.7,1.1-1.6,2-2.6,2.8c-1,0.7-2.2,1.3-3.4,1.7
				c-1.3,0.4-2.6,0.6-4,0.6c-2,0-3.8-0.3-5.4-1c-1.6-0.7-2.9-1.6-3.9-2.8c-1.1-1.2-1.9-2.6-2.4-4.3c-0.5-1.7-0.8-3.5-0.8-5.5
				c0-1.8,0.3-3.5,0.9-5.2c0.6-1.6,1.4-3.1,2.5-4.3c1.1-1.2,2.4-2.2,3.9-2.9c1.5-0.7,3.2-1.1,5.2-1.1c2,0,3.8,0.4,5.4,1.3
				c1.6,0.8,2.9,2,4,3.3c1.1,1.4,1.8,3,2.3,4.8c0.5,1.8,0.6,3.7,0.4,5.6H211.1z M224.3,77.6c-0.1-0.9-0.3-1.8-0.6-2.6
				c-0.3-0.8-0.7-1.5-1.3-2.2c-0.5-0.6-1.2-1.1-2-1.5c-0.8-0.4-1.6-0.6-2.6-0.6c-1,0-1.9,0.2-2.7,0.5c-0.8,0.3-1.5,0.8-2.1,1.4
				c-0.6,0.6-1,1.3-1.4,2.2c-0.3,0.8-0.5,1.7-0.6,2.7H224.3z"/>
			<path class="st0" d="M237.7,84.5c0.2,1.7,0.8,2.8,1.9,3.5c1.1,0.7,2.4,1,3.9,1c0.5,0,1.1,0,1.8-0.1c0.7-0.1,1.3-0.2,1.9-0.5
				c0.6-0.2,1.1-0.6,1.5-1c0.4-0.4,0.6-1,0.5-1.8c0-0.7-0.3-1.3-0.8-1.8c-0.5-0.5-1.1-0.8-1.9-1.1c-0.8-0.3-1.7-0.5-2.7-0.7
				c-1-0.2-2-0.4-3-0.6c-1.1-0.2-2.1-0.5-3-0.8c-1-0.3-1.9-0.8-2.6-1.3c-0.8-0.6-1.4-1.3-1.9-2.2c-0.5-0.9-0.7-2-0.7-3.2
				c0-1.4,0.3-2.6,1-3.5c0.7-0.9,1.5-1.7,2.6-2.3c1-0.6,2.2-1,3.5-1.2s2.5-0.3,3.6-0.3c1.3,0,2.6,0.1,3.8,0.4
				c1.2,0.3,2.3,0.7,3.3,1.4c1,0.6,1.8,1.4,2.4,2.5c0.6,1,1,2.2,1.2,3.6h-5.9c-0.3-1.4-0.9-2.3-1.9-2.7c-1-0.5-2.1-0.7-3.3-0.7
				c-0.4,0-0.9,0-1.4,0.1c-0.5,0.1-1.1,0.2-1.5,0.4c-0.5,0.2-0.9,0.4-1.2,0.8c-0.3,0.3-0.5,0.8-0.5,1.4c0,0.7,0.2,1.3,0.7,1.7
				c0.5,0.4,1.1,0.8,1.9,1.1c0.8,0.3,1.7,0.5,2.7,0.7c1,0.2,2,0.4,3.1,0.6c1,0.2,2,0.5,3,0.8c1,0.3,1.9,0.8,2.7,1.3
				c0.8,0.6,1.4,1.3,1.9,2.1c0.5,0.9,0.7,1.9,0.7,3.2c0,1.5-0.3,2.8-1,3.9c-0.7,1.1-1.6,1.9-2.7,2.6c-1.1,0.7-2.3,1.1-3.7,1.4
				c-1.4,0.3-2.7,0.4-4,0.4c-1.6,0-3.1-0.2-4.5-0.5c-1.4-0.4-2.6-0.9-3.6-1.7c-1-0.7-1.8-1.7-2.4-2.8c-0.6-1.1-0.9-2.4-0.9-3.9
				H237.7z"/>
			<path class="st0" d="M262.7,81.3c0,1,0.1,2,0.4,2.9c0.3,0.9,0.7,1.7,1.3,2.4c0.6,0.7,1.3,1.2,2.1,1.7c0.9,0.4,1.9,0.6,3.1,0.6
				c1.7,0,3-0.4,4-1.1c1-0.7,1.8-1.8,2.3-3.2h5.4c-0.3,1.4-0.8,2.6-1.5,3.7s-1.6,2-2.6,2.8c-1,0.7-2.2,1.3-3.4,1.7
				c-1.3,0.4-2.6,0.6-4,0.6c-2,0-3.8-0.3-5.4-1c-1.6-0.7-2.9-1.6-3.9-2.8c-1.1-1.2-1.9-2.6-2.4-4.3c-0.5-1.7-0.8-3.5-0.8-5.5
				c0-1.8,0.3-3.5,0.9-5.2c0.6-1.6,1.4-3.1,2.5-4.3c1.1-1.2,2.4-2.2,3.9-2.9c1.5-0.7,3.2-1.1,5.2-1.1c2,0,3.8,0.4,5.4,1.3
				c1.6,0.8,2.9,2,4,3.3c1.1,1.4,1.8,3,2.3,4.8c0.5,1.8,0.6,3.7,0.4,5.6H262.7z M275.8,77.6c-0.1-0.9-0.3-1.8-0.6-2.6
				c-0.3-0.8-0.7-1.5-1.3-2.2c-0.5-0.6-1.2-1.1-2-1.5c-0.8-0.4-1.6-0.6-2.6-0.6c-1,0-1.9,0.2-2.7,0.5c-0.8,0.3-1.5,0.8-2.1,1.4
				c-0.6,0.6-1,1.3-1.4,2.2c-0.3,0.8-0.5,1.7-0.6,2.7H275.8z"/>
			<path class="st0" d="M306.4,87c0,0.7,0.1,1.2,0.3,1.5c0.2,0.3,0.5,0.4,1.1,0.4c0.2,0,0.4,0,0.6,0c0.2,0,0.5,0,0.8-0.1v3.9
				c-0.2,0.1-0.5,0.1-0.8,0.2c-0.3,0.1-0.6,0.2-1,0.2c-0.3,0.1-0.7,0.1-1,0.1c-0.3,0-0.6,0-0.8,0c-1.2,0-2.1-0.2-2.9-0.7
				c-0.8-0.5-1.3-1.3-1.5-2.4c-1.1,1.1-2.5,1.9-4.1,2.4c-1.6,0.5-3.2,0.7-4.7,0.7c-1.2,0-2.3-0.2-3.3-0.5c-1.1-0.3-2-0.8-2.8-1.4
				c-0.8-0.6-1.5-1.4-1.9-2.3c-0.5-0.9-0.7-2-0.7-3.3c0-1.6,0.3-2.9,0.9-3.9c0.6-1,1.3-1.8,2.3-2.3c0.9-0.6,2-1,3.2-1.2
				c1.2-0.2,2.4-0.4,3.5-0.6c1-0.2,2-0.3,2.9-0.4c0.9-0.1,1.7-0.2,2.5-0.4c0.7-0.2,1.3-0.5,1.7-0.9c0.4-0.4,0.6-1,0.6-1.9
				c0-0.7-0.2-1.3-0.5-1.8c-0.3-0.5-0.8-0.8-1.3-1.1c-0.5-0.2-1.1-0.4-1.7-0.5c-0.6-0.1-1.2-0.1-1.8-0.1c-1.6,0-2.9,0.3-3.9,1
				c-1,0.7-1.6,1.7-1.7,3.1h-5.6c0.1-1.7,0.5-3,1.2-4.1c0.7-1.1,1.6-2,2.6-2.6c1.1-0.7,2.3-1.1,3.6-1.4c1.4-0.3,2.7-0.4,4.2-0.4
				c1.3,0,2.5,0.1,3.7,0.4c1.2,0.3,2.3,0.7,3.3,1.3c1,0.6,1.8,1.4,2.4,2.3c0.6,0.9,0.9,2.1,0.9,3.4V87z M300.7,79.9
				c-0.9,0.6-1.9,0.9-3.2,1c-1.3,0.1-2.5,0.3-3.8,0.5c-0.6,0.1-1.2,0.2-1.7,0.4c-0.6,0.2-1.1,0.4-1.5,0.7c-0.4,0.3-0.8,0.7-1,1.2
				c-0.3,0.5-0.4,1.1-0.4,1.9c0,0.6,0.2,1.2,0.5,1.6c0.4,0.4,0.8,0.8,1.3,1c0.5,0.2,1.1,0.4,1.7,0.5c0.6,0.1,1.2,0.1,1.7,0.1
				c0.6,0,1.3-0.1,2-0.2c0.7-0.2,1.4-0.4,2.1-0.8c0.6-0.4,1.2-0.9,1.6-1.5c0.4-0.6,0.6-1.4,0.6-2.3V79.9z"/>
			<path class="st0" d="M311.6,67.1h5.3v5h0.1c0.2-0.7,0.5-1.4,1-2c0.5-0.7,1.1-1.3,1.7-1.8c0.7-0.5,1.4-1,2.3-1.3
				c0.8-0.3,1.7-0.5,2.5-0.5c0.7,0,1.1,0,1.4,0c0.2,0,0.5,0.1,0.8,0.1V72c-0.4-0.1-0.8-0.1-1.2-0.2c-0.4,0-0.8-0.1-1.2-0.1
				c-1,0-1.9,0.2-2.7,0.6c-0.8,0.4-1.6,0.9-2.2,1.7c-0.6,0.7-1.1,1.7-1.5,2.7c-0.4,1.1-0.5,2.3-0.5,3.8v12.2h-5.6V67.1z"/>
			<path class="st0" d="M344.6,75.6c-0.2-1.6-0.9-2.8-1.9-3.6c-1-0.8-2.4-1.2-3.9-1.2c-0.7,0-1.5,0.1-2.3,0.4
				c-0.8,0.2-1.6,0.7-2.3,1.4c-0.7,0.7-1.3,1.6-1.7,2.8c-0.5,1.2-0.7,2.8-0.7,4.7c0,1.1,0.1,2.1,0.4,3.2c0.2,1.1,0.6,2,1.2,2.8
				c0.5,0.8,1.2,1.5,2.1,2c0.9,0.5,1.9,0.8,3.1,0.8c1.7,0,3-0.5,4.1-1.5c1.1-1,1.7-2.5,2-4.3h5.6c-0.5,3.3-1.8,5.9-3.8,7.7
				c-2,1.8-4.6,2.7-8,2.7c-2,0-3.8-0.3-5.3-1c-1.5-0.7-2.8-1.6-3.9-2.8c-1.1-1.2-1.9-2.6-2.4-4.2c-0.5-1.6-0.8-3.4-0.8-5.3
				c0-1.9,0.3-3.7,0.8-5.4c0.5-1.7,1.3-3.1,2.4-4.4c1.1-1.2,2.4-2.2,3.9-2.9c1.6-0.7,3.4-1.1,5.5-1.1c1.5,0,2.9,0.2,4.2,0.6
				c1.3,0.4,2.5,0.9,3.6,1.7c1,0.8,1.9,1.7,2.6,2.9c0.7,1.2,1.1,2.5,1.2,4.1H344.6z"/>
			<path class="st0" d="M353.9,57.3h5.6v13.1h0.1c0.7-1.2,1.7-2.1,3.1-2.9c1.4-0.8,2.9-1.2,4.6-1.2c2.8,0,5,0.7,6.6,2.2
				c1.6,1.5,2.4,3.6,2.4,6.5v17.6h-5.7V76.6c-0.1-2-0.5-3.5-1.3-4.4c-0.8-0.9-2-1.4-3.7-1.4c-1,0-1.8,0.2-2.6,0.5
				c-0.8,0.3-1.4,0.8-1.9,1.4c-0.5,0.6-0.9,1.3-1.2,2.2c-0.3,0.8-0.4,1.7-0.4,2.6v15.1h-5.6V57.3z"/>
			<path class="st0" d="M395.2,57.3h6.2v35.4h-6.2V57.3z"/>
			<path class="st0" d="M407.3,67.1h5.3v3.8l0.1,0.1c0.9-1.4,2-2.5,3.4-3.3c1.4-0.8,2.9-1.2,4.6-1.2c2.8,0,5,0.7,6.6,2.2
				c1.6,1.5,2.4,3.6,2.4,6.5v17.6h-5.7V76.6c-0.1-2-0.5-3.5-1.3-4.4c-0.8-0.9-2-1.4-3.7-1.4c-1,0-1.8,0.2-2.6,0.5
				c-0.8,0.3-1.4,0.8-1.9,1.4c-0.5,0.6-0.9,1.3-1.2,2.2c-0.3,0.8-0.4,1.7-0.4,2.6v15.1h-5.6V67.1z"/>
			<path class="st0" d="M439.1,84.5c0.2,1.7,0.8,2.8,1.9,3.5c1.1,0.7,2.4,1,3.9,1c0.5,0,1.1,0,1.8-0.1c0.7-0.1,1.3-0.2,1.9-0.5
				c0.6-0.2,1.1-0.6,1.5-1c0.4-0.4,0.6-1,0.5-1.8s-0.3-1.3-0.8-1.8c-0.5-0.5-1.1-0.8-1.9-1.1c-0.8-0.3-1.7-0.5-2.6-0.7
				c-1-0.2-2-0.4-3-0.6c-1.1-0.2-2.1-0.5-3-0.8c-1-0.3-1.9-0.8-2.6-1.3c-0.8-0.6-1.4-1.3-1.9-2.2c-0.5-0.9-0.7-2-0.7-3.2
				c0-1.4,0.3-2.6,1-3.5c0.7-0.9,1.5-1.7,2.6-2.3c1-0.6,2.2-1,3.5-1.2c1.3-0.2,2.5-0.3,3.6-0.3c1.3,0,2.6,0.1,3.8,0.4
				c1.2,0.3,2.3,0.7,3.3,1.4c1,0.6,1.8,1.4,2.4,2.5c0.6,1,1,2.2,1.2,3.6h-5.9c-0.3-1.4-0.9-2.3-1.9-2.7c-1-0.5-2.1-0.7-3.3-0.7
				c-0.4,0-0.9,0-1.4,0.1c-0.5,0.1-1.1,0.2-1.5,0.4c-0.5,0.2-0.9,0.4-1.2,0.8c-0.3,0.3-0.5,0.8-0.5,1.4c0,0.7,0.2,1.3,0.7,1.7
				c0.5,0.4,1.1,0.8,1.9,1.1c0.8,0.3,1.7,0.5,2.7,0.7c1,0.2,2,0.4,3.1,0.6c1,0.2,2,0.5,3,0.8c1,0.3,1.9,0.8,2.7,1.3
				c0.8,0.6,1.4,1.3,1.9,2.1c0.5,0.9,0.7,1.9,0.7,3.2c0,1.5-0.3,2.8-1,3.9c-0.7,1.1-1.6,1.9-2.7,2.6c-1.1,0.7-2.3,1.1-3.7,1.4
				c-1.4,0.3-2.7,0.4-4,0.4c-1.6,0-3.1-0.2-4.5-0.5c-1.4-0.4-2.6-0.9-3.6-1.7c-1-0.7-1.8-1.7-2.4-2.8c-0.6-1.1-0.9-2.4-0.9-3.9
				H439.1z"/>
			<path class="st0" d="M457.2,67.1h4.3v-7.7h5.7v7.7h5.1v4.2h-5.1V85c0,0.6,0,1.1,0.1,1.5c0,0.4,0.2,0.8,0.3,1.1
				c0.2,0.3,0.5,0.5,0.8,0.7c0.4,0.1,0.9,0.2,1.5,0.2c0.4,0,0.8,0,1.2,0c0.4,0,0.8-0.1,1.2-0.2v4.4c-0.6,0.1-1.2,0.1-1.8,0.2
				c-0.6,0.1-1.2,0.1-1.8,0.1c-1.5,0-2.7-0.1-3.6-0.4c-0.9-0.3-1.6-0.7-2.1-1.2c-0.5-0.5-0.9-1.2-1-2.1s-0.3-1.8-0.3-2.8V71.3h-4.3
				V67.1z"/>
			<path class="st0" d="M475.5,57.3h5.7v5.4h-5.7V57.3z M475.5,67.1h5.7v25.6h-5.7V67.1z"/>
			<path class="st0" d="M483.9,67.1h4.3v-7.7h5.6v7.7h5.1v4.2h-5.1V85c0,0.6,0,1.1,0.1,1.5c0.1,0.4,0.2,0.8,0.3,1.1
				c0.2,0.3,0.5,0.5,0.8,0.7c0.4,0.1,0.9,0.2,1.5,0.2c0.4,0,0.8,0,1.2,0c0.4,0,0.8-0.1,1.2-0.2v4.4c-0.6,0.1-1.2,0.1-1.8,0.2
				c-0.6,0.1-1.2,0.1-1.8,0.1c-1.5,0-2.7-0.1-3.6-0.4c-0.9-0.3-1.6-0.7-2.1-1.2c-0.5-0.5-0.9-1.2-1-2.1s-0.3-1.8-0.3-2.8V71.3h-4.3
				V67.1z"/>
			<path class="st0" d="M524.6,92.7h-5.6v-3.6H519c-0.7,1.3-1.7,2.3-3.1,3.1c-1.4,0.8-2.8,1.2-4.2,1.2c-3.4,0-5.8-0.8-7.3-2.5
				c-1.5-1.7-2.3-4.2-2.3-7.6V67.1h5.6v15.7c0,2.2,0.4,3.8,1.3,4.8c0.9,0.9,2.1,1.4,3.6,1.4c1.2,0,2.2-0.2,3-0.5
				c0.8-0.4,1.4-0.8,1.9-1.5c0.5-0.6,0.9-1.3,1.1-2.2c0.2-0.9,0.3-1.8,0.3-2.8V67.1h5.7V92.7z"/>
			<path class="st0" d="M527.1,67.1h4.3v-7.7h5.6v7.7h5.1v4.2h-5.1V85c0,0.6,0,1.1,0.1,1.5c0.1,0.4,0.2,0.8,0.3,1.1
				c0.2,0.3,0.5,0.5,0.8,0.7c0.4,0.1,0.9,0.2,1.5,0.2c0.4,0,0.8,0,1.2,0c0.4,0,0.8-0.1,1.2-0.2v4.4c-0.6,0.1-1.2,0.1-1.8,0.2
				c-0.6,0.1-1.2,0.1-1.8,0.1c-1.5,0-2.7-0.1-3.6-0.4c-0.9-0.3-1.6-0.7-2.1-1.2c-0.5-0.5-0.9-1.2-1-2.1c-0.2-0.8-0.3-1.8-0.3-2.8
				V71.3h-4.3V67.1z"/>
			<path class="st0" d="M549.8,81.3c0,1,0.1,2,0.4,2.9c0.3,0.9,0.7,1.7,1.3,2.4c0.6,0.7,1.3,1.2,2.1,1.7c0.9,0.4,1.9,0.6,3.1,0.6
				c1.7,0,3-0.4,4-1.1c1-0.7,1.8-1.8,2.3-3.2h5.3c-0.3,1.4-0.8,2.6-1.5,3.7c-0.7,1.1-1.6,2-2.6,2.8c-1,0.7-2.2,1.3-3.4,1.7
				c-1.3,0.4-2.6,0.6-4,0.6c-2,0-3.8-0.3-5.3-1c-1.6-0.7-2.9-1.6-3.9-2.8c-1.1-1.2-1.9-2.6-2.4-4.3c-0.5-1.7-0.8-3.5-0.8-5.5
				c0-1.8,0.3-3.5,0.9-5.2c0.6-1.6,1.4-3.1,2.5-4.3c1.1-1.2,2.4-2.2,3.9-2.9c1.5-0.7,3.2-1.1,5.2-1.1c2,0,3.8,0.4,5.4,1.3
				c1.6,0.8,2.9,2,4,3.3c1.1,1.4,1.8,3,2.3,4.8c0.5,1.8,0.6,3.7,0.4,5.6H549.8z M563,77.6c-0.1-0.9-0.3-1.8-0.6-2.6
				c-0.3-0.8-0.7-1.5-1.3-2.2c-0.5-0.6-1.2-1.1-2-1.5c-0.8-0.4-1.6-0.6-2.6-0.6c-1,0-1.9,0.2-2.7,0.5c-0.8,0.3-1.5,0.8-2.1,1.4
				c-0.6,0.6-1,1.3-1.4,2.2c-0.3,0.8-0.5,1.7-0.6,2.7H563z"/>
		</g>
	</g>
</g>
</svg>
