<?xml version="1.0" encoding="utf-8"?>
<!-- Generator: Adobe Illustrator 21.0.2, SVG Export Plug-In . SVG Version: 6.00 Build 0)  -->
<svg version="1.1" id="map" xmlns="http://www.w3.org/2000/svg" xmlns:xlink="http://www.w3.org/1999/xlink" x="0px" y="0px"
	 viewBox="0 0 128 128" style="enable-background:new 0 0 128 128;" xml:space="preserve">
<style type="text/css">
	.st0{fill:#D3D1D1;}
	.st1{fill:#3AD0F9;}
	.st2{fill:#00B3F9;}
	.st3{fill:#78EAAC;}
	.st4{fill:#54D38A;}
	.st5{fill:#0C508E;}
	.st6{fill:#78EAAC;stroke:#176859;stroke-width:2;stroke-linecap:round;stroke-linejoin:round;stroke-miterlimit:10;}
	.st7{fill:#FFFFFF;}
	.st8{opacity:0.5;fill:#FFFFFF;}
</style>
<g>
	<circle class="st0" cx="64" cy="64" r="64"/>
	<polygon class="st1" points="37.1,26.1 37.1,106.7 9,100.4 9,19.8 	"/>
	<polygon class="st1" points="93.5,26.1 93.5,106.7 65.4,100.4 65.4,19.8 	"/>
	<polygon class="st2" points="65.4,100.4 65.4,19.8 37.3,26.1 37.3,106.7 	"/>
	<path class="st3" d="M65.5,20l-28.3,6.2L9,19.8v61.5c0.2,0,0.3-0.1,0.3-0.1s8.2,4.5,18,7s19.2-4.5,19.2-10.8s-0.2-19,9-23
		s25.8-15,22.5-31.2c0-0.2-0.1-0.4-0.1-0.6L65.7,20H65.5z"/>
	<polygon class="st2" points="121.6,100.4 121.6,19.8 93.5,26.1 93,106.7 	"/>
	<path class="st4" d="M105.5,71.2c-2.7,11.7-5.3,22.6,3.7,31.8l11.7-2.6V55.2C121,55.2,108.2,59.5,105.5,71.2z"/>
	<path class="st4" d="M65,19.8l-28,6.3v61.6c6-1.9,9.3-6.2,9.3-10.2c0-6.2-0.4-19,8.9-23c2.9-1.2,6.8-3.2,9.8-5.7V19.8z"/>
	<path class="st5" d="M93,107.7c-0.2,0-0.4-0.1-0.6-0.2c-0.2-0.2-0.4-0.5-0.4-0.8V26.1c0-0.5,0.3-0.9,0.8-1l28-6.3
		c0.3-0.1,0.6,0,0.8,0.2c0.2,0.2,0.4,0.5,0.4,0.8v80.6c0,0.5-0.3,0.9-0.8,1l-28,6.3C93.1,107.7,93.1,107.7,93,107.7z M94,26.9v78.5
		l26-5.9V21L94,26.9z"/>
	<path class="st5" d="M37,107.7c-0.2,0-0.4-0.1-0.6-0.2c-0.2-0.2-0.4-0.5-0.4-0.8V26.1c0-0.5,0.3-0.9,0.8-1l28-6.3
		c0.3-0.1,0.6,0,0.8,0.2c0.2,0.2,0.4,0.5,0.4,0.8v80.6c0,0.5-0.3,0.9-0.8,1l-28,6.3C37.1,107.7,37.1,107.7,37,107.7z M38,26.9v78.5
		l26-5.9V21L38,26.9z"/>
	<path class="st6" d="M66,19.5"/>
	<path class="st5" d="M31.3,89.8c-1.5,0-2.9-0.2-4.4-0.6c-8.7-2.2-16-6-17.7-6.9c-0.4,0-0.8-0.3-1-0.7c-0.1-0.5,0.1-1,0.5-1.2
		c0.3-0.2,0.7-0.2,1,0c0.1,0,8.1,4.5,17.6,6.9c4.7,1.2,10.1,0.1,14-2.9c2.6-2,4.3-4.6,4.3-6.9V77c0-6.7-0.3-19.3,9.3-23.4
		c2.6-1.1,24.7-11.9,21.7-30c-0.1-0.1-0.1-1.1,0.7-1.3c0.8-0.1,1,0.3,1.1,0.7c3,15.2-10.2,26.9-22.7,32.4
		c-8.4,3.6-8.1,15.3-8.1,21.6v0.5c0,3-2,6-5.1,8.5C39.5,88.4,35.3,89.8,31.3,89.8z"/>
	<path class="st5" d="M92.8,107.7c-0.6-0.1-28-6.3-28-6.3c-0.5-0.1-0.8-0.5-0.8-1V19.8c0-0.3,0.1-0.6,0.4-0.8
		c0.2-0.2,0.5-0.3,0.8-0.2l28,6.3c0.5,0.1,0.8,0.5,0.8,1c0,0,0,79.9,0,80.6S93.4,107.8,92.8,107.7z M66,99.5l26,5.2V26.9L66,21V99.5
		z"/>
	<path class="st5" d="M37,107.7c-0.1,0-0.1,0-0.2,0l-28-6.3c-0.5-0.1-0.8-0.5-0.8-1V19.8c0-0.3,0.1-0.6,0.4-0.8
		c0.2-0.2,0.5-0.3,0.8-0.2l28,6.3c0.5,0.1,0.8,0.5,0.8,1v80.6c0,0.3-0.1,0.6-0.4,0.8C37.4,107.6,37.2,107.7,37,107.7z M10,99.6
		l26,5.9V26.9L10,21V99.6z"/>
	<path class="st5" d="M109.3,104c-0.3,0-0.5-0.1-0.7-0.3c-9.3-9.5-6.8-20.6-4.1-32.3l0.1-0.4c2.8-12.1,15.6-16.5,16.1-16.7
		c0.5-0.2,1.1,0.1,1.3,0.6c0.2,0.5-0.1,1.1-0.6,1.3c-0.1,0-12.3,4.3-14.8,15.3l-0.1,0.4c-2.6,11.2-5,21.8,3.6,30.5
		c0.4,0.4,0.4,1,0,1.4C109.8,103.9,109.5,104,109.3,104z"/>
	<path class="st5" d="M48,104.3c-0.5,0-0.9-0.3-1-0.8c0-0.1-0.3-1.9-0.3-4.3c0-0.6,0.5-1.2,1-1.2c0,0,0,0,0,0c0.6,0,1,0.6,1,1.2
		c0,2.2,0.3,3.9,0.3,3.9c0.1,0.5-0.3,1.1-0.8,1.2C48.1,104.3,48,104.3,48,104.3z"/>
	<path class="st5" d="M49.2,93c-0.1,0-0.3,0-0.4-0.1c-0.5-0.2-0.8-0.8-0.5-1.3c1.2-3,3.1-5.3,5.6-7c0.5-0.3,1.1-0.2,1.4,0.3
		c0.3,0.5,0.2,1.1-0.3,1.4c-2.2,1.4-3.8,3.5-4.9,6.1C50,92.7,49.6,93,49.2,93z M62.2,82.9c-0.4,0-0.7-0.2-0.9-0.6
		c-0.2-0.5,0-1.1,0.5-1.3c2.9-1.3,5.3-2.5,7.5-3.8c0.5-0.3,1.1-0.1,1.4,0.4c0.3,0.5,0.1,1.1-0.4,1.4c-2.2,1.3-4.8,2.6-7.7,3.9
		C62.4,82.8,62.3,82.9,62.2,82.9z M76.7,74.2c-0.3,0-0.6-0.1-0.8-0.3c-0.4-0.4-0.3-1,0.1-1.4c2.3-2.1,4-4.2,4.8-6.3
		c0.2-0.5,0.8-0.8,1.3-0.5c0.5,0.2,0.8,0.8,0.5,1.3c-1,2.4-2.8,4.8-5.4,7.1C77.2,74.1,77,74.2,76.7,74.2z M84,59.2
		c-0.1,0-0.3,0-0.4-0.1c-0.5-0.2-0.7-0.8-0.5-1.3c1.1-2.6,2.8-5.1,5-7.3c0.4-0.4,1-0.4,1.4,0c0.4,0.4,0.4,1,0,1.4
		c-2,2-3.5,4.3-4.6,6.7C84.8,59,84.4,59.2,84,59.2z"/>
	<path class="st5" d="M95.8,47.4c-0.4,0-0.8-0.2-0.9-0.6c-0.2-0.5,0-1.1,0.6-1.3c1.5-0.6,2.9-0.9,4.2-1c0.5,0,1,0.4,1,0.9
		c0,0.6-0.4,1-0.9,1c-1.1,0.1-2.3,0.3-3.6,0.8C96,47.4,95.9,47.4,95.8,47.4z"/>
	<path class="st7" d="M110.8,50c-0.3,0-0.5-0.1-0.7-0.3l-7.8-7.8c-0.4-0.4-0.4-1,0-1.4c0.4-0.4,1-0.4,1.4,0l7.8,7.8
		c0.4,0.4,0.4,1,0,1.4C111.3,49.9,111.1,50,110.8,50z"/>
	<path class="st7" d="M103,50c-0.3,0-0.5-0.1-0.7-0.3c-0.4-0.4-0.4-1,0-1.4l7.8-7.8c0.4-0.4,1-0.4,1.4,0c0.4,0.4,0.4,1,0,1.4
		l-7.8,7.8C103.5,49.9,103.3,50,103,50z"/>
	<path class="st8" d="M14,80c-0.6,0-1-0.4-1-1V68c0-0.6,0.4-1,1-1s1,0.4,1,1v11C15,79.6,14.6,80,14,80z"/>
	<path class="st8" d="M14,62c-0.6,0-1-0.4-1-1V27c0-0.6,0.4-1,1-1s1,0.4,1,1v34C15,61.6,14.6,62,14,62z"/>
	<path class="st8" d="M70,99c-0.6,0-1-0.4-1-1V84c0-0.6,0.4-1,1-1s1,0.4,1,1v14C71,98.6,70.6,99,70,99z"/>
	<path class="st8" d="M70,74c-0.6,0-1-0.4-1-1V51c0-0.6,0.4-1,1-1s1,0.4,1,1v22C71,73.6,70.6,74,70,74z"/>
	<path class="st8" d="M50,16c-2.2,0-4-1.8-4-4c0-2.2,1.8-4,4-4c2.2,0,4,1.8,4,4C54,14.2,52.2,16,50,16z M50,9.8
		c-1.2,0-2.1,1-2.1,2.1c0,1.2,0.9,2.1,2.1,2.1c1.2,0,2.1-1,2.1-2.1C52.1,10.8,51.1,9.8,50,9.8z"/>
	<path class="st8" d="M76.5,121c-1.9,0-3.5-1.6-3.5-3.5c0-1.9,1.6-3.5,3.5-3.5s3.5,1.6,3.5,3.5C80,119.4,78.4,121,76.5,121z
		 M76.5,115.6c-1,0-1.9,0.8-1.9,1.9c0,1,0.8,1.9,1.9,1.9s1.9-0.8,1.9-1.9C78.4,116.5,77.5,115.6,76.5,115.6z"/>
	<path class="st8" d="M60.3,112.9c0-0.4-0.4-0.8-1-0.9l-1.9-0.3c-0.5-0.1-1.1-0.6-1.1-1.1l-0.3-1.9c-0.1-0.5-0.5-1-0.9-1
		c-0.4,0-0.8,0.4-0.9,1l-0.3,1.9c-0.1,0.5-0.6,1.1-1.1,1.1l-1.9,0.3c-0.5,0.1-1,0.5-1,0.9c0,0.4,0.4,0.8,1,0.9l1.9,0.3
		c0.5,0.1,1.1,0.6,1.1,1.1l0.3,1.9c0.1,0.5,0.5,1,0.9,1c0.4,0,0.8-0.4,0.8-1l0.3-2.1c0.1-0.5,0.6-1,1.1-1.1l1.8-0.1
		C59.9,113.6,60.3,113.3,60.3,112.9z"/>
	<path class="st8" d="M89.1,14.4c0-0.4-0.4-0.8-1-0.9l-1.9-0.3c-0.5-0.1-1.1-0.6-1.1-1.1l-0.3-1.9c-0.1-0.5-0.5-1-0.9-1
		s-0.8,0.4-0.9,1l-0.3,1.9c-0.1,0.5-0.6,1.1-1.1,1.1l-1.9,0.3c-0.5,0.1-1,0.5-1,0.9c0,0.4,0.4,0.8,1,0.9l1.9,0.3
		c0.5,0.1,1.1,0.6,1.1,1.1l0.3,1.9c0.1,0.5,0.5,1,0.9,1s0.8-0.4,0.9-1l0.3-2.1c0.1-0.5,0.6-1,1.1-1.1l1.8-0.1
		C88.7,15.1,89.1,14.8,89.1,14.4z"/>
</g>
</svg>
