<?xml version="1.0" encoding="utf-8"?>
<!-- Generator: Adobe Illustrator 21.0.2, SVG Export Plug-In . SVG Version: 6.00 Build 0)  -->
<svg version="1.1" id="paper_x5F_plane" xmlns="http://www.w3.org/2000/svg" xmlns:xlink="http://www.w3.org/1999/xlink" x="0px"
	 y="0px" viewBox="0 0 128 128" style="enable-background:new 0 0 128 128;" xml:space="preserve">
<style type="text/css">
	.st0{fill:#6AE5E1;}
	.st1{fill:#FFFFFF;}
	.st2{fill:#D4D6D6;}
	.st3{fill:#074370;}
	.st4{fill:#EAEAEA;}
	.st5{opacity:0.5;fill:#0C508E;}
</style>
<g>
	<circle class="st0" cx="64" cy="63.8" r="64"/>
	<polygon class="st1" points="126.2,27.2 35.4,61.7 37.7,91.3 	"/>
	<polygon class="st2" points="55,79.6 37,91.6 44.8,69.8 	"/>
	<path class="st3" d="M37.7,92.3c-0.3,0-0.6-0.1-0.8-0.4c-0.3-0.4-0.2-1.1,0.2-1.4l88.5-64.1c0.4-0.3,1.1-0.2,1.4,0.2
		c0.3,0.4,0.2,1.1-0.2,1.4L38.2,92.1C38.1,92.3,37.9,92.3,37.7,92.3z"/>
	<polygon class="st1" points="14.2,43.3 126.2,27.2 66.4,88.3 	"/>
	<polygon class="st4" points="121.3,29.2 35.3,62.8 37,92.2 45.7,69.2 	"/>
	<path class="st3" d="M66.4,89.3c-0.2,0-0.5-0.1-0.7-0.2L43.9,70.3c-0.4-0.4-0.5-1-0.1-1.4c0.4-0.4,1-0.5,1.4-0.1L66.3,87l57-58.3
		L16.5,44l20.4,17.6c0.4,0.4,0.5,1,0.1,1.4c-0.4,0.4-1,0.5-1.4,0.1l-22-19c-0.3-0.3-0.4-0.7-0.3-1c0.1-0.4,0.4-0.7,0.8-0.7L126,26.3
		c0.4-0.1,0.8,0.2,1,0.5c0.2,0.4,0.1,0.8-0.2,1.2L67.1,89C66.9,89.2,66.7,89.3,66.4,89.3z"/>
	<path class="st3" d="M37.7,92.3c-0.1,0-0.2,0-0.3,0c-0.5-0.2-0.8-0.7-0.7-1.3l7-22.4c0.1-0.3,0.3-0.5,0.5-0.6l63.7-32.5L37.5,63
		c-0.5,0.2-1.1-0.1-1.3-0.6c-0.2-0.5,0.1-1.1,0.6-1.3l89-34.8c0.5-0.2,1.1,0,1.3,0.5c0.2,0.5,0,1.1-0.5,1.3L45.4,69.6l-6.8,22
		C38.5,92.1,38.1,92.3,37.7,92.3z"/>
	<path class="st3" d="M37.7,92.3c-0.5,0-1-0.4-1-0.9l-2.3-29.7c0-0.6,0.4-1,0.9-1.1c0.6,0,1,0.4,1.1,0.9l2.3,29.7
		C38.7,91.8,38.3,92.3,37.7,92.3C37.7,92.3,37.7,92.3,37.7,92.3z"/>
	<path class="st5" d="M76.9,38.9c-0.5,0-0.9-0.4-1-0.8c-0.1-0.5,0.3-1.1,0.8-1.1l13.3-2.1c0.5-0.1,1.1,0.3,1.1,0.8
		c0.1,0.5-0.3,1.1-0.8,1.1l-13.3,2.1C77,38.9,77,38.9,76.9,38.9z"/>
	<path class="st5" d="M25.2,47.1c-0.5,0-0.9-0.4-1-0.8c-0.1-0.5,0.3-1.1,0.8-1.1l39.7-6.3c0.5-0.1,1.1,0.3,1.1,0.8
		c0.1,0.5-0.3,1.1-0.8,1.1l-39.7,6.3C25.4,47.1,25.3,47.1,25.2,47.1z"/>
	<path class="st5" d="M67,81.8c-0.3,0-0.5-0.1-0.7-0.3c-0.4-0.4-0.4-1,0-1.4l28-27c0.4-0.4,1-0.4,1.4,0c0.4,0.4,0.4,1,0,1.4l-28,27
		C67.5,81.7,67.2,81.8,67,81.8z"/>
	<path class="st1" d="M17,79c-2.2,0-4-1.8-4-4c0-2.2,1.8-4,4-4c2.2,0,4,1.8,4,4C21,77.2,19.2,79,17,79z M17,72.9
		c-1.2,0-2.1,1-2.1,2.1c0,1.2,1,2.1,2.1,2.1c1.2,0,2.1-1,2.1-2.1C19.1,73.8,18.2,72.9,17,72.9z"/>
	<path class="st1" d="M84,106c-2.2,0-4-1.8-4-4c0-2.2,1.8-4,4-4c2.2,0,4,1.8,4,4C88,104.2,86.2,106,84,106z M84,99.9
		c-1.2,0-2.1,1-2.1,2.1c0,1.2,1,2.1,2.1,2.1c1.2,0,2.1-1,2.1-2.1C86.1,100.8,85.2,99.9,84,99.9z"/>
	<path class="st1" d="M88,25c-2.2,0-4-1.8-4-4c0-2.2,1.8-4,4-4c2.2,0,4,1.8,4,4C92,23.2,90.2,25,88,25z M88,18.9
		c-1.2,0-2.1,1-2.1,2.1c0,1.2,1,2.1,2.1,2.1c1.2,0,2.1-1,2.1-2.1C90.1,19.8,89.2,18.9,88,18.9z"/>
	<path class="st1" d="M59.8,21.2c0-0.4-0.4-0.8-1-0.9l-1.9-0.3c-0.5-0.1-1.1-0.6-1.1-1.1l-0.3-1.9c-0.1-0.5-0.5-1-0.9-1
		s-0.8,0.4-0.9,1l-0.3,1.9c-0.1,0.5-0.6,1.1-1.1,1.1l-1.9,0.3c-0.5,0.1-1,0.5-1,0.9s0.4,0.8,1,0.9l1.9,0.3c0.5,0.1,1.1,0.6,1.1,1.1
		l0.3,1.9c0.1,0.5,0.5,1,0.9,1s0.8-0.4,0.8-1l0.3-2.1c0.1-0.5,0.6-1,1.1-1.1l1.8-0.1C59.3,22,59.8,21.6,59.8,21.2z"/>
	<path class="st1" d="M108.5,76.8c0-0.4-0.4-0.8-1-0.9l-1.9-0.3c-0.5-0.1-1.1-0.6-1.1-1.1l-0.3-1.9c-0.1-0.5-0.5-1-0.9-1
		c-0.4,0-0.8,0.4-0.9,1l-0.3,1.9c-0.1,0.5-0.6,1.1-1.1,1.1l-1.9,0.3c-0.5,0.1-1,0.5-1,0.9c0,0.4,0.4,0.8,1,0.9l1.9,0.3
		c0.5,0.1,1.1,0.6,1.1,1.1l0.3,1.9c0.1,0.5,0.5,1,0.9,1c0.4,0,0.8-0.4,0.8-1l0.3-2.1c0.1-0.5,0.6-1,1.1-1.1l1.8-0.1
		C108.1,77.5,108.5,77.2,108.5,76.8z"/>
	<path class="st1" d="M39,107c0,1.1,1.7,2,3.3,2h13.9c1.7,0,2.7-0.9,2.7-2s1.6-2,3-2c1.4,0,2-0.9,2-2s-1-2-2.7-2H51
		c-1.7,0-3,0.9-3,2s-1,2-2.7,2h-3C40.7,105,39,105.9,39,107z"/>
</g>
</svg>
