<svg style="position: absolute; width: 0; height: 0; overflow: hidden;" version="1.1" xmlns="http://www.w3.org/2000/svg" xmlns:xlink="http://www.w3.org/1999/xlink">
  <defs>
    <symbol id="icon-chat" viewBox="0 0 36 32">
      <title>chat</title>
      <path
        d="M34 28.161c0 1.422 0.813 2.653 2 3.256v0.498c-0.332 0.045-0.671 0.070-1.016 0.070-2.125 0-4.042-0.892-5.398-2.321-0.819 0.218-1.688 0.336-2.587 0.336-4.971 0-9-3.582-9-8s4.029-8 9-8c4.971 0 9 3.582 9 8 0 1.73-0.618 3.331-1.667 4.64-0.213 0.463-0.333 0.979-0.333 1.522zM16 0c8.702 0 15.781 5.644 15.995 12.672-1.537-0.685-3.237-1.047-4.995-1.047-2.986 0-5.807 1.045-7.942 2.943-2.214 1.968-3.433 4.607-3.433 7.432 0 1.396 0.298 2.747 0.867 3.993-0.163 0.004-0.327 0.007-0.492 0.007-0.849 0-1.682-0.054-2.495-0.158-3.437 3.437-7.539 4.053-11.505 4.144v-0.841c2.142-1.049 4-2.961 4-5.145 0-0.305-0.024-0.604-0.068-0.897-3.619-2.383-5.932-6.024-5.932-10.103 0-7.18 7.163-13 16-13z"></path>
    </symbol>
    <symbol id="icon-email" viewBox="0 0 32 32">
      <title>email</title>
      <path
        d="M29 4h-26c-1.65 0-3 1.35-3 3v20c0 1.65 1.35 3 3 3h26c1.65 0 3-1.35 3-3v-20c0-1.65-1.35-3-3-3zM12.461 17.199l-8.461 6.59v-15.676l8.461 9.086zM5.512 8h20.976l-10.488 7.875-10.488-7.875zM12.79 17.553l3.21 3.447 3.21-3.447 6.58 8.447h-19.579l6.58-8.447zM19.539 17.199l8.461-9.086v15.676l-8.461-6.59z"></path>
    </symbol>
    <symbol id="icon-wordpress" viewBox="0 0 32 32">
      <title>wordpress</title>
      <path
        d="M4 16c0 4.626 2.76 8.624 6.763 10.518l-5.724-15.274c-0.666 1.453-1.039 3.062-1.039 4.756zM24.101 15.41c0-1.445-0.533-2.445-0.989-3.223-0.608-0.963-1.179-1.778-1.179-2.741 0-1.074 0.836-2.074 2.015-2.074 0.053 0 0.104 0.006 0.155 0.009-2.135-1.905-4.979-3.069-8.103-3.069-4.192 0-7.881 2.095-10.026 5.268 0.282 0.009 0.547 0.014 0.772 0.014 1.255 0 3.198-0.149 3.198-0.149 0.647-0.037 0.723 0.889 0.077 0.963 0 0-0.65 0.074-1.373 0.111l4.37 12.66 2.626-7.671-1.869-4.989c-0.646-0.037-1.259-0.111-1.259-0.111-0.647-0.037-0.571-1 0.076-0.963 0 0 1.981 0.149 3.16 0.149 1.255 0 3.198-0.149 3.198-0.149 0.647-0.037 0.723 0.889 0.076 0.963 0 0-0.651 0.074-1.373 0.111l4.337 12.563 1.197-3.895c0.518-1.617 0.913-2.778 0.913-3.778zM16.211 17.022l-3.601 10.189c1.075 0.308 2.212 0.476 3.39 0.476 1.397 0 2.738-0.235 3.985-0.663-0.032-0.050-0.062-0.103-0.086-0.161l-3.688-9.842zM26.53 10.393c0.052 0.372 0.081 0.771 0.081 1.202 0 1.185-0.228 2.519-0.913 4.186l-3.665 10.321c3.568-2.026 5.967-5.79 5.967-10.102 0-2.032-0.533-3.943-1.47-5.607zM16 0c-8.837 0-16 7.163-16 16s7.163 16 16 16 16-7.163 16-16-7.163-16-16-16zM16 30c-7.732 0-14-6.268-14-14s6.268-14 14-14 14 6.268 14 14-6.268 14-14 14z"></path>
    </symbol>
    <symbol id="external-link" viewBox="0 0 24 24">
      <title>external link</title>
      <path fill="none" d="M0 0h24v24H0z"/>
      <path d="M10 6v2H5v11h11v-5h2v6a1 1 0 0 1-1 1H4a1 1 0 0 1-1-1V7a1 1 0 0 1 1-1h6zm11-3v8h-2V6.413l-7.793 7.794-1.414-1.414L17.585 5H13V3h8z"/>
      </symbol>
    <symbol id="icon-twitter" viewBox="0 0 32 32">
      <title>twitter</title>
      <path
        d="M32 7.075c-1.175 0.525-2.444 0.875-3.769 1.031 1.356-0.813 2.394-2.1 2.887-3.631-1.269 0.75-2.675 1.3-4.169 1.594-1.2-1.275-2.906-2.069-4.794-2.069-3.625 0-6.563 2.938-6.563 6.563 0 0.512 0.056 1.012 0.169 1.494-5.456-0.275-10.294-2.888-13.531-6.862-0.563 0.969-0.887 2.1-0.887 3.3 0 2.275 1.156 4.287 2.919 5.463-1.075-0.031-2.087-0.331-2.975-0.819 0 0.025 0 0.056 0 0.081 0 3.181 2.263 5.838 5.269 6.437-0.55 0.15-1.131 0.231-1.731 0.231-0.425 0-0.831-0.044-1.237-0.119 0.838 2.606 3.263 4.506 6.131 4.563-2.25 1.762-5.075 2.813-8.156 2.813-0.531 0-1.050-0.031-1.569-0.094 2.913 1.869 6.362 2.95 10.069 2.95 12.075 0 18.681-10.006 18.681-18.681 0-0.287-0.006-0.569-0.019-0.85 1.281-0.919 2.394-2.075 3.275-3.394z"></path>
    </symbol>
    <symbol id="icon-github" viewBox="0 0 32 32">
      <title>github</title>
      <path
        d="M16 0.395c-8.836 0-16 7.163-16 16 0 7.069 4.585 13.067 10.942 15.182 0.8 0.148 1.094-0.347 1.094-0.77 0-0.381-0.015-1.642-0.022-2.979-4.452 0.968-5.391-1.888-5.391-1.888-0.728-1.849-1.776-2.341-1.776-2.341-1.452-0.993 0.11-0.973 0.11-0.973 1.606 0.113 2.452 1.649 2.452 1.649 1.427 2.446 3.743 1.739 4.656 1.33 0.143-1.034 0.558-1.74 1.016-2.14-3.554-0.404-7.29-1.777-7.29-7.907 0-1.747 0.625-3.174 1.649-4.295-0.166-0.403-0.714-2.030 0.155-4.234 0 0 1.344-0.43 4.401 1.64 1.276-0.355 2.645-0.532 4.005-0.539 1.359 0.006 2.729 0.184 4.008 0.539 3.054-2.070 4.395-1.64 4.395-1.64 0.871 2.204 0.323 3.831 0.157 4.234 1.026 1.12 1.647 2.548 1.647 4.295 0 6.145-3.743 7.498-7.306 7.895 0.574 0.497 1.085 1.47 1.085 2.963 0 2.141-0.019 3.864-0.019 4.391 0 0.426 0.288 0.925 1.099 0.768 6.354-2.118 10.933-8.113 10.933-15.18 0-8.837-7.164-16-16-16z"></path>
    </symbol>
    <symbol id="icon-site" viewBox="0 0 32 32">
      <title>site</title>
      <path
        d="M16 0c-8.837 0-16 7.163-16 16s7.163 16 16 16 16-7.163 16-16-7.163-16-16-16zM16 30c-1.967 0-3.84-0.407-5.538-1.139l7.286-8.197c0.163-0.183 0.253-0.419 0.253-0.664v-3c0-0.552-0.448-1-1-1-3.531 0-7.256-3.671-7.293-3.707-0.188-0.188-0.442-0.293-0.707-0.293h-4c-0.552 0-1 0.448-1 1v6c0 0.379 0.214 0.725 0.553 0.894l3.447 1.724v5.871c-3.627-2.53-6-6.732-6-11.489 0-2.147 0.484-4.181 1.348-6h3.652c0.265 0 0.52-0.105 0.707-0.293l4-4c0.188-0.188 0.293-0.442 0.293-0.707v-2.419c1.268-0.377 2.61-0.581 4-0.581 2.2 0 4.281 0.508 6.134 1.412-0.13 0.109-0.256 0.224-0.376 0.345-1.133 1.133-1.757 2.64-1.757 4.243s0.624 3.109 1.757 4.243c1.139 1.139 2.663 1.758 4.239 1.758 0.099 0 0.198-0.002 0.297-0.007 0.432 1.619 1.211 5.833-0.263 11.635-0.014 0.055-0.022 0.109-0.026 0.163-2.541 2.596-6.084 4.208-10.004 4.208z"></path>
    </symbol>
    <symbol id="icon-homepage" viewBox="0 0 32 32">
      <title>homepage</title>
      <path d="M32 18.451l-16-12.42-16 12.42v-5.064l16-12.42 16 12.42zM28 18v12h-8v-8h-8v8h-8v-12l12-9z"></path>
    </symbol>
    <symbol id="icon-linkedin" viewBox="0 0 32 32">
      <title>linkedin</title>
      <path d="M12 12h5.535v2.837h0.079c0.77-1.381 2.655-2.837 5.464-2.837 5.842 0 6.922 3.637 6.922 8.367v9.633h-5.769v-8.54c0-2.037-0.042-4.657-3.001-4.657-3.005 0-3.463 2.218-3.463 4.509v8.688h-5.767v-18z"></path>
      <path d="M2 12h6v18h-6v-18z"></path>
      <path d="M8 7c0 1.657-1.343 3-3 3s-3-1.343-3-3c0-1.657 1.343-3 3-3s3 1.343 3 3z"></path>
    </symbol>
    <symbol id="icon-music" viewBox="0 0 32 32">
      <title>music</title>
      <path d="M9 18h-2v14h2c0.55 0 1-0.45 1-1v-12c0-0.55-0.45-1-1-1z"></path>
      <path d="M23 18c-0.55 0-1 0.45-1 1v12c0 0.55 0.45 1 1 1h2v-14h-2z"></path>
      <path
        d="M32 16c0-8.837-7.163-16-16-16s-16 7.163-16 16c0 1.919 0.338 3.759 0.958 5.464-0.609 1.038-0.958 2.246-0.958 3.536 0 3.526 2.608 6.443 6 6.929v-13.857c-0.997 0.143-1.927 0.495-2.742 1.012-0.168-0.835-0.258-1.699-0.258-2.584 0-7.18 5.82-13 13-13s13 5.82 13 13c0 0.885-0.088 1.749-0.257 2.584-0.816-0.517-1.745-0.87-2.743-1.013v13.858c3.392-0.485 6-3.402 6-6.929 0-1.29-0.349-2.498-0.958-3.536 0.62-1.705 0.958-3.545 0.958-5.465z"></path>
    </symbol>
    <symbol id="icon-spotify" viewBox="0 0 32 32">
      <title>spotify</title>
      <path
        d="M16 0c-8.8 0-16 7.2-16 16s7.2 16 16 16 16-7.2 16-16-7.119-16-16-16zM23.363 23.119c-0.319 0.481-0.881 0.637-1.363 0.319-3.762-2.319-8.481-2.8-14.081-1.519-0.563 0.163-1.037-0.238-1.2-0.719-0.162-0.563 0.237-1.038 0.719-1.2 6.081-1.363 11.363-0.8 15.519 1.762 0.563 0.238 0.644 0.875 0.406 1.356zM25.281 18.719c-0.4 0.563-1.119 0.8-1.681 0.4-4.319-2.637-10.881-3.438-15.919-1.837-0.638 0.163-1.362-0.163-1.519-0.8-0.162-0.637 0.162-1.363 0.8-1.519 5.838-1.762 13.037-0.881 18 2.163 0.475 0.238 0.719 1.038 0.319 1.594zM25.438 14.238c-5.119-3.037-13.681-3.363-18.563-1.838-0.8 0.238-1.6-0.238-1.838-0.963-0.237-0.8 0.237-1.6 0.963-1.838 5.681-1.681 15.038-1.363 20.962 2.162 0.719 0.4 0.962 1.363 0.563 2.081-0.406 0.556-1.363 0.794-2.087 0.394z"></path>
    </symbol>
    <symbol id="icon-menu" viewBox="0 0 32 32">
      <title>menu</title>
      <path d="M2 6h28v6h-28zM2 14h28v6h-28zM2 22h28v6h-28z"></path>
    </symbol>
    <symbol id="icon-PubMed" viewBox="0 0 32 32">
      <title>PubMed</title>
      <path
        d="M10.876 10.408c0.214-7.174-3.996-8.128-3.996-8.128v2.234c-1.675-0.833-3.284-0.953-3.284-0.953v18.236c0 0 7.011-0.816 7.011 6.032 0 0 2.614-10.961 17.784 1.892 0-4.402 0.027-15.503 0.027-19.173-13.986-10.19-17.543-0.141-17.543-0.141zM24.255 22.83l-0.884-6.979h-0.032l-2.911 6.979h-1.255l-2.782-6.979h-0.032l-1.013 6.979h-3.135l2.058-12.122h3.103l2.461 6.478 2.606-6.478h3.135l1.835 12.122h-3.154z"></path>
    </symbol>
    <symbol id="icon-externallink" viewBox="0 0 32 32">
      <title>external link</title>
      <path d="M6 2v24h24v-24h-24zM28 24h-20v-20h20v20zM4 28v-21l-2-2v25h25l-2-2h-21z"></path>
      <path d="M11 8l5 5-6 6 3 3 6-6 5 5v-13z"></path>
    </symbol>
    <symbol id="icon-bar-chart" viewBox="0 0 32 28">
      <title>bar-chart</title>
      <path d="M10 14v8h-4v-8h4zM16 6v16h-4v-16h4zM32 24v2h-32v-24h2v22h30zM22 10v12h-4v-12h4zM28 4v18h-4v-18h4z"></path>
    </symbol>

    <symbol id="icon-info" viewBox="-1 -1 34 34">
      <title>info</title>
      <path d="M14 9.5c0-0.825 0.675-1.5 1.5-1.5h1c0.825 0 1.5 0.675 1.5 1.5v1c0 0.825-0.675 1.5-1.5 1.5h-1c-0.825 0-1.5-0.675-1.5-1.5v-1z"></path>
      <path d="M20 24h-8v-2h2v-6h-2v-2h6v8h2z"></path>
      <path d="M16 0c-8.837 0-16 7.163-16 16s7.163 16 16 16 16-7.163 16-16-7.163-16-16-16zM16 29c-7.18 0-13-5.82-13-13s5.82-13 13-13 13 5.82 13 13-5.82 13-13 13z"></path>
    </symbol>
    <symbol id="icon-phone" viewBox="0 0 32 32">
      <title>phone</title>
      <path d="M22 20c-2 2-2 4-4 4s-4-2-6-4-4-4-4-6 2-2 4-4-4-8-6-8-6 6-6 6c0 4 4.109 12.109 8 16s12 8 16 8c0 0 6-4 6-6s-6-8-8-6z"></path>
    </symbol>
    <symbol id="dynamic-table" viewBox="0 0 24 24">
      <title>dynamic-table</title>
      <path fill="none" d="M0 0h24v24H0z"/><path d="M7 10v11H3a1 1 0 0 1-1-1V10h5zm15 0v10a1 1 0 0 1-1 1H9V10h13zm-1-7a1 1 0 0 1 1 1v4H2V4a1 1 0 0 1 1-1h18z"/>
    </symbol>
    <symbol id="try-it-yourself" viewBox="0 0 24 24">
      <title>try-it-yourself</title>
      <path d="M5.636 12.707l1.828 1.829L8.88 13.12 7.05 11.293l1.414-1.414 1.829 1.828 1.414-1.414L9.88 8.464l1.414-1.414L13.12 8.88l1.415-1.415-1.829-1.828 2.829-2.828a1 1 0 0 1 1.414 0l4.242 4.242a1 1 0 0 1 0 1.414L8.464 21.192a1 1 0 0 1-1.414 0L2.808 16.95a1 1 0 0 1 0-1.414l2.828-2.829zm8.485 5.656l4.243-4.242L21 16.757V21h-4.242l-2.637-2.637zM5.636 9.878L2.807 7.05a1 1 0 0 1 0-1.415l2.829-2.828a1 1 0 0 1 1.414 0L9.88 5.635 5.636 9.878z"/>
    </symbol>
    <symbol id="terminal" viewBox="0 0 24 24">
      <title>terminal</title>
      <path fill="none" d="M0 0h24v24H0z"/><path d="M11 12l-7.071 7.071-1.414-1.414L8.172 12 2.515 6.343 3.929 4.93 11 12zm0 7h10v2H11v-2z"/>
    </symbol>
    <symbol id="help" viewBox="0 0 24 24">
      <title>help</title>
      <path fill="none" d="M0 0h24v24H0z"/><path d="M12 22C6.477 22 2 17.523 2 12S6.477 2 12 2s10 4.477 10 10-4.477 10-10 10zm0-2a8 8 0 1 0 0-16 8 8 0 0 0 0 16zm-1-5h2v2h-2v-2zm2-1.645V14h-2v-1.5a1 1 0 0 1 1-1 1.5 1.5 0 1 0-1.471-1.794l-1.962-.393A3.501 3.501 0 1 1 13 13.355z"/>
    </symbol>
    <symbol id="movie" viewBox="0 0 24 24">
      <title>movie</title>
      <path fill="none" d="M0 0h24v24H0z"/><path d="M2 3.993A1 1 0 0 1 2.992 3h18.016c.548 0 .992.445.992.993v16.014a1 1 0 0 1-.992.993H2.992A.993.993 0 0 1 2 20.007V3.993zM4 5v14h16V5H4zm6.622 3.415l4.879 3.252a.4.4 0 0 1 0 .666l-4.88 3.252a.4.4 0 0 1-.621-.332V8.747a.4.4 0 0 1 .622-.332z"/>
    </symbol>
    <symbol id="book" viewBox="0 0 24 24">
      <title>book</title>
      <path fill="none" d="M0 0h24v24H0z"/><path d="M3 18.5V5a3 3 0 0 1 3-3h14a1 1 0 0 1 1 1v18a1 1 0 0 1-1 1H6.5A3.5 3.5 0 0 1 3 18.5zM19 20v-3H6.5a1.5 1.5 0 0 0 0 3H19zM5 15.337A3.486 3.486 0 0 1 6.5 15H19V4H6a1 1 0 0 0-1 1v10.337z"/>
    </symbol>
    <symbol id="mobile" viewBox="0 0 24 24">
      <title>mobile</title>
      <path fill="none" d="M0 0h24v24H0z"/><path d="M7 4v16h10V4H7zM6 2h12a1 1 0 0 1 1 1v18a1 1 0 0 1-1 1H6a1 1 0 0 1-1-1V3a1 1 0 0 1 1-1zm6 15a1 1 0 1 1 0 2 1 1 0 0 1 0-2z"/>
    </symbol>
    <symbol id="code" viewBox="0 0 24 24">
      <title>code</title>
      <path fill="none" d="M0 0h24v24H0z"/><path d="M24 12l-5.657 5.657-1.414-1.414L21.172 12l-4.243-4.243 1.414-1.414L24 12zM2.828 12l4.243 4.243-1.414 1.414L0 12l5.657-5.657L7.07 7.757 2.828 12zm6.96 9H7.66l6.552-18h2.128L9.788 21z" fill="rgba(0,0,0,1)"/>
    </symbol>
    <symbol id="donut" viewBox="0 0 24 24">
      <title>donut</title>
      <path fill="none" d="M0 0H24V24H0z"/><path d="M11 2.05v3.02C7.608 5.557 5 8.475 5 12c0 3.866 3.134 7 7 7 1.572 0 3.024-.518 4.192-1.394l2.137 2.137C16.605 21.153 14.4 22 12 22 6.477 22 2 17.523 2 12c0-5.185 3.947-9.449 9-9.95zM21.95 13c-.2 2.011-.994 3.847-2.207 5.328l-2.137-2.136c.687-.916 1.153-2.006 1.323-3.192h3.022zM13.002 2.05c4.724.469 8.48 4.226 8.95 8.95h-3.022c-.438-3.065-2.863-5.49-5.928-5.929V2.049z"/>
    </symbol>
    <symbol id="code-doc" viewBox="0 0 24 24">
      <title>code-doc</title>
      <path d="M15 4H5v16h14V8h-4V4zM3 2.992C3 2.444 3.447 2 3.999 2H16l5 5v13.993A1 1 0 0 1 20.007 22H3.993A1 1 0 0 1 3 21.008V2.992zM17.657 12l-3.536 3.536-1.414-1.415L14.828 12l-2.12-2.121 1.413-1.415L17.657 12zM6.343 12L9.88 8.464l1.414 1.415L9.172 12l2.12 2.121-1.413 1.415L6.343 12z"/>
    </symbol>
    <symbol id="phone" viewBox="0 0 24 24">
      <title>phone</title>
      <path fill="none" d="M0 0h24v24H0z"/><path d="M9.366 10.682a10.556 10.556 0 0 0 3.952 3.952l.884-1.238a1 1 0 0 1 1.294-.296 11.422 11.422 0 0 0 4.583 1.364 1 1 0 0 1 .921.997v4.462a1 1 0 0 1-.898.995c-.53.055-1.064.082-1.602.082C9.94 21 3 14.06 3 5.5c0-.538.027-1.072.082-1.602A1 1 0 0 1 4.077 3h4.462a1 1 0 0 1 .997.921A11.422 11.422 0 0 0 10.9 8.504a1 1 0 0 1-.296 1.294l-1.238.884zm-2.522-.657l1.9-1.357A13.41 13.41 0 0 1 7.647 5H5.01c-.006.166-.009.333-.009.5C5 12.956 11.044 19 18.5 19c.167 0 .334-.003.5-.01v-2.637a13.41 13.41 0 0 1-3.668-1.097l-1.357 1.9a12.442 12.442 0 0 1-1.588-.75l-.058-.033a12.556 12.556 0 0 1-4.702-4.702l-.033-.058a12.442 12.442 0 0 1-.75-1.588z"/>
    </symbol>
    <symbol id="guide" viewBox="0 0 24 24">
      <title>guide</title>
      <path fill="none" d="M0 0h24v24H0z"/><path d="M13 8v8a3 3 0 0 1-3 3H7.83a3.001 3.001 0 1 1 0-2H10a1 1 0 0 0 1-1V8a3 3 0 0 1 3-3h3V2l5 4-5 4V7h-3a1 1 0 0 0-1 1zM5 19a1 1 0 1 0 0-2 1 1 0 0 0 0 2z"/>
    </symbol>
    <symbol id="chat" viewBox="0 0 24 24">
      <title>chat</title>
      <path fill="none" d="M0 0h24v24H0z"/><path d="M7.291 20.824L2 22l1.176-5.291A9.956 9.956 0 0 1 2 12C2 6.477 6.477 2 12 2s10 4.477 10 10-4.477 10-10 10a9.956 9.956 0 0 1-4.709-1.176zm.29-2.113l.653.35A7.955 7.955 0 0 0 12 20a8 8 0 1 0-8-8c0 1.334.325 2.618.94 3.766l.349.653-.655 2.947 2.947-.655zM7 12h2a3 3 0 0 0 6 0h2a5 5 0 0 1-10 0z"/>
    </symbol>
    <symbol id="mail-send" viewBox="0 0 24 24">
      <title>mail-send</title>
      <path fill="none" d="M0 0h24v24H0z"/><path d="M22 20.007a1 1 0 0 1-.992.993H2.992A.993.993 0 0 1 2 20.007V19h18V7.3l-8 7.2-10-9V4a1 1 0 0 1 1-1h18a1 1 0 0 1 1 1v16.007zM4.434 5L12 11.81 19.566 5H4.434zM0 15h8v2H0v-2zm0-5h5v2H0v-2z"/>
    </symbol>
    <symbol id="stack" viewBox="0 0 24 24">
      <title>stack</title>
      <path fill="none" d="M0 0h24v24H0z"/><path d="M20.083 15.2l1.202.721a.5.5 0 0 1 0 .858l-8.77 5.262a1 1 0 0 1-1.03 0l-8.77-5.262a.5.5 0 0 1 0-.858l1.202-.721L12 20.05l8.083-4.85zm0-4.7l1.202.721a.5.5 0 0 1 0 .858L12 17.65l-9.285-5.571a.5.5 0 0 1 0-.858l1.202-.721L12 15.35l8.083-4.85zm-7.569-9.191l8.771 5.262a.5.5 0 0 1 0 .858L12 13 2.715 7.429a.5.5 0 0 1 0-.858l8.77-5.262a1 1 0 0 1 1.03 0zM12 3.332L5.887 7 12 10.668 18.113 7 12 3.332z"/>
    </symbol>
    <symbol id="team" viewBox="0 0 24 24">
      <title>team</title>
      <path fill="none" d="M0 0h24v24H0z"/><path d="M12 11a5 5 0 0 1 5 5v6H7v-6a5 5 0 0 1 5-5zm-6.712 3.006a6.983 6.983 0 0 0-.28 1.65L5 16v6H2v-4.5a3.5 3.5 0 0 1 3.119-3.48l.17-.014zm13.424 0A3.501 3.501 0 0 1 22 17.5V22h-3v-6c0-.693-.1-1.362-.288-1.994zM5.5 8a2.5 2.5 0 1 1 0 5 2.5 2.5 0 0 1 0-5zm13 0a2.5 2.5 0 1 1 0 5 2.5 2.5 0 0 1 0-5zM12 2a4 4 0 1 1 0 8 4 4 0 0 1 0-8z"/>
    </symbol>
    <symbol id="parent" viewBox="0 0 24 24">
      <title>parent</title>
      <path fill="none" d="M0 0h24v24H0z"/><path d="M7 9a2.5 2.5 0 1 0 0-5 2.5 2.5 0 0 0 0 5zm0 2a4.5 4.5 0 1 1 0-9 4.5 4.5 0 0 1 0 9zm10.5 2a2 2 0 1 0 0-4 2 2 0 0 0 0 4zm0 2a4 4 0 1 1 0-8 4 4 0 0 1 0 8zm2.5 6v-.5a2.5 2.5 0 1 0-5 0v.5h-2v-.5a4.5 4.5 0 1 1 9 0v.5h-2zm-10 0v-4a3 3 0 0 0-6 0v4H2v-4a5 5 0 0 1 10 0v4h-2z"/>
    </symbol>
    <symbol id="quill-pen" viewBox="0 0 24 24">
      <title>quill-pen</title>
      <path fill="none" d="M0 0h24v24H0z"/><path d="M6.94 14.036c-.233.624-.43 1.2-.606 1.783.96-.697 2.101-1.139 3.418-1.304 2.513-.314 4.746-1.973 5.876-4.058l-1.456-1.455 1.413-1.415 1-1.001c.43-.43.915-1.224 1.428-2.368-5.593.867-9.018 4.292-11.074 9.818zM17 9.001L18 10c-1 3-4 6-8 6.5-2.669.334-4.336 2.167-5.002 5.5H3C4 16 6 2 21 2c-1 2.997-1.998 4.996-2.997 5.997L17 9.001z"/>
    </symbol>
    <symbol id="privacy" viewBox="0 0 24 24">
      <title>privacy</title>
      <path fill="none" d="M0 0h24v24H0z"/><path d="M12 2c5.523 0 10 4.477 10 10 0 2.136-.67 4.116-1.811 5.741L17 12h3a8 8 0 1 0-2.46 5.772l.998 1.795A9.961 9.961 0 0 1 12 22C6.477 22 2 17.523 2 12S6.477 2 12 2zm0 5a3 3 0 0 1 3 3v1h1v5H8v-5h1v-1a3 3 0 0 1 3-3zm2 6h-4v1h4v-1zm-2-4a1 1 0 0 0-.993.883L11 10v1h2v-1a1 1 0 0 0-.883-.993L12 9z"/>
    </symbol>
    <symbol id="open-source" viewBox="0 0 24 24">
      <title>open-source</title>
      <path fill="none" d="M0 0H24V24H0z"/><path d="M12 2c5.523 0 10 4.477 10 10 0 4.4-2.841 8.136-6.789 9.473l-.226.074-2.904-7.55C13.15 13.95 14 13.054 14 12c0-1.105-.895-2-2-2s-2 .895-2 2c0 1.077.851 1.955 1.917 1.998l-2.903 7.549-.225-.074C4.84 20.136 2 16.4 2 12 2 6.477 6.477 2 12 2zm0 2c-4.418 0-8 3.582-8 8 0 2.92 1.564 5.475 3.901 6.872l1.48-3.849C8.534 14.29 8 13.207 8 12c0-2.21 1.79-4 4-4s4 1.79 4 4c0 1.207-.535 2.29-1.38 3.023.565 1.474 1.059 2.757 1.479 3.85C18.435 17.475 20 14.92 20 12c0-4.418-3.582-8-8-8z"/>
    </symbol>
    <symbol id="calendar" viewBox="0 0 24 24">
      <title>calendar</title>
      <path fill="none" d="M0 0h24v24H0z"/><path d="M17 3h4a1 1 0 0 1 1 1v16a1 1 0 0 1-1 1H3a1 1 0 0 1-1-1V4a1 1 0 0 1 1-1h4V1h2v2h6V1h2v2zm3 8H4v8h16v-8zm-5-6H9v2H7V5H4v4h16V5h-3v2h-2V5zm-9 8h2v2H6v-2zm5 0h2v2h-2v-2zm5 0h2v2h-2v-2z"/>
    </symbol>
    <symbol id="intermine-logo-block" viewBox="0 0 8.7636499 7.3155599">
      <title>intermine-logo-block</title>
      <g style="transform: translate(-401.6598px,-340px)">
        <path d="m 406.77779,341.35912 c 0,0.0949 0.0582,0.17194 0.12992,0.17194 h 3.86097 c 0.0718,0 0.13009,-0.0771 0.13009,-0.17194 v -1.73771 c 0,-0.0954 -0.0582,-0.17194 -0.13009,-0.17194 h -3.86097 c -0.0717,0 -0.12992,0.0765 -0.12992,0.17194 z"/>
        <path d="m 402.13512,341.35912 c 0,0.0949 0.0582,0.17194 0.13008,0.17194 h 3.86133 c 0.0713,0 0.12939,-0.0771 0.12939,-0.17194 v -1.73771 c 0,-0.0954 -0.0581,-0.17194 -0.12939,-0.17194 h -3.86133 c -0.0718,0 -0.13008,0.0765 -0.13008,0.17194 z"/>
        <path d="m 406.77779,343.96818 c 0,0.0943 0.0582,0.17142 0.12992,0.17142 h 3.86097 c 0.0718,0 0.13009,-0.0771 0.13009,-0.17142 v -1.73788 c 0,-0.095 -0.0582,-0.17247 -0.13009,-0.17247 h -3.86097 c -0.0717,0 -0.12992,0.0774 -0.12992,0.17247 z"/>
        <path d="m 402.13512,343.96818 c 0,0.0943 0.0582,0.17142 0.13008,0.17142 h 3.86133 c 0.0713,0 0.12939,-0.0771 0.12939,-0.17142 v -1.73788 c 0,-0.095 -0.0581,-0.17247 -0.12939,-0.17247 h -3.86133 c -0.0718,0 -0.13008,0.0774 -0.13008,0.17247 z"/>
        <path d="m 406.77779,346.59327 c 0,0.0954 0.0582,0.17176 0.12992,0.17176 h 3.86097 c 0.0718,0 0.13009,-0.0764 0.13009,-0.17176 v -1.73789 c 0,-0.0949 -0.0582,-0.17124 -0.13009,-0.17124 h -3.86097 c -0.0717,0 -0.12992,0.0764 -0.12992,0.17124 z"/>
        <path d="m 402.13512,346.59327 c 0,0.0954 0.0582,0.17176 0.13008,0.17176 h 3.86133 c 0.0713,0 0.12939,-0.0764 0.12939,-0.17176 v -1.73789 c 0,-0.0949 -0.0581,-0.17124 -0.12939,-0.17124 h -3.86133 c -0.0718,0 -0.13008,0.0764 -0.13008,0.17124 z"/>
      </g>
      </symbol>
  </defs>
</svg>
