<svg style="position: absolute; width: 0; height: 0; overflow: hidden;" version="1.1" xmlns="http://www.w3.org/2000/svg" xmlns:xlink="http://www.w3.org/1999/xlink">
  <defs>
    <symbol id="icon-chat" viewBox="0 0 36 32">
      <title>chat</title>
      <path
        d="M34 28.161c0 1.422 0.813 2.653 2 3.256v0.498c-0.332 0.045-0.671 0.070-1.016 0.070-2.125 0-4.042-0.892-5.398-2.321-0.819 0.218-1.688 0.336-2.587 0.336-4.971 0-9-3.582-9-8s4.029-8 9-8c4.971 0 9 3.582 9 8 0 1.73-0.618 3.331-1.667 4.64-0.213 0.463-0.333 0.979-0.333 1.522zM16 0c8.702 0 15.781 5.644 15.995 12.672-1.537-0.685-3.237-1.047-4.995-1.047-2.986 0-5.807 1.045-7.942 2.943-2.214 1.968-3.433 4.607-3.433 7.432 0 1.396 0.298 2.747 0.867 3.993-0.163 0.004-0.327 0.007-0.492 0.007-0.849 0-1.682-0.054-2.495-0.158-3.437 3.437-7.539 4.053-11.505 4.144v-0.841c2.142-1.049 4-2.961 4-5.145 0-0.305-0.024-0.604-0.068-0.897-3.619-2.383-5.932-6.024-5.932-10.103 0-7.18 7.163-13 16-13z"></path>
    </symbol>
    <symbol id="icon-email" viewBox="0 0 24 24">
      <title>email</title>
      <path fill="none" d="M0 0h24v24H0z"/><path d="M3 3h18a1 1 0 0 1 1 1v16a1 1 0 0 1-1 1H3a1 1 0 0 1-1-1V4a1 1 0 0 1 1-1zm17 4.238l-7.928 7.1L4 7.216V19h16V7.238zM4.511 5l7.55 6.662L19.502 5H4.511z"/>
    </symbol>
    <symbol id="icon-wordpress" viewBox="0 0 32 32">
      <title>wordpress</title>
      <path
        d="M4 16c0 4.626 2.76 8.624 6.763 10.518l-5.724-15.274c-0.666 1.453-1.039 3.062-1.039 4.756zM24.101 15.41c0-1.445-0.533-2.445-0.989-3.223-0.608-0.963-1.179-1.778-1.179-2.741 0-1.074 0.836-2.074 2.015-2.074 0.053 0 0.104 0.006 0.155 0.009-2.135-1.905-4.979-3.069-8.103-3.069-4.192 0-7.881 2.095-10.026 5.268 0.282 0.009 0.547 0.014 0.772 0.014 1.255 0 3.198-0.149 3.198-0.149 0.647-0.037 0.723 0.889 0.077 0.963 0 0-0.65 0.074-1.373 0.111l4.37 12.66 2.626-7.671-1.869-4.989c-0.646-0.037-1.259-0.111-1.259-0.111-0.647-0.037-0.571-1 0.076-0.963 0 0 1.981 0.149 3.16 0.149 1.255 0 3.198-0.149 3.198-0.149 0.647-0.037 0.723 0.889 0.076 0.963 0 0-0.651 0.074-1.373 0.111l4.337 12.563 1.197-3.895c0.518-1.617 0.913-2.778 0.913-3.778zM16.211 17.022l-3.601 10.189c1.075 0.308 2.212 0.476 3.39 0.476 1.397 0 2.738-0.235 3.985-0.663-0.032-0.050-0.062-0.103-0.086-0.161l-3.688-9.842zM26.53 10.393c0.052 0.372 0.081 0.771 0.081 1.202 0 1.185-0.228 2.519-0.913 4.186l-3.665 10.321c3.568-2.026 5.967-5.79 5.967-10.102 0-2.032-0.533-3.943-1.47-5.607zM16 0c-8.837 0-16 7.163-16 16s7.163 16 16 16 16-7.163 16-16-7.163-16-16-16zM16 30c-7.732 0-14-6.268-14-14s6.268-14 14-14 14 6.268 14 14-6.268 14-14 14z"></path>
    </symbol>
    <symbol id="external-link" viewBox="0 0 24 24">
      <title>external link</title>
      <path fill="none" d="M0 0h24v24H0z"/><path d="M16.004 9.414l-8.607 8.607-1.414-1.414L14.589 8H7.004V6h11v11h-2V9.414z"/>
      </symbol>
    <symbol id="icon-twitter" viewBox="0 0 32 32">
      <title>twitter</title>
      <path
        d="M32 7.075c-1.175 0.525-2.444 0.875-3.769 1.031 1.356-0.813 2.394-2.1 2.887-3.631-1.269 0.75-2.675 1.3-4.169 1.594-1.2-1.275-2.906-2.069-4.794-2.069-3.625 0-6.563 2.938-6.563 6.563 0 0.512 0.056 1.012 0.169 1.494-5.456-0.275-10.294-2.888-13.531-6.862-0.563 0.969-0.887 2.1-0.887 3.3 0 2.275 1.156 4.287 2.919 5.463-1.075-0.031-2.087-0.331-2.975-0.819 0 0.025 0 0.056 0 0.081 0 3.181 2.263 5.838 5.269 6.437-0.55 0.15-1.131 0.231-1.731 0.231-0.425 0-0.831-0.044-1.237-0.119 0.838 2.606 3.263 4.506 6.131 4.563-2.25 1.762-5.075 2.813-8.156 2.813-0.531 0-1.050-0.031-1.569-0.094 2.913 1.869 6.362 2.95 10.069 2.95 12.075 0 18.681-10.006 18.681-18.681 0-0.287-0.006-0.569-0.019-0.85 1.281-0.919 2.394-2.075 3.275-3.394z"></path>
    </symbol>
    <symbol id="icon-github" viewBox="0 0 24 24">
      <title>github</title>
      <path fill="none" d="M0 0h24v24H0z"/><path d="M12 2C6.475 2 2 6.475 2 12a9.994 9.994 0 0 0 6.838 9.488c.5.087.687-.213.687-.476 0-.237-.013-1.024-.013-1.862-2.512.463-3.162-.612-3.362-1.175-.113-.288-.6-1.175-1.025-1.413-.35-.187-.85-.65-.013-.662.788-.013 1.35.725 1.538 1.025.9 1.512 2.338 1.087 2.912.825.088-.65.35-1.087.638-1.337-2.225-.25-4.55-1.113-4.55-4.938 0-1.088.387-1.987 1.025-2.688-.1-.25-.45-1.275.1-2.65 0 0 .837-.262 2.75 1.026a9.28 9.28 0 0 1 2.5-.338c.85 0 1.7.112 2.5.337 1.912-1.3 2.75-1.024 2.75-1.024.55 1.375.2 2.4.1 2.65.637.7 1.025 1.587 1.025 2.687 0 3.838-2.337 4.688-4.562 4.938.362.312.675.912.675 1.85 0 1.337-.013 2.412-.013 2.75 0 .262.188.574.688.474A10.016 10.016 0 0 0 22 12c0-5.525-4.475-10-10-10z"/>
    </symbol>
    <symbol id="icon-site" viewBox="0 0 24 24">
      <title>site</title>
     <path fill="none" d="M0 0h24v24H0z"/><path d="M12 22C6.477 22 2 17.523 2 12S6.477 2 12 2s10 4.477 10 10-4.477 10-10 10zm-2.29-2.333A17.9 17.9 0 0 1 8.027 13H4.062a8.008 8.008 0 0 0 5.648 6.667zM10.03 13c.151 2.439.848 4.73 1.97 6.752A15.905 15.905 0 0 0 13.97 13h-3.94zm9.908 0h-3.965a17.9 17.9 0 0 1-1.683 6.667A8.008 8.008 0 0 0 19.938 13zM4.062 11h3.965A17.9 17.9 0 0 1 9.71 4.333 8.008 8.008 0 0 0 4.062 11zm5.969 0h3.938A15.905 15.905 0 0 0 12 4.248 15.905 15.905 0 0 0 10.03 11zm4.259-6.667A17.9 17.9 0 0 1 15.973 11h3.965a8.008 8.008 0 0 0-5.648-6.667z"/>
     </symbol>
    <symbol id="icon-homepage" viewBox="0 0 32 32">
      <title>homepage</title>
      <path d="M32 18.451l-16-12.42-16 12.42v-5.064l16-12.42 16 12.42zM28 18v12h-8v-8h-8v8h-8v-12l12-9z"></path>
    </symbol>
    <symbol id="icon-linkedin" viewBox="0 0 24 24">
      <title>linkedin</title>
      <path fill="none" d="M0 0h24v24H0z"/><path d="M18.335 18.339H15.67v-4.177c0-.996-.02-2.278-1.39-2.278-1.389 0-1.601 1.084-1.601 2.205v4.25h-2.666V9.75h2.56v1.17h.035c.358-.674 1.228-1.387 2.528-1.387 2.7 0 3.2 1.778 3.2 4.091v4.715zM7.003 8.575a1.546 1.546 0 0 1-1.548-1.549 1.548 1.548 0 1 1 1.547 1.549zm1.336 9.764H5.666V9.75H8.34v8.589zM19.67 3H4.329C3.593 3 3 3.58 3 4.297v15.406C3 20.42 3.594 21 4.328 21h15.338C20.4 21 21 20.42 21 19.703V4.297C21 3.58 20.4 3 19.666 3h.003z"/>
    </symbol>
    <symbol id="icon-music" viewBox="0 0 24 24">
      <title>music</title>
     <path fill="none" d="M0 0h24v24H0z"/><path d="M4 12h3a2 2 0 0 1 2 2v5a2 2 0 0 1-2 2H4a2 2 0 0 1-2-2v-7C2 6.477 6.477 2 12 2s10 4.477 10 10v7a2 2 0 0 1-2 2h-3a2 2 0 0 1-2-2v-5a2 2 0 0 1 2-2h3a8 8 0 1 0-16 0z"/>
     </symbol>
    <symbol id="icon-spotify" viewBox="0 0 24 24">
      <title>spotify</title>
     <path fill="none" d="M0 0h24v24H0z"/><path d="M12 2C6.5 2 2 6.5 2 12s4.5 10 10 10 10-4.5 10-10S17.55 2 12 2zm3.75 14.65c-2.35-1.45-5.3-1.75-8.8-.95-.35.1-.65-.15-.75-.45-.1-.35.15-.65.45-.75 3.8-.85 7.1-.5 9.7 1.1.35.15.4.55.25.85-.2.3-.55.4-.85.2zm1-2.7c-2.7-1.65-6.8-2.15-9.95-1.15-.4.1-.85-.1-.95-.5-.1-.4.1-.85.5-.95 3.65-1.1 8.15-.55 11.25 1.35.3.15.45.65.2 1s-.7.5-1.05.25zM6.3 9.75c-.5.15-1-.15-1.15-.6-.15-.5.15-1 .6-1.15 3.55-1.05 9.4-.85 13.1 1.35.45.25.6.85.35 1.3-.25.35-.85.5-1.3.25C14.7 9 9.35 8.8 6.3 9.75z"/>
     </symbol>
    <symbol id="icon-menu" viewBox="0 0 32 32">
      <title>menu</title>
      <path d="M2 6h28v6h-28zM2 14h28v6h-28zM2 22h28v6h-28z"></path>
    </symbol>
    <symbol id="icon-PubMed" viewBox="0 0 32 32">
      <title>PubMed</title>
      <path
        d="M10.876 10.408c0.214-7.174-3.996-8.128-3.996-8.128v2.234c-1.675-0.833-3.284-0.953-3.284-0.953v18.236c0 0 7.011-0.816 7.011 6.032 0 0 2.614-10.961 17.784 1.892 0-4.402 0.027-15.503 0.027-19.173-13.986-10.19-17.543-0.141-17.543-0.141zM24.255 22.83l-0.884-6.979h-0.032l-2.911 6.979h-1.255l-2.782-6.979h-0.032l-1.013 6.979h-3.135l2.058-12.122h3.103l2.461 6.478 2.606-6.478h3.135l1.835 12.122h-3.154z"></path>
    </symbol>
    <symbol id="icon-externallink" viewBox="0 0 32 32">
      <title>external link</title>
      <path d="M6 2v24h24v-24h-24zM28 24h-20v-20h20v20zM4 28v-21l-2-2v25h25l-2-2h-21z"></path>
      <path d="M11 8l5 5-6 6 3 3 6-6 5 5v-13z"></path>
    </symbol>
    <symbol id="icon-bar-chart" viewBox="0 0 32 28">
      <title>bar-chart</title>
      <path d="M10 14v8h-4v-8h4zM16 6v16h-4v-16h4zM32 24v2h-32v-24h2v22h30zM22 10v12h-4v-12h4zM28 4v18h-4v-18h4z"></path>
    </symbol>

    <symbol id="icon-info" viewBox="-1 -1 34 34">
      <title>info</title>
      <path d="M14 9.5c0-0.825 0.675-1.5 1.5-1.5h1c0.825 0 1.5 0.675 1.5 1.5v1c0 0.825-0.675 1.5-1.5 1.5h-1c-0.825 0-1.5-0.675-1.5-1.5v-1z"></path>
      <path d="M20 24h-8v-2h2v-6h-2v-2h6v8h2z"></path>
      <path d="M16 0c-8.837 0-16 7.163-16 16s7.163 16 16 16 16-7.163 16-16-7.163-16-16-16zM16 29c-7.18 0-13-5.82-13-13s5.82-13 13-13 13 5.82 13 13-5.82 13-13 13z"></path>
    </symbol>
    <symbol id="icon-phone" viewBox="0 0 32 32">
      <title>phone</title>
      <path d="M22 20c-2 2-2 4-4 4s-4-2-6-4-4-4-4-6 2-2 4-4-4-8-6-8-6 6-6 6c0 4 4.109 12.109 8 16s12 8 16 8c0 0 6-4 6-6s-6-8-8-6z"></path>
    </symbol>
    <symbol id="dynamic-table" viewBox="0 0 24 24">
      <title>dynamic-table</title>
      <path fill="none" d="M0 0h24v24H0z"/><path d="M7 10v11H3a1 1 0 0 1-1-1V10h5zm15 0v10a1 1 0 0 1-1 1H9V10h13zm-1-7a1 1 0 0 1 1 1v4H2V4a1 1 0 0 1 1-1h18z"/>
    </symbol>
    <symbol id="try-it-yourself" viewBox="0 0 24 24">
      <title>try-it-yourself</title>
      <path d="M5.636 12.707l1.828 1.829L8.88 13.12 7.05 11.293l1.414-1.414 1.829 1.828 1.414-1.414L9.88 8.464l1.414-1.414L13.12 8.88l1.415-1.415-1.829-1.828 2.829-2.828a1 1 0 0 1 1.414 0l4.242 4.242a1 1 0 0 1 0 1.414L8.464 21.192a1 1 0 0 1-1.414 0L2.808 16.95a1 1 0 0 1 0-1.414l2.828-2.829zm8.485 5.656l4.243-4.242L21 16.757V21h-4.242l-2.637-2.637zM5.636 9.878L2.807 7.05a1 1 0 0 1 0-1.415l2.829-2.828a1 1 0 0 1 1.414 0L9.88 5.635 5.636 9.878z"/>
    </symbol>
    <symbol id="terminal" viewBox="0 0 24 24">
      <title>terminal</title>
      <path fill="none" d="M0 0h24v24H0z"/><path d="M11 12l-7.071 7.071-1.414-1.414L8.172 12 2.515 6.343 3.929 4.93 11 12zm0 7h10v2H11v-2z"/>
    </symbol>
    <symbol id="help" viewBox="0 0 24 24">
      <title>help</title>
      <path fill="none" d="M0 0h24v24H0z"/><path d="M12 22C6.477 22 2 17.523 2 12S6.477 2 12 2s10 4.477 10 10-4.477 10-10 10zm0-2a8 8 0 1 0 0-16 8 8 0 0 0 0 16zm-1-5h2v2h-2v-2zm2-1.645V14h-2v-1.5a1 1 0 0 1 1-1 1.5 1.5 0 1 0-1.471-1.794l-1.962-.393A3.501 3.501 0 1 1 13 13.355z"/>
    </symbol>
    <symbol id="movie" viewBox="0 0 24 24">
      <title>movie</title>
      <path fill="none" d="M0 0h24v24H0z"/><path d="M2 3.993A1 1 0 0 1 2.992 3h18.016c.548 0 .992.445.992.993v16.014a1 1 0 0 1-.992.993H2.992A.993.993 0 0 1 2 20.007V3.993zM4 5v14h16V5H4zm6.622 3.415l4.879 3.252a.4.4 0 0 1 0 .666l-4.88 3.252a.4.4 0 0 1-.621-.332V8.747a.4.4 0 0 1 .622-.332z"/>
    </symbol>
    <symbol id="book" viewBox="0 0 24 24">
      <title>book</title>
      <path fill="none" d="M0 0h24v24H0z"/><path d="M3 18.5V5a3 3 0 0 1 3-3h14a1 1 0 0 1 1 1v18a1 1 0 0 1-1 1H6.5A3.5 3.5 0 0 1 3 18.5zM19 20v-3H6.5a1.5 1.5 0 0 0 0 3H19zM5 15.337A3.486 3.486 0 0 1 6.5 15H19V4H6a1 1 0 0 0-1 1v10.337z"/>
    </symbol>
    <symbol id="mobile" viewBox="0 0 24 24">
      <title>mobile</title>
      <path fill="none" d="M0 0h24v24H0z"/><path d="M7 4v16h10V4H7zM6 2h12a1 1 0 0 1 1 1v18a1 1 0 0 1-1 1H6a1 1 0 0 1-1-1V3a1 1 0 0 1 1-1zm6 15a1 1 0 1 1 0 2 1 1 0 0 1 0-2z"/>
    </symbol>
    <symbol id="code" viewBox="0 0 24 24">
      <title>code</title>
      <path fill="none" d="M0 0h24v24H0z"/><path d="M24 12l-5.657 5.657-1.414-1.414L21.172 12l-4.243-4.243 1.414-1.414L24 12zM2.828 12l4.243 4.243-1.414 1.414L0 12l5.657-5.657L7.07 7.757 2.828 12zm6.96 9H7.66l6.552-18h2.128L9.788 21z" fill="rgba(0,0,0,1)"/>
    </symbol>
    <symbol id="donut" viewBox="0 0 24 24">
      <title>donut</title>
      <path fill="none" d="M0 0H24V24H0z"/><path d="M11 2.05v3.02C7.608 5.557 5 8.475 5 12c0 3.866 3.134 7 7 7 1.572 0 3.024-.518 4.192-1.394l2.137 2.137C16.605 21.153 14.4 22 12 22 6.477 22 2 17.523 2 12c0-5.185 3.947-9.449 9-9.95zM21.95 13c-.2 2.011-.994 3.847-2.207 5.328l-2.137-2.136c.687-.916 1.153-2.006 1.323-3.192h3.022zM13.002 2.05c4.724.469 8.48 4.226 8.95 8.95h-3.022c-.438-3.065-2.863-5.49-5.928-5.929V2.049z"/>
    </symbol>
    <symbol id="code-doc" viewBox="0 0 24 24">
      <title>code-doc</title>
      <path d="M15 4H5v16h14V8h-4V4zM3 2.992C3 2.444 3.447 2 3.999 2H16l5 5v13.993A1 1 0 0 1 20.007 22H3.993A1 1 0 0 1 3 21.008V2.992zM17.657 12l-3.536 3.536-1.414-1.415L14.828 12l-2.12-2.121 1.413-1.415L17.657 12zM6.343 12L9.88 8.464l1.414 1.415L9.172 12l2.12 2.121-1.413 1.415L6.343 12z"/>
    </symbol>
    <symbol id="phone" viewBox="0 0 24 24">
      <title>phone</title>
      <path fill="none" d="M0 0h24v24H0z"/><path d="M9.366 10.682a10.556 10.556 0 0 0 3.952 3.952l.884-1.238a1 1 0 0 1 1.294-.296 11.422 11.422 0 0 0 4.583 1.364 1 1 0 0 1 .921.997v4.462a1 1 0 0 1-.898.995c-.53.055-1.064.082-1.602.082C9.94 21 3 14.06 3 5.5c0-.538.027-1.072.082-1.602A1 1 0 0 1 4.077 3h4.462a1 1 0 0 1 .997.921A11.422 11.422 0 0 0 10.9 8.504a1 1 0 0 1-.296 1.294l-1.238.884zm-2.522-.657l1.9-1.357A13.41 13.41 0 0 1 7.647 5H5.01c-.006.166-.009.333-.009.5C5 12.956 11.044 19 18.5 19c.167 0 .334-.003.5-.01v-2.637a13.41 13.41 0 0 1-3.668-1.097l-1.357 1.9a12.442 12.442 0 0 1-1.588-.75l-.058-.033a12.556 12.556 0 0 1-4.702-4.702l-.033-.058a12.442 12.442 0 0 1-.75-1.588z"/>
    </symbol>
    <symbol id="guide" viewBox="0 0 24 24">
      <title>guide</title>
      <path fill="none" d="M0 0h24v24H0z"/><path d="M13 8v8a3 3 0 0 1-3 3H7.83a3.001 3.001 0 1 1 0-2H10a1 1 0 0 0 1-1V8a3 3 0 0 1 3-3h3V2l5 4-5 4V7h-3a1 1 0 0 0-1 1zM5 19a1 1 0 1 0 0-2 1 1 0 0 0 0 2z"/>
    </symbol>
    <symbol id="chat" viewBox="0 0 24 24">
      <title>chat</title>
      <path fill="none" d="M0 0h24v24H0z"/><path d="M7.291 20.824L2 22l1.176-5.291A9.956 9.956 0 0 1 2 12C2 6.477 6.477 2 12 2s10 4.477 10 10-4.477 10-10 10a9.956 9.956 0 0 1-4.709-1.176zm.29-2.113l.653.35A7.955 7.955 0 0 0 12 20a8 8 0 1 0-8-8c0 1.334.325 2.618.94 3.766l.349.653-.655 2.947 2.947-.655zM7 12h2a3 3 0 0 0 6 0h2a5 5 0 0 1-10 0z"/>
    </symbol>
    <symbol id="mail-send" viewBox="0 0 24 24">
      <title>mail-send</title>
      <path fill="none" d="M0 0h24v24H0z"/><path d="M22 20.007a1 1 0 0 1-.992.993H2.992A.993.993 0 0 1 2 20.007V19h18V7.3l-8 7.2-10-9V4a1 1 0 0 1 1-1h18a1 1 0 0 1 1 1v16.007zM4.434 5L12 11.81 19.566 5H4.434zM0 15h8v2H0v-2zm0-5h5v2H0v-2z"/>
    </symbol>
    <symbol id="stack" viewBox="0 0 24 24">
      <title>stack</title>
      <path fill="none" d="M0 0h24v24H0z"/><path d="M20.083 15.2l1.202.721a.5.5 0 0 1 0 .858l-8.77 5.262a1 1 0 0 1-1.03 0l-8.77-5.262a.5.5 0 0 1 0-.858l1.202-.721L12 20.05l8.083-4.85zm0-4.7l1.202.721a.5.5 0 0 1 0 .858L12 17.65l-9.285-5.571a.5.5 0 0 1 0-.858l1.202-.721L12 15.35l8.083-4.85zm-7.569-9.191l8.771 5.262a.5.5 0 0 1 0 .858L12 13 2.715 7.429a.5.5 0 0 1 0-.858l8.77-5.262a1 1 0 0 1 1.03 0zM12 3.332L5.887 7 12 10.668 18.113 7 12 3.332z"/>
    </symbol>
    <symbol id="team" viewBox="0 0 24 24">
      <title>team</title>
      <path fill="none" d="M0 0h24v24H0z"/><path d="M12 11a5 5 0 0 1 5 5v6H7v-6a5 5 0 0 1 5-5zm-6.712 3.006a6.983 6.983 0 0 0-.28 1.65L5 16v6H2v-4.5a3.5 3.5 0 0 1 3.119-3.48l.17-.014zm13.424 0A3.501 3.501 0 0 1 22 17.5V22h-3v-6c0-.693-.1-1.362-.288-1.994zM5.5 8a2.5 2.5 0 1 1 0 5 2.5 2.5 0 0 1 0-5zm13 0a2.5 2.5 0 1 1 0 5 2.5 2.5 0 0 1 0-5zM12 2a4 4 0 1 1 0 8 4 4 0 0 1 0-8z"/>
    </symbol>
    <symbol id="parent" viewBox="0 0 24 24">
      <title>parent</title>
      <path fill="none" d="M0 0h24v24H0z"/><path d="M7 9a2.5 2.5 0 1 0 0-5 2.5 2.5 0 0 0 0 5zm0 2a4.5 4.5 0 1 1 0-9 4.5 4.5 0 0 1 0 9zm10.5 2a2 2 0 1 0 0-4 2 2 0 0 0 0 4zm0 2a4 4 0 1 1 0-8 4 4 0 0 1 0 8zm2.5 6v-.5a2.5 2.5 0 1 0-5 0v.5h-2v-.5a4.5 4.5 0 1 1 9 0v.5h-2zm-10 0v-4a3 3 0 0 0-6 0v4H2v-4a5 5 0 0 1 10 0v4h-2z"/>
    </symbol>
    <symbol id="quill-pen" viewBox="0 0 24 24">
      <title>quill-pen</title>
      <path fill="none" d="M0 0h24v24H0z"/><path d="M6.94 14.036c-.233.624-.43 1.2-.606 1.783.96-.697 2.101-1.139 3.418-1.304 2.513-.314 4.746-1.973 5.876-4.058l-1.456-1.455 1.413-1.415 1-1.001c.43-.43.915-1.224 1.428-2.368-5.593.867-9.018 4.292-11.074 9.818zM17 9.001L18 10c-1 3-4 6-8 6.5-2.669.334-4.336 2.167-5.002 5.5H3C4 16 6 2 21 2c-1 2.997-1.998 4.996-2.997 5.997L17 9.001z"/>
    </symbol>
    <symbol id="privacy" viewBox="0 0 24 24">
      <title>privacy</title>
      <path fill="none" d="M0 0h24v24H0z"/><path d="M12 2c5.523 0 10 4.477 10 10 0 2.136-.67 4.116-1.811 5.741L17 12h3a8 8 0 1 0-2.46 5.772l.998 1.795A9.961 9.961 0 0 1 12 22C6.477 22 2 17.523 2 12S6.477 2 12 2zm0 5a3 3 0 0 1 3 3v1h1v5H8v-5h1v-1a3 3 0 0 1 3-3zm2 6h-4v1h4v-1zm-2-4a1 1 0 0 0-.993.883L11 10v1h2v-1a1 1 0 0 0-.883-.993L12 9z"/>
    </symbol>
    <symbol id="community" viewBox="0 0 24 24">
      <title>community</title>
      <path fill="none" d="M0 0h24v24H0z"/><path d="M9 19h3v-6.058L8 9.454l-4 3.488V19h3v-4h2v4zm12 2H3a1 1 0 0 1-1-1v-7.513a1 1 0 0 1 .343-.754L6 8.544V4a1 1 0 0 1 1-1h14a1 1 0 0 1 1 1v16a1 1 0 0 1-1 1zm-5-10v2h2v-2h-2zm0 4v2h2v-2h-2zm0-8v2h2V7h-2zm-4 0v2h2V7h-2z"/>
    </symbol>
    <symbol id="calendar" viewBox="0 0 24 24">
      <title>calendar</title>
      <path fill="none" d="M0 0h24v24H0z"/><path d="M17 3h4a1 1 0 0 1 1 1v16a1 1 0 0 1-1 1H3a1 1 0 0 1-1-1V4a1 1 0 0 1 1-1h4V1h2v2h6V1h2v2zm3 8H4v8h16v-8zm-5-6H9v2H7V5H4v4h16V5h-3v2h-2V5zm-9 8h2v2H6v-2zm5 0h2v2h-2v-2zm5 0h2v2h-2v-2z"/>
    </symbol>
    <symbol id="discord" viewBox="0 0 24 24">
      <title>discord</title>
      <path fill="none" d="M0 0h24v24H0z"/><path d="M10.076 11c.6 0 1.086.45 1.075 1 0 .55-.474 1-1.075 1C9.486 13 9 12.55 9 12s.475-1 1.076-1zm3.848 0c.601 0 1.076.45 1.076 1s-.475 1-1.076 1c-.59 0-1.075-.45-1.075-1s.474-1 1.075-1zm4.967-9C20.054 2 21 2.966 21 4.163V23l-2.211-1.995-1.245-1.176-1.317-1.25.546 1.943H5.109C3.946 20.522 3 19.556 3 18.359V4.163C3 2.966 3.946 2 5.109 2H18.89zm-3.97 13.713c2.273-.073 3.148-1.596 3.148-1.596 0-3.381-1.482-6.122-1.482-6.122-1.48-1.133-2.89-1.102-2.89-1.102l-.144.168c1.749.546 2.561 1.334 2.561 1.334a8.263 8.263 0 0 0-3.096-1.008 8.527 8.527 0 0 0-2.077.02c-.062 0-.114.011-.175.021-.36.032-1.235.168-2.335.662-.38.178-.607.305-.607.305s.854-.83 2.705-1.376l-.103-.126s-1.409-.031-2.89 1.103c0 0-1.481 2.74-1.481 6.121 0 0 .864 1.522 3.137 1.596 0 0 .38-.472.69-.871-1.307-.4-1.8-1.24-1.8-1.24s.102.074.287.179c.01.01.02.021.041.031.031.022.062.032.093.053.257.147.514.262.75.357.422.168.926.336 1.513.452a7.06 7.06 0 0 0 2.664.01 6.666 6.666 0 0 0 1.491-.451c.36-.137.761-.337 1.183-.62 0 0-.514.861-1.862 1.25.309.399.68.85.68.85z"/>
    </symbol>
    <symbol id="gitlab" viewBox="0 0 24 24">
      <title>gitlab</title>
      <path fill="none" d="M0 0h24v24H0z"/><path d="M5.68 7.314l-1.82 5.914L12 19.442l8.14-6.214-1.82-5.914L16.643 11H7.356L5.681 7.314zM15.357 9l2.888-6.354a.4.4 0 0 1 .747.048l3.367 10.945a.5.5 0 0 1-.174.544L12 21.958 1.816 14.183a.5.5 0 0 1-.174-.544L5.009 2.694a.4.4 0 0 1 .747-.048L8.644 9h6.712z"/>
    </symbol>
    <symbol id="arrow-right" viewBox="0 0 24 24">
      <title>arrow-right</title>
      <path fill="none" d="M0 0h24v24H0z"/><path d="M16.172 11l-5.364-5.364 1.414-1.414L20 12l-7.778 7.778-1.414-1.414L16.172 13H4v-2z"/>
      </symbol>
    <symbol id="intermine-logo-block" viewBox="0 0 8.7636499 7.3155599">
      <title>intermine-logo-block</title>
      <g style="transform: translate(-401.6598px,-340px)">
        <path d="m 406.77779,341.35912 c 0,0.0949 0.0582,0.17194 0.12992,0.17194 h 3.86097 c 0.0718,0 0.13009,-0.0771 0.13009,-0.17194 v -1.73771 c 0,-0.0954 -0.0582,-0.17194 -0.13009,-0.17194 h -3.86097 c -0.0717,0 -0.12992,0.0765 -0.12992,0.17194 z"/>
        <path d="m 402.13512,341.35912 c 0,0.0949 0.0582,0.17194 0.13008,0.17194 h 3.86133 c 0.0713,0 0.12939,-0.0771 0.12939,-0.17194 v -1.73771 c 0,-0.0954 -0.0581,-0.17194 -0.12939,-0.17194 h -3.86133 c -0.0718,0 -0.13008,0.0765 -0.13008,0.17194 z"/>
        <path d="m 406.77779,343.96818 c 0,0.0943 0.0582,0.17142 0.12992,0.17142 h 3.86097 c 0.0718,0 0.13009,-0.0771 0.13009,-0.17142 v -1.73788 c 0,-0.095 -0.0582,-0.17247 -0.13009,-0.17247 h -3.86097 c -0.0717,0 -0.12992,0.0774 -0.12992,0.17247 z"/>
        <path d="m 402.13512,343.96818 c 0,0.0943 0.0582,0.17142 0.13008,0.17142 h 3.86133 c 0.0713,0 0.12939,-0.0771 0.12939,-0.17142 v -1.73788 c 0,-0.095 -0.0581,-0.17247 -0.12939,-0.17247 h -3.86133 c -0.0718,0 -0.13008,0.0774 -0.13008,0.17247 z"/>
        <path d="m 406.77779,346.59327 c 0,0.0954 0.0582,0.17176 0.12992,0.17176 h 3.86097 c 0.0718,0 0.13009,-0.0764 0.13009,-0.17176 v -1.73789 c 0,-0.0949 -0.0582,-0.17124 -0.13009,-0.17124 h -3.86097 c -0.0717,0 -0.12992,0.0764 -0.12992,0.17124 z"/>
        <path d="m 402.13512,346.59327 c 0,0.0954 0.0582,0.17176 0.13008,0.17176 h 3.86133 c 0.0713,0 0.12939,-0.0764 0.12939,-0.17176 v -1.73789 c 0,-0.0949 -0.0581,-0.17124 -0.12939,-0.17124 h -3.86133 c -0.0718,0 -0.13008,0.0764 -0.13008,0.17124 z"/>
      </g>
      </symbol>
  </defs>
</svg>
