<?xml version="1.0" encoding="utf-8"?>
<!-- Generator: Adobe Illustrator 21.0.2, SVG Export Plug-In . SVG Version: 6.00 Build 0)  -->
<svg version="1.1" id="workplace" xmlns="http://www.w3.org/2000/svg" xmlns:xlink="http://www.w3.org/1999/xlink" x="0px" y="0px"
	 viewBox="0 0 128 128" style="enable-background:new 0 0 128 128;" xml:space="preserve">
<style type="text/css">
	.st0{fill:#3AD0F9;}
	.st1{fill:#AD5114;}
	.st2{fill:#EAEAEA;}
	.st3{fill:#D4D6D6;}
	.st4{fill:#663210;}
	.st5{fill:#FBD000;}
	.st6{fill:#FFFFFF;}
	.st7{fill:#993F0D;}
	.st8{fill:#F4B10B;}
	.st9{opacity:0.5;fill:#FFFFFF;}
</style>
<g>
	<circle class="st0" cx="64" cy="64" r="64"/>
	<path class="st1" d="M126.5,89.6c0,2-1.8,3.6-4,3.6H6.3c-2.2,0-4-1.6-4-3.6s1.8-3.6,4-3.6h116.2C124.7,86,126.5,87.6,126.5,89.6z"
		/>
	<path class="st2" d="M77.4,67.2c0,4.4-3.6,8-8,8H19.6c-4.4,0-8-3.6-8-8v-31c0-4.4,3.6-8,8-8h49.8c4.4,0,8,3.6,8,8V67.2z"/>
	<path class="st3" d="M69.4,66H19.6c-4.4,0-8-3.6-8-8v9.3c0,4.4,3.6,8,8,8h49.8c4.4,0,8-3.6,8-8V58C77.4,62.4,73.8,66,69.4,66z"/>
	<path class="st4" d="M70,77H19c-5,0-9-4-9-9V37c0-5,4-9,9-9h51c5,0,9,4,9,9v31C79,73,75,77,70,77z M19,30c-3.9,0-7,3.1-7,7v31
		c0,3.9,3.1,7,7,7h51c3.9,0,7-3.1,7-7V37c0-3.9-3.1-7-7-7H19z"/>
	<path class="st3" d="M60.7,83.3c0,1.5-1.8,2.7-4,2.7H34.2c-2.2,0-4-1.2-4-2.7c0-1.5,1.8-2.7,4-2.7h22.5
		C58.9,80.7,60.7,81.8,60.7,83.3z"/>
	<path class="st4" d="M35,87C35,87,35,87,35,87c-2.8,0-5-1.5-5-3.5c0-2,2.2-3.5,5-3.5h21c2.8,0,5,1.5,5,3.5c0,2-2.2,3.5-5,3.5L35,87
		z M35,82c-1.7,0-3,0.8-3,1.5c0,0.7,1.3,1.5,3,1.5v1l0-1l21,0c1.7,0,3-0.8,3-1.5c0-0.7-1.3-1.5-3-1.5H35z"/>
	<circle class="st3" cx="44.5" cy="47.5" r="5.5"/>
	<path class="st2" d="M50.5,82c0.2,2.2-1.5,4-3.7,4h-7.7c-2.2,0-3.7-1.8-3.4-4l2.6-16.5c0.3-2.2,2.4-4,4.6-4h2c2.2,0,4.1,1.8,4.3,4
		L50.5,82z"/>
	<path class="st4" d="M109.2,82c-2.7,0-4.8-2.2-4.8-5v-2c0-2.8,2.2-5,4.8-5s4.8,2.2,4.8,5v2C114,79.8,111.8,82,109.2,82z M109.2,72
		c-1.6,0-2.8,1.3-2.8,3v2c0,1.7,1.3,3,2.8,3c1.6,0,2.8-1.3,2.8-3v-2C112,73.3,110.7,72,109.2,72z"/>
	<path class="st5" d="M108.6,82c0,2.2-1.8,4-4,4h-7.7c-2.2,0-4-1.8-4-4V69.4c0-2.2,1.8-4,4-4h7.7c2.2,0,4,1.8,4,4V82z"/>
	<path class="st6" d="M98.4,62.3c-0.3,0-0.5-0.1-0.7-0.3c-0.4-0.4-0.4-1,0-1.4c0.3-0.3,0.5-0.8,0.5-1.2c0-0.5-0.2-0.9-0.5-1.2
		c-0.7-0.7-1.1-1.6-1.1-2.7c0-1,0.4-2,1.1-2.7c0.3-0.3,0.5-0.8,0.5-1.2c0-0.5-0.2-0.9-0.5-1.2c-0.4-0.4-0.4-1,0-1.4
		c0.4-0.4,1-0.4,1.4,0c0.7,0.7,1.1,1.6,1.1,2.7c0,1-0.4,2-1.1,2.7c-0.3,0.3-0.5,0.8-0.5,1.2c0,0.5,0.2,0.9,0.5,1.2
		c0.7,0.7,1.1,1.6,1.1,2.7c0,1-0.4,1.9-1.1,2.7C98.9,62.2,98.7,62.3,98.4,62.3z"/>
	<path class="st6" d="M102.5,55.4c-0.3,0-0.5-0.1-0.7-0.3c-0.4-0.4-0.4-1,0-1.4c0.3-0.3,0.5-0.8,0.5-1.2c0-0.5-0.2-0.9-0.5-1.2
		c-0.7-0.7-1.1-1.6-1.1-2.7c0-1,0.4-2,1.1-2.7c0.3-0.3,0.5-0.8,0.5-1.2s-0.2-0.9-0.5-1.2c-0.4-0.4-0.4-1,0-1.4c0.4-0.4,1-0.4,1.4,0
		c0.7,0.7,1.1,1.6,1.1,2.7c0,1-0.4,2-1.1,2.7c-0.3,0.3-0.5,0.8-0.5,1.2c0,0.5,0.2,0.9,0.5,1.2c0.7,0.7,1.1,1.6,1.1,2.7
		c0,1-0.4,1.9-1.1,2.7C103,55.4,102.7,55.4,102.5,55.4z"/>
	<path class="st4" d="M104.2,69.9h-7.5c-0.6,0-1-0.4-1-1c0-0.6,0.4-1,1-1h7.5c0.6,0,1,0.4,1,1C105.2,69.5,104.8,69.9,104.2,69.9z"/>
	<path class="st7" d="M125.6,88c-0.7,0.7-1.8,1.1-3,1.1H6.3c-1.2,0-2.3-0.4-3-1.1c-0.6,0.5-1,1.2-1,2c0,1.7,1.8,3,4,3h116.2
		c2.2,0,4-1.4,4-3C126.5,89.2,126.2,88.5,125.6,88z"/>
	<path class="st1" d="M14.4,104c1.9,2.3,3.9,4.5,6,6.5l5.4-17.3h-9L14.4,104z"/>
	<path class="st4" d="M122,94H7c-2.8,0-5-2-5-4.5S4.2,85,7,85h115c2.8,0,5,2,5,4.5S124.8,94,122,94z M7,87c-1.7,0-3,1.1-3,2.5
		S5.3,92,7,92h115c1.7,0,3-1.1,3-2.5s-1.3-2.5-3-2.5H7z"/>
	<polygon class="st7" points="16.8,94 25.7,94 24.5,97.8 15.9,97.8 	"/>
	<path class="st1" d="M113.1,93.3h-9l5.1,16.4c2.2-2.1,4.2-4.4,6-6.8L113.1,93.3z"/>
	<path class="st4" d="M25.7,92.3h-9c-0.5,0-0.9,0.3-1,0.8l-2.2,10c0.5,0.7,1.1,1.4,1.6,2l2.4-11h6.8l-4.8,15.8
		c0.5,0.5,1.1,1,1.6,1.5l5.5-17.7c0.1-0.3,0-0.6-0.1-0.9C26.4,92.4,26.1,92.3,25.7,92.3z"/>
	<polygon class="st7" points="113.1,94 104.1,94 105.3,97.8 113.9,97.8 	"/>
	<path class="st3" d="M46.8,80.2h-7.7c-1.3,0-2.3-0.6-2.9-1.6l-0.5,2.9c-0.3,2.2,1.2,4,3.4,4h7.7c2.2,0,3.9-1.8,3.7-4L50.2,78
		C49.6,79.3,48.4,80.2,46.8,80.2z"/>
	<path class="st4" d="M113.1,92.3h-9c-0.3,0-0.6,0.2-0.8,0.4c-0.2,0.3-0.2,0.6-0.1,0.9l5.2,16.8c0.5-0.5,1.1-1,1.6-1.6L105.4,94h6.8
		l2.1,9.8c0.5-0.7,1.1-1.4,1.6-2.1l-1.9-8.7C114,92.6,113.5,92.3,113.1,92.3z"/>
	<path class="st4" d="M46.8,87h-7.7c-1.4,0-2.6-0.5-3.4-1.5c-0.8-1-1.2-2.3-1-3.6l2.6-16.5c0.4-2.6,3-5.4,5.7-5.4h2
		c2.7,0,5,2.8,5.2,5.5l1.3,16.4c0.1,1.3-0.3,2.6-1.2,3.6C49.4,86.4,48.1,87,46.8,87z M43,62c-1.7,0-3.5,2-3.7,3.7l-2.6,16.5
		c-0.1,0.8,0.1,1.5,0.5,2c0.4,0.5,1.1,0.8,1.9,0.8h7.7c0.8,0,1.5-0.3,2-0.8c0.5-0.5,0.8-1.3,0.7-2.1l-1.3-16.4C48,64,46.7,62,45,62
		H43z"/>
	<path class="st8" d="M104.6,82.1h-7.7c-2.2,0-4-1.8-4-4V82c0,2.2,1.8,4,4,4h7.7c2.2,0,4-1.8,4-4v-3.9
		C108.6,80.3,106.8,82.1,104.6,82.1z"/>
	<path class="st4" d="M104,87h-7c-2.8,0-5-2.2-5-5V70c0-2.8,2.2-5,5-5h7c2.8,0,5,2.2,5,5v12C109,84.7,106.8,87,104,87z M97,67
		c-1.7,0-3,1.3-3,3v12c0,1.7,1.3,3,3,3h7c1.7,0,3-1.4,3-3V70c0-1.7-1.3-3-3-3H97z"/>
	<path class="st6" d="M65,119c-2.2,0-4-1.8-4-4c0-2.2,1.8-4,4-4c2.2,0,4,1.8,4,4C69,117.2,67.2,119,65,119z M65,112.9
		c-1.2,0-2.1,1-2.1,2.1c0,1.2,1,2.1,2.1,2.1c1.2,0,2.1-1,2.1-2.1C67.1,113.8,66.2,112.9,65,112.9z"/>
	<path class="st6" d="M60,19c-2.2,0-4-1.8-4-4c0-2.2,1.8-4,4-4c2.2,0,4,1.8,4,4C64,17.2,62.2,19,60,19z M60,12.9
		c-1.2,0-2.1,1-2.1,2.1c0,1.2,1,2.1,2.1,2.1c1.2,0,2.1-1,2.1-2.1C62.1,13.8,61.2,12.9,60,12.9z"/>
	<path class="st6" d="M91.3,21c0-0.4-0.4-0.8-1-0.9l-1.9-0.3c-0.5-0.1-1.1-0.6-1.1-1.1l-0.3-1.9c-0.1-0.5-0.5-1-0.9-1
		c-0.4,0-0.8,0.4-0.9,1l-0.3,1.9c-0.1,0.5-0.6,1.1-1.1,1.1l-1.9,0.3c-0.5,0.1-1,0.5-1,0.9s0.4,0.8,1,0.9l1.9,0.3
		c0.5,0.1,1.1,0.6,1.1,1.1l0.3,1.9c0.1,0.5,0.5,1,0.9,1c0.4,0,0.8-0.4,0.8-1l0.3-2.1c0.1-0.5,0.6-1,1.1-1.1l1.8-0.1
		C90.9,21.7,91.3,21.4,91.3,21z"/>
	<path class="st6" d="M47.3,108c0-0.4-0.4-0.8-1-0.9l-1.9-0.3c-0.5-0.1-1.1-0.6-1.1-1.1l-0.3-1.9c-0.1-0.5-0.5-1-0.9-1
		c-0.4,0-0.8,0.4-0.9,1l-0.3,1.9c-0.1,0.5-0.6,1.1-1.1,1.1l-1.9,0.3c-0.5,0.1-1,0.5-1,0.9s0.4,0.8,1,0.9l1.9,0.3
		c0.5,0.1,1.1,0.6,1.1,1.1l0.3,1.9c0.1,0.5,0.5,1,0.9,1c0.4,0,0.8-0.4,0.8-1l0.3-2.1c0.1-0.5,0.6-1,1.1-1.1l1.8-0.1
		C46.9,108.7,47.3,108.4,47.3,108z"/>
	<path class="st6" d="M121.1,56.8c0-0.4-0.4-0.8-1-0.9l-1.9-0.3c-0.5-0.1-1.1-0.6-1.1-1.1l-0.3-1.9c-0.1-0.5-0.5-1-0.9-1
		c-0.4,0-0.8,0.4-0.9,1l-0.3,1.9c-0.1,0.5-0.6,1.1-1.1,1.1l-1.9,0.3c-0.5,0.1-1,0.5-1,0.9c0,0.4,0.4,0.8,1,0.9l1.9,0.3
		c0.5,0.1,1.1,0.6,1.1,1.1l0.3,1.9c0.1,0.5,0.5,1,0.9,1c0.4,0,0.8-0.4,0.8-1l0.3-2.1c0.1-0.5,0.6-1,1.1-1.1l1.8-0.1
		C120.7,57.6,121.1,57.2,121.1,56.8z"/>
	<path class="st6" d="M87.7,104c0-0.4-0.4-0.8-1-0.9l-1.9-0.3c-0.5-0.1-1.1-0.6-1.1-1.1l-0.3-1.9c-0.1-0.5-0.5-1-0.9-1
		c-0.4,0-0.8,0.4-0.9,1l-0.3,1.9c-0.1,0.5-0.6,1.1-1.1,1.1l-1.9,0.3c-0.5,0.1-1,0.5-1,0.9c0,0.4,0.4,0.8,1,0.9l1.9,0.3
		c0.5,0.1,1.1,0.6,1.1,1.1l0.3,1.9c0.1,0.5,0.5,1,0.9,1c0.4,0,0.8-0.4,0.8-1l0.3-2.1c0.1-0.5,0.6-1,1.1-1.1l1.8-0.1
		C87.2,104.8,87.7,104.4,87.7,104z"/>
	<path class="st6" d="M73,60.5c-0.6,0-1-0.4-1-1V38.3c0-3.6-0.1-4.3-4.3-4.3H39c-0.6,0-1-0.4-1-1s0.4-1,1-1h28.7
		c5.5,0,6.3,1.9,6.3,6.3v21.2C74,60.1,73.6,60.5,73,60.5z"/>
	<path class="st6" d="M32,34h-9.8c-0.6,0-1-0.4-1-1s0.4-1,1-1H32c0.6,0,1,0.4,1,1S32.6,34,32,34z"/>
	<path class="st6" d="M39.5,78.4c-0.1,0-0.1,0-0.2,0c-0.5-0.1-0.9-0.6-0.8-1.2l1.9-11.1c0.1-0.5,0.6-0.9,1.2-0.8
		c0.5,0.1,0.9,0.6,0.8,1.2l-1.9,11.1C40.4,78,40,78.4,39.5,78.4z"/>
	<path class="st9" d="M118,90h-9.5c-0.6,0-1-0.4-1-1s0.4-1,1-1h9.5c0.6,0,1,0.4,1,1S118.6,90,118,90z"/>
	<path class="st9" d="M101.6,90H38.5c-0.6,0-1-0.4-1-1s0.4-1,1-1h63.1c0.6,0,1,0.4,1,1S102.2,90,101.6,90z"/>
	<path class="st6" d="M96,79.8c-0.6,0-1-0.4-1-1v-6.4c0-0.6,0.4-1,1-1s1,0.4,1,1v6.4C97,79.3,96.6,79.8,96,79.8z"/>
</g>
</svg>
