<?xml version="1.0" encoding="UTF-8" standalone="no"?>
<svg
   xmlns:dc="http://purl.org/dc/elements/1.1/"
   xmlns:cc="http://creativecommons.org/ns#"
   xmlns:rdf="http://www.w3.org/1999/02/22-rdf-syntax-ns#"
   xmlns:svg="http://www.w3.org/2000/svg"
   xmlns="http://www.w3.org/2000/svg"
   xmlns:sodipodi="http://sodipodi.sourceforge.net/DTD/sodipodi-0.dtd"
   xmlns:inkscape="http://www.inkscape.org/namespaces/inkscape"
   width="82.906509mm"
   height="8.7129469mm"
   viewBox="0 0 82.906509 8.7129469"
   version="1.1"
   id="svg8"
   inkscape:version="1.0.2-2 (e86c870879, 2021-01-15)"
   sodipodi:docname="isa_intermine.svg">
  <defs
     id="defs2" />
  <sodipodi:namedview
     id="base"
     pagecolor="#ffffff"
     bordercolor="#666666"
     borderopacity="1.0"
     inkscape:pageopacity="0.0"
     inkscape:pageshadow="2"
     inkscape:zoom="2.8"
     inkscape:cx="131.62653"
     inkscape:cy="-26.870806"
     inkscape:document-units="mm"
     inkscape:current-layer="layer1"
     inkscape:document-rotation="0"
     showgrid="false"
     fit-margin-top="0"
     fit-margin-left="0"
     fit-margin-right="0"
     fit-margin-bottom="0"
     inkscape:window-width="1920"
     inkscape:window-height="1009"
     inkscape:window-x="-8"
     inkscape:window-y="-8"
     inkscape:window-maximized="1" />
  <metadata
     id="metadata5">
    <rdf:RDF>
      <cc:Work
         rdf:about="">
        <dc:format>image/svg+xml</dc:format>
        <dc:type
           rdf:resource="http://purl.org/dc/dcmitype/StillImage" />
        <dc:title />
      </cc:Work>
    </rdf:RDF>
  </metadata>
  <g
     inkscape:label="Layer 1"
     inkscape:groupmode="layer"
     id="layer1"
     transform="translate(-19.041546,-101.8271)">
    <g
       style="overflow:visible"
       id="g51"
       transform="matrix(0.26458333,0,0,0.26458333,19.041546,102.58804)"
       inkscape:export-xdpi="373.14584"
       inkscape:export-ydpi="373.14584"
       inkscape:export-filename="C:\Users\Ank\projects\github\intermine\intermine-homepage-2017\static\images\png\isa_intermine.png">
      <path
         fill="#414042"
         d="m 14.488,10.684 c 0,2.102 -1.702,3.805 -3.804,3.805 H 3.806 C 1.704,14.489 0,12.786 0,10.684 V 3.806 C 0,1.705 1.704,0 3.806,0 h 6.878 c 2.102,0 3.804,1.705 3.804,3.806 z"
         id="path12" />
      <path
         fill="#8dc63f"
         d="m 25,16.244 c 0,1.792 -1.453,3.247 -3.246,3.247 h -8.303 c -1.792,0 -3.244,-1.455 -3.244,-3.247 V 7.943 c 0,-1.794 1.452,-3.247 3.244,-3.247 h 8.303 C 23.547,4.696 25,6.149 25,7.943 Z"
         id="path14" />
      <path
         fill="#a7a9ac"
         d="m 16.724,22.026 c 0,1.928 -1.564,3.492 -3.492,3.492 H 6.119 c -1.927,0 -3.488,-1.564 -3.488,-3.492 v -7.112 c 0,-1.929 1.562,-3.49 3.488,-3.49 h 7.113 c 1.928,0 3.492,1.562 3.492,3.49 z"
         id="path16" />
      <path
         fill="#414042"
         d="m 38.292,3.069 c 0.469,0 0.878,0.158 1.208,0.484 0.335,0.325 0.504,0.721 0.504,1.192 0,0.461 -0.169,0.859 -0.504,1.192 -0.33,0.335 -0.739,0.505 -1.208,0.505 -0.438,0 -0.824,-0.173 -1.16,-0.515 -0.333,-0.336 -0.503,-0.732 -0.503,-1.183 0,-0.44 0.17,-0.829 0.503,-1.168 0.336,-0.341 0.722,-0.507 1.16,-0.507 z M 36.879,9.14 h 2.855 v 14.438 h -2.855 z"
         id="path18" />
      <path
         fill="#414042"
         d="m 43.156,22.545 v -3.076 c 0.805,0.563 1.633,1.02 2.471,1.373 0.845,0.348 1.556,0.524 2.127,0.524 0.598,0 1.11,-0.149 1.54,-0.44 0.431,-0.292 0.641,-0.641 0.641,-1.052 0,-0.418 -0.137,-0.766 -0.413,-1.042 -0.276,-0.278 -0.877,-0.678 -1.796,-1.202 -1.843,-1.024 -3.049,-1.897 -3.617,-2.627 -0.57,-0.729 -0.857,-1.52 -0.857,-2.379 0,-1.109 0.434,-2.015 1.296,-2.714 0.86,-0.703 1.978,-1.052 3.335,-1.052 1.412,0 2.858,0.397 4.345,1.193 v 2.827 c -1.693,-1.028 -3.078,-1.541 -4.156,-1.541 -0.555,0 -1.001,0.119 -1.341,0.354 -0.34,0.236 -0.514,0.548 -0.514,0.933 0,0.34 0.158,0.655 0.463,0.959 0.308,0.305 0.853,0.67 1.625,1.099 l 1.021,0.581 c 2.409,1.365 3.612,2.866 3.612,4.52 0,1.182 -0.467,2.154 -1.391,2.912 -0.929,0.758 -2.113,1.137 -3.572,1.137 -0.855,0 -1.62,-0.091 -2.288,-0.277 -0.671,-0.183 -1.514,-0.52 -2.531,-1.01 z"
         id="path20" />
      <path
         fill="#414042"
         d="m 65.303,14.901 v 6.137 c 0,0.491 0.164,0.735 0.504,0.735 0.345,0 0.881,-0.256 1.612,-0.769 v 1.741 c -0.646,0.419 -1.169,0.706 -1.562,0.856 -0.391,0.151 -0.803,0.229 -1.23,0.229 -1.221,0 -1.945,-0.481 -2.166,-1.446 -1.215,0.943 -2.507,1.412 -3.876,1.412 -1.004,0 -1.843,-0.33 -2.512,-0.995 -0.667,-0.663 -1.006,-1.5 -1.006,-2.503 0,-0.911 0.328,-1.723 0.982,-2.438 0.653,-0.72 1.582,-1.286 2.785,-1.705 l 3.655,-1.254 V 14.13 c 0,-1.735 -0.866,-2.605 -2.605,-2.605 -1.555,0 -3.072,0.807 -4.549,2.418 v -3.124 c 1.109,-1.306 2.706,-1.961 4.789,-1.961 1.556,0 2.807,0.41 3.749,1.224 0.312,0.262 0.597,0.609 0.845,1.042 0.256,0.435 0.41,0.869 0.479,1.307 0.07,0.432 0.106,1.253 0.106,2.47 z m -2.813,5.821 v -4.283 l -1.912,0.737 c -0.973,0.387 -1.659,0.775 -2.065,1.17 -0.401,0.395 -0.604,0.883 -0.604,1.467 0,0.596 0.19,1.083 0.576,1.458 0.382,0.379 0.873,0.566 1.482,0.566 0.908,0 1.753,-0.373 2.523,-1.115 z"
         id="path22" />
      <path
         fill="#414042"
         d="M 72.739,4.352 V 9.14 h 4.051 v 1.257 h -4.051 v 8.584 c 0,1.383 0.113,2.29 0.338,2.723 0.228,0.436 0.83,0.651 1.814,0.651 0.751,0 1.633,-0.234 2.636,-0.705 v 1.473 c -1.013,0.491 -2.011,0.739 -2.985,0.739 -0.95,0 -1.741,-0.271 -2.383,-0.818 -0.638,-0.541 -0.955,-1.294 -0.955,-2.258 V 10.396 H 67.31 V 9.14 h 3.895 V 5.705 l 1.049,-1.354 h 0.485 z"
         id="path24" />
      <path
         fill="#414042"
         d="m 86.332,8.858 c 2.094,0 3.839,0.717 5.232,2.147 1.396,1.436 2.096,3.223 2.096,5.369 0,2.135 -0.699,3.918 -2.096,5.347 -1.393,1.423 -3.138,2.14 -5.232,2.14 -2.095,0 -3.844,-0.717 -5.247,-2.14 -1.409,-1.429 -2.111,-3.212 -2.111,-5.347 0,-2.146 0.702,-3.934 2.111,-5.369 1.402,-1.43 3.151,-2.147 5.247,-2.147 z m 0,13.496 c 1.621,0 2.976,-0.568 4.062,-1.7 1.093,-1.137 1.633,-2.564 1.633,-4.279 0,-1.706 -0.545,-3.135 -1.638,-4.286 -1.096,-1.152 -2.447,-1.725 -4.057,-1.725 -1.632,0 -2.995,0.569 -4.089,1.711 -1.09,1.14 -1.636,2.573 -1.636,4.3 0,1.715 0.546,3.143 1.636,4.279 1.094,1.132 2.456,1.7 4.089,1.7 z"
         id="path26" />
      <path
         fill="#414042"
         d="m 103.751,8.858 c 2.095,0 3.838,0.717 5.236,2.147 1.392,1.436 2.09,3.223 2.09,5.369 0,2.135 -0.698,3.918 -2.09,5.347 -1.398,1.423 -3.142,2.14 -5.236,2.14 -2.092,0 -3.842,-0.717 -5.247,-2.14 -1.408,-1.429 -2.111,-3.212 -2.111,-5.347 0,-2.146 0.703,-3.934 2.111,-5.369 1.405,-1.43 3.155,-2.147 5.247,-2.147 z m 0,13.496 c 1.625,0 2.977,-0.568 4.062,-1.7 1.092,-1.137 1.637,-2.564 1.637,-4.279 0,-1.706 -0.547,-3.135 -1.642,-4.286 -1.094,-1.152 -2.445,-1.725 -4.057,-1.725 -1.629,0 -2.995,0.569 -4.086,1.711 -1.091,1.14 -1.639,2.573 -1.639,4.3 0,1.715 0.548,3.143 1.639,4.279 1.091,1.132 2.457,1.7 4.086,1.7 z"
         id="path28" />
      <path
         fill="#414042"
         d="m 116.26,1.656 v 21.921 h -1.551 V 1.656 Z"
         id="path30" />
      <path
         fill="#414042"
         d="m 128.439,10.082 v 1.663 c -1.467,-0.984 -2.786,-1.472 -3.957,-1.472 -0.867,0 -1.599,0.233 -2.195,0.701 -0.597,0.469 -0.894,1.048 -0.894,1.74 0,0.486 0.18,0.938 0.54,1.352 0.363,0.41 1.365,0.932 3,1.566 1.636,0.63 2.705,1.288 3.206,1.969 0.502,0.678 0.754,1.436 0.754,2.272 0,1.121 -0.454,2.065 -1.368,2.835 -0.911,0.769 -2.031,1.152 -3.37,1.152 -1.454,0 -2.901,-0.44 -4.333,-1.316 v -1.507 c 1.708,0.878 3.218,1.316 4.538,1.316 0.888,0 1.617,-0.234 2.186,-0.705 0.573,-0.473 0.857,-1.071 0.857,-1.804 0,-0.502 -0.187,-0.965 -0.556,-1.39 -0.374,-0.422 -1.377,-0.958 -3.018,-1.607 -1.637,-0.652 -2.697,-1.29 -3.186,-1.925 -0.483,-0.632 -0.729,-1.339 -0.729,-2.11 0,-1.097 0.455,-2.032 1.36,-2.801 0.903,-0.77 2.003,-1.154 3.304,-1.154 1.185,0.001 2.47,0.412 3.861,1.225 z"
         id="path32" />
    </g>
    <g
       id="g2136"
       inkscape:export-filename="C:\Users\Ank\projects\github\intermine\intermine-homepage-2017\static\images\png\isa_intermine.png"
       inkscape:export-xdpi="373.14584"
       inkscape:export-ydpi="373.14584"
       transform="matrix(0.64567696,0,0,0.64567696,-125.02166,-233.29611)">
      <g
         id="g1883"
         transform="translate(1.1910095,-3.0427083)">
        <path
           inkscape:connector-curvature="0"
           id="path5576-1-3-9"
           style="fill:#c0d848;fill-opacity:1;fill-rule:nonzero;stroke:#000000;stroke-width:1.8491;stroke-miterlimit:4;stroke-dasharray:none;stroke-opacity:1"
           d="m 66.895,91.987 h 8.683 v -41.35 h -8.683 z"
           transform="matrix(0.17413857,0,0,-0.17413857,289.60165,541.45497)" />
        <path
           inkscape:connector-curvature="0"
           id="path5578-8-1-9"
           style="fill:#c0d848;fill-opacity:1;fill-rule:nonzero;stroke:#000000;stroke-width:1.8491;stroke-miterlimit:4;stroke-dasharray:none;stroke-opacity:1"
           d="m 113.0874,50.6377 h -8.506 v 24.396 h -15.889 v -24.396 h -8.506 v 24.396 c 0,5.139 3.366,8.507 8.506,8.507 3.544,0 7.147,0.118 10.75,0.118 1.891,0 3.84,-0.06 5.73,-0.178 9.333,-0.708 8.034,-9.688 8.034,-16.482 0,-5.433 -0.119,-10.926 -0.119,-16.361"
           transform="matrix(0.17413857,0,0,-0.17413857,289.60165,541.45497)" />
        <path
           inkscape:connector-curvature="0"
           id="path5580-5-3-6"
           style="fill:#c0d848;fill-opacity:1;fill-rule:nonzero;stroke:#000000;stroke-width:1.8491;stroke-miterlimit:4;stroke-dasharray:none;stroke-opacity:1"
           d="m 132.2896,75.0342 v -24.396 h -8.506 v 24.396 h -8.092 v 8.506 h 8.092 v 8.979 h 8.506 v -8.979 h 8.151 v -8.506 z"
           transform="matrix(0.17413857,0,0,-0.17413857,289.60165,541.45497)" />
        <path
           inkscape:connector-curvature="0"
           id="path5582-3-0-4"
           style="fill:#c0d848;fill-opacity:1;fill-rule:nonzero;stroke:#000000;stroke-width:1.8491;stroke-miterlimit:4;stroke-dasharray:none;stroke-opacity:1"
           d="M 165.844,75.034 H 149.955 V 71.49 h 15.889 z M 149.955,50.578 c -8.802,0 -8.625,7.209 -8.625,13.766 0,3.543 0.118,7.086 0.118,10.631 0,5.139 3.367,8.566 8.507,8.566 3.543,0 7.147,0.118 10.75,0.118 7.738,0 13.644,-0.118 13.644,-9.748 0,-5.905 -1.535,-10.867 -8.505,-10.867 h -15.889 v -3.898 h 24.394 v -8.568 z"
           transform="matrix(0.17413857,0,0,-0.17413857,289.60165,541.45497)" />
        <path
           inkscape:connector-curvature="0"
           id="path5584-3-5-9"
           style="fill:#c0d848;fill-opacity:1;fill-rule:nonzero;stroke:#000000;stroke-width:1.8491;stroke-miterlimit:4;stroke-dasharray:none;stroke-opacity:1"
           d="m 211.9229,67.3545 h -8.507 v 7.68 h -15.889 v -24.397 h -8.506 v 32.903 h 24.395 c 7.088,0 8.624,-4.903 8.565,-10.929 z"
           transform="matrix(0.17413857,0,0,-0.17413857,289.60165,541.45497)" />
        <path
           inkscape:connector-curvature="0"
           id="path5586-7-4-8"
           style="fill:#222222;fill-opacity:1;fill-rule:nonzero;stroke:none;stroke-width:1.8491;stroke-miterlimit:4;stroke-dasharray:none;stroke-opacity:1"
           d="m 251.8574,50.6377 v 31.722 l -7.267,-31.722 h -13.23 l -7.265,31.722 v -31.722 h -8.684 v 41.35 h 15.063 l 7.503,-32.665 7.501,32.665 h 15.062 v -41.35 z"
           transform="matrix(0.17413857,0,0,-0.17413857,289.60165,541.45497)" />
        <path
           inkscape:connector-curvature="0"
           id="path5588-0-4-8"
           style="fill:#222222;fill-opacity:1;fill-rule:nonzero;stroke:none;stroke-width:1.8491;stroke-miterlimit:4;stroke-dasharray:none;stroke-opacity:1"
           d="m 265.214,82.417 h 8.506 v -31.78 h -8.506 z m 0,9.51 h 8.506 v -7.635045 h -8.506 z"
           sodipodi:nodetypes="cccccccccc"
           transform="matrix(0.17413857,0,0,-0.17413857,289.60165,541.45497)" />
        <path
           inkscape:connector-curvature="0"
           id="path5590-1-6-5"
           style="fill:#222222;fill-opacity:1;fill-rule:nonzero;stroke:none;stroke-width:1.8491;stroke-miterlimit:4;stroke-dasharray:none;stroke-opacity:1"
           d="m 311.1709,50.6377 h -8.506 v 24.396 h -15.89 v -24.396 h -8.505 v 24.396 c 0,5.139 3.367,8.507 8.505,8.507 3.545,0 7.148,0.118 10.75,0.118 1.891,0 3.84,-0.06 5.73,-0.178 9.334,-0.708 8.034,-9.688 8.034,-16.482 0,-5.433 -0.118,-10.926 -0.118,-16.361"
           transform="matrix(0.17413857,0,0,-0.17413857,289.60165,541.45497)" />
        <path
           inkscape:connector-curvature="0"
           id="path5592-6-8-6"
           style="fill:#222222;fill-opacity:1;fill-rule:nonzero;stroke:none;stroke-width:1.8491;stroke-miterlimit:4;stroke-dasharray:none;stroke-opacity:1"
           d="M 340.237,75.034 H 324.348 V 71.49 h 15.889 z M 324.349,50.578 c -8.801,0 -8.625,7.209 -8.625,13.766 0,3.543 0.118,7.086 0.118,10.631 0,5.139 3.367,8.566 8.507,8.566 3.542,0 7.146,0.118 10.751,0.118 7.736,0 13.642,-0.118 13.642,-9.748 0,-5.905 -1.535,-10.867 -8.505,-10.867 h -15.888 v -3.898 h 24.393 v -8.568 z"
           transform="matrix(0.17413857,0,0,-0.17413857,289.60165,541.45497)" />
        <g
           id="g759"
           transform="translate(-111.18413,186.01959)">
          <path
             inkscape:connector-curvature="0"
             id="path4620-8-18-8-0-9-4-5-3-2-0"
             style="font-style:normal;font-weight:normal;font-size:32px;line-height:1.15;font-family:sans-serif;letter-spacing:-1.16px;fill:#c0d848;fill-opacity:1;fill-rule:nonzero;stroke:#222222;stroke-width:0.283999;stroke-miterlimit:4;stroke-dasharray:none;stroke-opacity:1"
             d="m 406.77779,341.35912 c 0,0.0949 0.0582,0.17194 0.12992,0.17194 h 3.86097 c 0.0718,0 0.13009,-0.0771 0.13009,-0.17194 v -1.73771 c 0,-0.0954 -0.0582,-0.17194 -0.13009,-0.17194 h -3.86097 c -0.0717,0 -0.12992,0.0765 -0.12992,0.17194 z" />
          <path
             inkscape:connector-curvature="0"
             id="path4624-5-1-8-3-8-1-1-3-1-8"
             style="font-style:normal;font-weight:normal;font-size:32px;line-height:1.15;font-family:sans-serif;letter-spacing:-1.16px;fill:#222222;fill-opacity:1;fill-rule:nonzero;stroke:#222222;stroke-width:0.283999;stroke-miterlimit:4;stroke-dasharray:none;stroke-opacity:1"
             d="m 402.13512,341.35912 c 0,0.0949 0.0582,0.17194 0.13008,0.17194 h 3.86133 c 0.0713,0 0.12939,-0.0771 0.12939,-0.17194 v -1.73771 c 0,-0.0954 -0.0581,-0.17194 -0.12939,-0.17194 h -3.86133 c -0.0718,0 -0.13008,0.0765 -0.13008,0.17194 z" />
          <path
             inkscape:connector-curvature="0"
             id="path4628-1-8-4-9-7-9-1-5-0-3"
             style="font-style:normal;font-weight:normal;font-size:32px;line-height:1.15;font-family:sans-serif;letter-spacing:-1.16px;fill:#222222;fill-opacity:1;fill-rule:nonzero;stroke:#222222;stroke-width:0.283999;stroke-miterlimit:4;stroke-dasharray:none;stroke-opacity:1"
             d="m 406.77779,343.96818 c 0,0.0943 0.0582,0.17142 0.12992,0.17142 h 3.86097 c 0.0718,0 0.13009,-0.0771 0.13009,-0.17142 v -1.73788 c 0,-0.095 -0.0582,-0.17247 -0.13009,-0.17247 h -3.86097 c -0.0717,0 -0.12992,0.0774 -0.12992,0.17247 z" />
          <path
             inkscape:connector-curvature="0"
             id="path4632-9-5-9-2-8-6-0-7-5-3"
             style="font-style:normal;font-weight:normal;font-size:32px;line-height:1.15;font-family:sans-serif;letter-spacing:-1.16px;fill:#c0d848;fill-opacity:1;fill-rule:nonzero;stroke:#222222;stroke-width:0.283999;stroke-miterlimit:4;stroke-dasharray:none;stroke-opacity:1"
             d="m 402.13512,343.96818 c 0,0.0943 0.0582,0.17142 0.13008,0.17142 h 3.86133 c 0.0713,0 0.12939,-0.0771 0.12939,-0.17142 v -1.73788 c 0,-0.095 -0.0581,-0.17247 -0.12939,-0.17247 h -3.86133 c -0.0718,0 -0.13008,0.0774 -0.13008,0.17247 z" />
          <path
             inkscape:connector-curvature="0"
             id="path4636-6-0-6-35-3-6-1-9-9-4"
             style="font-style:normal;font-weight:normal;font-size:32px;line-height:1.15;font-family:sans-serif;letter-spacing:-1.16px;fill:#222222;fill-opacity:1;fill-rule:nonzero;stroke:#222222;stroke-width:0.283999;stroke-miterlimit:4;stroke-dasharray:none;stroke-opacity:1"
             d="m 406.77779,346.59327 c 0,0.0954 0.0582,0.17176 0.12992,0.17176 h 3.86097 c 0.0718,0 0.13009,-0.0764 0.13009,-0.17176 v -1.73789 c 0,-0.0949 -0.0582,-0.17124 -0.13009,-0.17124 h -3.86097 c -0.0717,0 -0.12992,0.0764 -0.12992,0.17124 z" />
          <path
             inkscape:connector-curvature="0"
             id="path4640-7-4-1-4-9-2-9-0-7-2"
             style="font-style:normal;font-weight:normal;font-size:32px;line-height:1.15;font-family:sans-serif;letter-spacing:-1.16px;fill:#c0d848;fill-opacity:1;fill-rule:nonzero;stroke:#222222;stroke-width:0.283999;stroke-miterlimit:4;stroke-dasharray:none;stroke-opacity:1"
             d="m 402.13512,346.59327 c 0,0.0954 0.0582,0.17176 0.13008,0.17176 h 3.86133 c 0.0713,0 0.12939,-0.0764 0.12939,-0.17176 v -1.73789 c 0,-0.0949 -0.0581,-0.17124 -0.12939,-0.17124 h -3.86133 c -0.0718,0 -0.13008,0.0764 -0.13008,0.17124 z" />
        </g>
      </g>
    </g>
    <rect
       style="fill:#cccccc;fill-opacity:1;stroke:none;stroke-width:1.55799;stroke-linecap:round;stroke-linejoin:bevel;stroke-miterlimit:4;stroke-dasharray:none;stroke-opacity:1;paint-order:stroke fill markers"
       id="rect726"
       width="0.44201395"
       height="7.1549611"
       x="57.676544"
       y="102.60609"
       inkscape:export-xdpi="373.14584"
       inkscape:export-ydpi="373.14584"
       inkscape:export-filename="C:\Users\Ank\projects\github\intermine\intermine-homepage-2017\static\images\png\isa_intermine.png" />
  </g>
</svg>
