<?xml version="1.0" encoding="utf-8"?>
<!-- Generator: Adobe Illustrator 21.0.2, SVG Export Plug-In . SVG Version: 6.00 Build 0)  -->
<svg version="1.1" id="lamp" xmlns="http://www.w3.org/2000/svg" xmlns:xlink="http://www.w3.org/1999/xlink" x="0px" y="0px"
	 viewBox="0 0 128 128" style="enable-background:new 0 0 128 128;" xml:space="preserve">
<style type="text/css">
	.st0{fill:#5E52F7;}
	.st1{fill:#074370;}
	.st2{fill:#D4D6D6;}
	.st3{fill:#FBD000;}
	.st4{fill:#F4B10B;}
	.st5{fill:#FFFFFF;}
	.st6{opacity:0.5;fill:#FFFFFF;}
</style>
<g>
	<circle class="st0" cx="64" cy="64" r="64"/>
	<ellipse class="st1" cx="64.1" cy="99" rx="7.5" ry="4.6"/>
	<path class="st1" d="M64.1,105c-4.7,0-8.5-2.6-8.5-5.8c0-3.3,3.7-5.8,8.5-5.8c4.7,0,8.5,2.6,8.5,5.8C72.5,102.4,68.8,105,64.1,105z
		 M64.1,95.4c-3.5,0-6.5,1.7-6.5,3.7c0,2,3,3.7,6.5,3.7c3.5,0,6.5-1.7,6.5-3.7C70.5,97.2,67.6,95.4,64.1,95.4z"/>
	<ellipse class="st2" cx="64.1" cy="93.9" rx="10.1" ry="6.2"/>
	<path class="st1" d="M64,101c-6.2,0-11-3.1-11-7.2c0-4,4.8-7.1,11-7.1c6.2,0,11,3.1,11,7.1C75,97.9,70.2,101,64,101z M64.1,88.7
		c-4.9,0-9.1,2.4-9.1,5.2c0,2.8,4.2,5.2,9.1,5.2c4.9,0,9.1-2.4,9.1-5.2C73.1,91,69,88.7,64.1,88.7z"/>
	<ellipse class="st2" cx="64.1" cy="89.5" rx="10.1" ry="6.2"/>
	<path class="st1" d="M64,96.8c-6.2,0-11-3.2-11-7.2c0-4.1,4.8-7.2,11-7.2c6.2,0,11,3.2,11,7.2C75,93.6,70.2,96.8,64,96.8z
		 M64.1,84.3c-4.9,0-9.1,2.4-9.1,5.2c0,2.8,4.2,5.2,9.1,5.2c4.9,0,9.1-2.4,9.1-5.2C73.1,86.7,69,84.3,64.1,84.3z"/>
	<path class="st3" d="M88.7,54c0-13.6-11.1-25-24.7-25c-13.6,0-24.5,11.4-24.5,25c0,9.3,4.9,14.4,7.2,19c2.7,5.5,3.2,17.8,17.4,17.8
		C78.3,90.8,78.4,78,81,72.9C83.5,68.1,88.7,62.7,88.7,54z"/>
	<path class="st4" d="M63.9,78.9c-7.4,0-14-3.2-18.7-8.2c0.5,0.8,0.9,1.6,1.3,2.3c2.7,5.5,3.2,17.8,17.4,17.8
		c14.2,0,14.3-12.8,16.9-17.9c0.2-0.4,0.4-0.7,0.6-1.1C76.9,76.2,70.7,78.9,63.9,78.9z"/>
	<path class="st1" d="M64.1,92c-12,0-14.8-8.4-16.8-14.6c-0.5-1.5-0.9-2.9-1.5-3.9c-0.5-1.1-1.2-2.2-1.9-3.4
		c-2.4-3.9-5.4-8.8-5.4-16.2C38.5,39.6,50,28,64.1,28c14.1,0,25.6,11.6,25.6,25.8c0,6.9-3.1,11.9-5.6,15.9c-0.8,1.3-1.6,2.5-2.2,3.7
		c-0.5,1-1,2.5-1.4,4C78.7,83.2,76,92,64.1,92z M64,30c-13,0-23.5,10.7-23.5,23.8c0,6.8,2.7,11.3,5.1,15.2c0.8,1.2,1.5,2.4,2,3.5
		c0.6,1.2,1.1,2.7,1.6,4.2C51.1,82.7,53.5,90,64.1,90c10.4,0,12.7-7.3,14.5-13.2c0.5-1.6,1-3.1,1.5-4.3c0.6-1.2,1.4-2.5,2.3-3.8
		c2.5-4,5.3-8.5,5.3-14.8C87.7,40.7,77,30,64,30z"/>
	<path class="st1" d="M64,91c-0.6,0-1-0.4-1-1V71L50.4,58.7c-0.4-0.4-0.4-1,0-1.4c0.4-0.4,1-0.4,1.4,0l13,13C65,70.5,65,70.7,65,71
		v19C65,90.6,64.6,91,64,91z"/>
	<path class="st1" d="M65.9,69.6c-0.3,0-0.5-0.1-0.7-0.3c-0.4-0.4-0.4-1,0-1.4l8.9-8.9h-23c-0.6,0-1-0.4-1-1c0-0.6,0.4-1,1-1h25.4
		c0.4,0,0.8,0.2,0.9,0.6c0.2,0.4,0.1,0.8-0.2,1.1L66.6,69.3C66.4,69.5,66.2,69.6,65.9,69.6z"/>
	<path class="st3" d="M32,57H22c-0.5,0-1-0.4-1-1s0.4-1,1-1h10c0.5,0,1,0.4,1,1S32.6,57,32,57z"/>
	<path class="st3" d="M106,57H95.8c-0.6,0-1-0.4-1-1s0.4-1,1-1H106c0.6,0,1,0.4,1,1S106.6,57,106,57z"/>
	<path class="st3" d="M64,25c-0.6,0-1-0.4-1-1V14c0-0.5,0.4-1,1-1c0.6,0,1,0.4,1,1v10C65,24.6,64.6,25,64,25z"/>
	<path class="st3" d="M41.6,34.8c-0.3,0-0.5-0.1-0.7-0.3l-7.3-7.3c-0.4-0.4-0.4-1,0-1.4c0.4-0.4,1-0.4,1.4,0l7.3,7.3
		c0.4,0.4,0.4,1,0,1.4C42.1,34.7,41.9,34.8,41.6,34.8z"/>
	<path class="st3" d="M93.8,87c-0.3,0-0.5-0.1-0.7-0.3l-7.3-7.3c-0.4-0.4-0.4-1,0-1.4c0.4-0.4,1-0.4,1.4,0l7.3,7.3
		c0.4,0.4,0.4,1,0,1.4C94.3,86.9,94,87,93.8,87z"/>
	<path class="st3" d="M86.5,34.8c-0.3,0-0.5-0.1-0.7-0.3c-0.4-0.4-0.4-1,0-1.4l7.3-7.3c0.4-0.4,1-0.4,1.4,0c0.4,0.4,0.4,1,0,1.4
		l-7.3,7.3C87,34.7,86.7,34.8,86.5,34.8z"/>
	<path class="st3" d="M34.4,87c-0.3,0-0.5-0.1-0.7-0.3c-0.4-0.4-0.4-1,0-1.4l7.3-7.3c0.4-0.4,1-0.4,1.4,0c0.4,0.4,0.4,1,0,1.4
		l-7.3,7.3C34.9,86.9,34.6,87,34.4,87z"/>
	<path class="st5" d="M44,55.1L44,55.1c-0.5,0-1-0.4-1-1c0-9.6,6.6-17.9,16-20.2c0.5-0.1,1,0.2,1.2,0.7c0.1,0.5-0.2,1-0.7,1.2
		c-8.6,2.1-14.5,9.6-14.5,18.3C44.9,54.7,44.5,55.1,44,55.1z"/>
	<path class="st5" d="M72.9,36.5c-0.1,0-0.3,0-0.4-0.1c-2.6-1.1-5.4-1.7-8.4-1.7c-0.6,0-1-0.4-1-0.9c0-0.5,0.4-0.9,1-0.9
		c3.2,0,6.3,0.6,9.2,1.8c0.5,0.2,0.7,0.7,0.5,1.2C73.6,36.3,73.3,36.5,72.9,36.5z"/>
	<path class="st5" d="M83.9,55.1c-0.6,0-1.1-0.4-1.1-1c0-3.4-0.9-6.7-2.7-9.7c-0.3-0.5-0.1-1.1,0.4-1.4c0.5-0.3,1.2-0.1,1.5,0.4
		c2,3.2,3,6.9,3,10.6C85,54.7,84.5,55.1,83.9,55.1z"/>
	<path class="st6" d="M16,86.1c-2.2,0-4-1.8-4-4c0-2.2,1.8-4,4-4c2.2,0,4,1.8,4,4C20,84.3,18.2,86.1,16,86.1z M16,79.9
		c-1.2,0-2.1,1-2.1,2.1c0,1.2,1,2.1,2.1,2.1c1.2,0,2.1-1,2.1-2.1C18.1,80.9,17.2,79.9,16,79.9z"/>
	<path class="st6" d="M103.9,45c-2.2-0.1-4-1.9-3.9-4.1c0.1-2.2,1.9-4,4.1-3.9c2.2,0.1,4,1.9,3.9,4.1
		C107.9,43.3,106.1,45.1,103.9,45z M104,38.9c-1.2,0-2.2,0.9-2.2,2.1c0,1.2,0.9,2.1,2.1,2.2c1.2,0,2.2-0.9,2.2-2.1
		C106.1,39.9,105.2,38.9,104,38.9z"/>
	<path class="st6" d="M87,112c-2.2,0-4-1.8-4-4c0-2.2,1.8-4,4-4s4,1.8,4,4C91,110.2,89.2,112,87,112z M87,105.9
		c-1.2,0-2.1,1-2.1,2.1c0,1.2,1,2.1,2.1,2.1s2.1-1,2.1-2.1C89.1,106.8,88.2,105.9,87,105.9z"/>
	<path class="st6" d="M114.3,73.2c0-0.4-0.4-0.8-1-0.9l-1.9-0.3c-0.5-0.1-1.1-0.6-1.1-1.1L110,69c-0.1-0.5-0.5-1-0.9-1
		s-0.8,0.4-0.9,1l-0.3,1.9c-0.1,0.5-0.6,1.1-1.1,1.1l-1.9,0.3c-0.5,0.1-1,0.5-1,0.9c0,0.4,0.4,0.8,1,0.9l1.9,0.3
		c0.5,0.1,1.1,0.6,1.1,1.1l0.3,1.9c0.1,0.5,0.5,1,0.9,1s0.8-0.4,0.9-1l0.3-2.1c0.1-0.5,0.6-1,1.1-1.1l1.8-0.1
		C113.9,73.9,114.3,73.6,114.3,73.2z"/>
	<path class="st6" d="M29.2,35.6c0-0.4-0.4-0.8-1-0.9l-1.9-0.3c-0.5-0.1-1.1-0.6-1.1-1.1L25,31.5c-0.1-0.5-0.5-1-0.9-1
		c-0.4,0-0.8,0.4-0.9,1L23,33.3c-0.1,0.5-0.6,1.1-1.1,1.1L20,34.8c-0.5,0.1-1,0.5-1,0.9c0,0.4,0.4,0.8,1,0.9l1.9,0.3
		c0.5,0.1,1.1,0.6,1.1,1.1l0.3,1.9c0.1,0.5,0.5,1,0.9,1c0.4,0,0.8-0.4,0.9-1l0.3-2.1c0.1-0.5,0.6-1,1.1-1.1l1.8-0.1
		C28.8,36.4,29.2,36,29.2,35.6z"/>
	<path class="st6" d="M43.4,105.9c0-0.4-0.4-0.8-1-0.9l-1.9-0.3c-0.5-0.1-1.1-0.6-1.1-1.1l-0.3-1.9c-0.1-0.5-0.5-1-0.9-1
		c-0.4,0-0.8,0.4-0.9,1l-0.3,1.9c-0.1,0.5-0.6,1.1-1.1,1.1l-1.9,0.3c-0.5,0.1-1,0.5-1,0.9c0,0.4,0.4,0.8,1,0.9L36,107
		c0.5,0.1,1.1,0.6,1.1,1.1l0.3,1.9c0.1,0.5,0.5,1,0.9,1c0.4,0,0.8-0.4,0.9-1l0.3-2.1c0.1-0.5,0.6-1,1.1-1.1l1.8-0.1
		C43,106.6,43.4,106.3,43.4,105.9z"/>
</g>
</svg>
