<?xml version="1.0" encoding="utf-8"?>
<!-- Generator: Adobe Illustrator 21.0.2, SVG Export Plug-In . SVG Version: 6.00 Build 0)  -->
<svg version="1.1" id="Layer_1" xmlns="http://www.w3.org/2000/svg" xmlns:xlink="http://www.w3.org/1999/xlink" x="0px" y="0px"
	 viewBox="0 0 128 128" style="enable-background:new 0 0 128 128;" xml:space="preserve">
<style type="text/css">
	.st0{fill:#75B600;}
	.st1{opacity:0.5;fill:#FFFFFF;}
	.st2{fill:#F99900;}
	.st3{fill:#AD5114;}
	.st4{fill:#C6750A;}
	.st5{fill:#663210;}
	.st6{fill:#FBD000;}
	.st7{fill:#FFFFFF;}
</style>
<g>
	<circle class="st0" cx="64" cy="64" r="64"/>
	<path class="st1" d="M20,88c-2.2,0-4-1.8-4-4c0-2.2,1.8-4,4-4c2.2,0,4,1.8,4,4C24,86.2,22.2,88,20,88z M20,81.9
		c-1.2,0-2.1,1-2.1,2.1c0,1.2,1,2.1,2.1,2.1c1.2,0,2.1-1,2.1-2.1C22.1,82.8,21.2,81.9,20,81.9z"/>
	<path class="st1" d="M106,42c-2.2,0-4-1.8-4-4c0-2.2,1.8-4,4-4c2.2,0,4,1.8,4,4C110,40.2,108.2,42,106,42z M106,35.9
		c-1.2,0-2.1,1-2.1,2.1c0,1.2,1,2.1,2.1,2.1c1.2,0,2.1-1,2.1-2.1C108.1,36.8,107.2,35.9,106,35.9z"/>
	<path class="st1" d="M115,65.1c-2.2,0-4-1.8-4-4c0-2.2,1.8-4,4-4c2.2,0,4,1.8,4,4C119,63.3,117.2,65.1,115,65.1z M115,58.9
		c-1.2,0-2.1,1-2.1,2.1c0,1.2,1,2.1,2.1,2.1c1.2,0,2.1-1,2.1-2.1C117.1,59.9,116.2,58.9,115,58.9z"/>
	<path class="st1" d="M113.9,84.5c0-0.4-0.4-0.8-1-0.9l-1.9-0.3c-0.5-0.1-1.1-0.6-1.1-1.1l-0.3-1.9c-0.1-0.5-0.5-1-0.9-1
		c-0.4,0-0.8,0.4-0.9,1l-0.3,1.9c-0.1,0.5-0.6,1.1-1.1,1.1l-1.9,0.3c-0.5,0.1-1,0.5-1,0.9s0.4,0.8,1,0.9l1.9,0.3
		c0.5,0.1,1.1,0.6,1.1,1.1l0.3,1.9c0.1,0.5,0.5,1,0.9,1c0.4,0,0.8-0.4,0.9-1l0.3-2.1c0.1-0.5,0.6-1,1.1-1.1l1.8-0.1
		C113.4,85.2,113.9,84.9,113.9,84.5z"/>
	<path class="st1" d="M19.3,62.2c0-0.4-0.4-0.8-1-0.9l-1.9-0.3c-0.5-0.1-1.1-0.6-1.1-1.1L15,58.1c-0.1-0.5-0.5-1-0.9-1
		c-0.4,0-0.8,0.4-0.9,1L13,60c-0.1,0.5-0.6,1.1-1.1,1.1L10,61.4c-0.5,0.1-1,0.5-1,0.9c0,0.4,0.4,0.8,1,0.9l1.9,0.3
		c0.5,0.1,1.1,0.6,1.1,1.1l0.3,1.9c0.1,0.5,0.5,1,0.9,1c0.4,0,0.8-0.4,0.9-1l0.3-2.1c0.1-0.5,0.6-1,1.1-1.1l1.8-0.1
		C18.8,63,19.3,62.6,19.3,62.2z"/>
	<rect x="37.4" y="20.7" class="st2" width="36.2" height="83"/>
	<rect x="32.4" y="15.7" class="st2" width="46.2" height="93"/>
	<polygon class="st3" points="97.4,108.7 78.6,108.7 78.6,16 97.4,15.7 	"/>
	<rect x="37" y="63" class="st4" width="36" height="10"/>
	<path class="st5" d="M72.6,43H38.4c-0.6,0-1-0.4-1-1s0.4-1,1-1h34.2c0.6,0,1,0.4,1,1S73.1,43,72.6,43z"/>
	<path class="st5" d="M72.6,64H37c-0.6,0-1-0.4-1-1s0.4-1,1-1h35.6c0.6,0,1,0.4,1,1S73.1,64,72.6,64z"/>
	<path class="st5" d="M73,105H37c-0.6,0-1-0.4-1-1V22c0-0.6,0.4-1,1-1h36c0.6,0,1,0.4,1,1v82C74,104.6,73.6,105,73,105z M38,103h34
		V23H38V103z"/>
	<path class="st5" d="M78,110H32c-0.6,0-1-0.4-1-1V16c0-0.6,0.4-1,1-1h46c0.6,0,1,0.4,1,1v93C79,109.6,78.6,110,78,110z M33,108h44
		V17H33V108z"/>
	<path class="st5" d="M72.6,85H38.4c-0.6,0-1-0.4-1-1s0.4-1,1-1h34.2c0.6,0,1,0.4,1,1S73.1,85,72.6,85z"/>
	<polygon class="st6" points="64.2,63 28,63 28.6,42 64.2,42 	"/>
	<line class="st7" x1="65.6" y1="51" x2="73" y2="51"/>
	<path class="st5" d="M73,52h-7.4c-0.6,0-1-0.4-1-1s0.4-1,1-1H73c0.6,0,1,0.4,1,1S73.6,52,73,52z"/>
	<polygon class="st3" points="44.4,112.7 37.4,112.7 38,108.7 44.4,108.7 	"/>
	<rect x="66.6" y="108.7" class="st3" width="7" height="4"/>
	<rect x="65.1" y="42" class="st5" width="8" height="8.1"/>
	<rect x="56.6" y="108.7" class="st3" width="7" height="4"/>
	<polygon class="st3" points="94.4,112.7 88,112.7 87.4,108.7 94.4,108.7 	"/>
	<path class="st5" d="M97,110H78c-0.6,0-1-0.4-1-1V16c0-0.6,0.4-1,1-1h19c0.6,0,1,0.4,1,1v93C98,109.6,97.6,110,97,110z M79,108h17
		V17H79V108z"/>
	<path class="st5" d="M65,64H28c-0.6,0-1-0.4-1-1V42c0-0.6,0.4-1,1-1h37c0.6,0,1,0.4,1,1v21C66,63.6,65.6,64,65,64z M29,62h35V43H29
		V62z"/>
	<path class="st5" d="M44,114h-7c-0.6,0-1-0.4-1-1v-4c0-0.6,0.4-1,1-1h7c0.6,0,1,0.4,1,1v4C45,113.6,44.6,114,44,114z M38,112h5v-2
		h-5V112z"/>
	<path class="st5" d="M74,114h-7c-0.6,0-1-0.4-1-1v-4c0-0.6,0.4-1,1-1h7c0.6,0,1,0.4,1,1v4C75,113.6,74.6,114,74,114z M68,112h5v-2
		h-5V112z"/>
	<path class="st5" d="M63,114h-7c-0.6,0-1-0.4-1-1v-4c0-0.6,0.4-1,1-1h7c0.6,0,1,0.4,1,1v4C64,113.6,63.6,114,63,114z M57,112h5v-2
		h-5V112z"/>
	<path class="st5" d="M95,114h-7c-0.6,0-1-0.4-1-1v-4c0-0.6,0.4-1,1-1h7c0.6,0,1,0.4,1,1v4C96,113.6,95.6,114,95,114z M89,112h5v-2
		h-5V112z"/>
	<ellipse class="st5" cx="55.5" cy="26.4" rx="1.5" ry="1.4"/>
	<circle class="st5" cx="55.5" cy="68.5" r="1.5"/>
	<circle class="st5" cx="55.5" cy="88.5" r="1.5"/>
	<circle class="st5" cx="46.5" cy="46.5" r="1.5"/>
	<path class="st5" d="M99,114H28.3c-0.6,0-1-0.4-1-1s0.4-1,1-1H99c0.6,0,1,0.4,1,1S99.6,114,99,114z"/>
	<path class="st1" d="M61,60c-0.6,0-1-0.4-1-1V47h-9c-0.6,0-1-0.4-1-1s0.4-1,1-1h10c0.6,0,1,0.4,1,1v13C62,59.6,61.6,60,61,60z"/>
	<path class="st1" d="M41.5,47h-9.7c-0.6,0-1-0.4-1-1s0.4-1,1-1h9.7c0.6,0,1,0.4,1,1S42.1,47,41.5,47z"/>
	<path class="st1" d="M69,38.4c-0.6,0-1-0.4-1-1V24.8c0-0.6,0.4-1,1-1s1,0.4,1,1v12.6C70,37.9,69.6,38.4,69,38.4z"/>
	<path class="st1" d="M69,80.1c-0.6,0-1-0.4-1-1v-3.4c0-0.6,0.4-1,1-1s1,0.4,1,1v3.4C70,79.7,69.6,80.1,69,80.1z"/>
	<path class="st1" d="M69,100.5c-0.6,0-1-0.4-1-1v-3.8c0-0.6,0.4-1,1-1s1,0.4,1,1v3.8C70,100.1,69.6,100.5,69,100.5z"/>
	<path class="st1" d="M69,93.4c-0.6,0-1-0.4-1-1V87c0-0.6,0.4-1,1-1s1,0.4,1,1v5.4C70,92.9,69.6,93.4,69,93.4z"/>
	<path class="st1" d="M72.6,20h-5.1c-0.6,0-1-0.4-1-1s0.4-1,1-1h5.1c0.6,0,1,0.4,1,1S73.1,20,72.6,20z"/>
	<path class="st1" d="M63.7,20H37.6c-0.6,0-1-0.4-1-1s0.4-1,1-1h26.1c0.6,0,1,0.4,1,1S64.3,20,63.7,20z"/>
</g>
</svg>
