<?xml version="1.0" encoding="utf-8"?>
<!-- Generator: Adobe Illustrator 21.0.2, SVG Export Plug-In . SVG Version: 6.00 Build 0)  -->
<svg version="1.1" id="archive" xmlns="http://www.w3.org/2000/svg" xmlns:xlink="http://www.w3.org/1999/xlink" x="0px" y="0px"
	 viewBox="0 0 128 128" style="enable-background:new 0 0 128 128;" xml:space="preserve">
<style type="text/css">
	.st0{fill:#FC8BA4;}
	.st1{fill:#FBD000;}
	.st2{fill:#FFFFFF;}
	.st3{fill:#EAAD53;}
	.st4{fill:#7C4119;}
	.st5{opacity:0.5;fill:#FFFFFF;}
	.st6{fill:#EAEAEA;}
	.st7{fill:#D4D6D6;}
	.st8{fill:#9E928A;}
	.st9{fill:#D89041;}
</style>
<g>
	<circle class="st0" cx="64" cy="64" r="64"/>
	<path class="st1" d="M83.5,24.5c-1.1,0-2,0.9-2,2v1.2c0,1.1-0.9,2-2,2H56.7c-1.1,0-2,0.9-2,2v25c0,1.1,0.9,2,2,2h46
		c1.1,0,2-0.9,2-2v-9.5c0-1.1,0-2.9,0-4V31.7c0-1.1,0-2.9,0-4v-1.2c0-1.1-0.9-2-2-2H83.5z"/>
	<path class="st2" d="M100.2,32H87.5c-1.1,0-2-0.9-2-2s0.9-2,2-2h12.7c1.1,0,2,0.9,2,2S101.3,32,100.2,32z"/>
	<polygon class="st3" points="98,46 98,24.1 94.2,24.1 94,52 104.8,52 104.8,46 	"/>
	<path class="st4" d="M103,59.7H56.7c-1.7,0-3-1.3-3-3v-25c0-1.7,1.3-3,3-3h22.9c0.6,0,1-0.4,1-1V27c0-1.7,1.3-3,3-3H103
		c1.7,0,3,1.3,3,3v29.7C106,58.3,104.7,59.7,103,59.7z M56.7,30.7c-0.6,0-1,0.4-1,1v25c0,0.6,0.4,1,1,1H103c0.6,0,1-0.4,1-1V27
		c0-0.6-0.4-1-1-1H83.5c-0.6,0-1,0.4-1,1v0.7c0,1.7-1.3,3-3,3H56.7z"/>
	<path class="st1" d="M73.2,24.5c-1.1,0-2,0.9-2,2v1.2c0,1.1-0.9,2-2,2H46.3c-1.1,0-2,0.9-2,2v25c0,1.1,0.9,2,2,2h46
		c1.1,0,2-0.9,2-2V26.5c0-1.1-0.9-2-2-2H73.2z"/>
	<path class="st2" d="M89.5,32H76.9c-1.1,0-2-0.9-2-2s0.9-2,2-2h12.7c1.1,0,2,0.9,2,2S90.6,32,89.5,32z"/>
	<polygon class="st3" points="88,46 88,24.6 84.1,24.6 84.2,52.5 94.3,52.5 94.3,46 	"/>
	<path class="st4" d="M92,59.7H46.3c-1.7,0-3-1.3-3-3V32c0-1.7,1.3-3,3-3h22.9c0.6,0,1-0.4,1-1v-1c0-1.7,1.3-3,3-3H92
		c1.7,0,3,1.3,3,3v29.7C95,58.3,93.7,59.7,92,59.7z M46.3,31c-0.6,0-1,0.4-1,1v24.7c0,0.6,0.4,1,1,1H92c0.6,0,1-0.4,1-1V27
		c0-0.6-0.4-1-1-1H73.2c-0.6,0-1,0.4-1,1v1c0,1.7-1.3,3-3,3H46.3z"/>
	<path class="st1" d="M64,24.5c-1.1,0-2.2,0.9-2.4,2L61.4,28c-0.2,1.1-1.3,2-2.4,2H36.1c-1.1,0-2,0.9-2,2v24.7c0,1.1,0.9,2,2,2h46
		c1.1,0,2-0.9,2-2v-9.5c0-1.1,0-2.9,0-4V31.7c0-1.1,0-2.9,0-4v-1.2c0-1.1-0.9-2-2-2H64z"/>
	<path class="st2" d="M79.4,32H66.7c-1.1,0-2-0.9-2-2s0.9-2,2-2h12.7c1.1,0,2,0.9,2,2S80.5,32,79.4,32z"/>
	<polygon class="st3" points="78,46 78,24.6 74,24.6 74,52.5 84.6,52.5 84.6,46 	"/>
	<path class="st4" d="M82,60H36c-1.7,0-3-1.3-3-3V32c0-1.7,1.3-2,3-2l22.9-1c0.6,0,1-0.4,1-1v-1c0-1.7,1.3-3,3-3H82c1.7,0,3,1.3,3,3
		v30C85,58.7,83.7,60,82,60z M36,31c-0.6,0-1,0.4-1,1v25c0,0.6,0.4,1,1,1h46c0.6,0,1-0.4,1-1V27c0-0.6-0.4-1-1-1H62.9
		c-0.6,0-1,0.4-1,1v1c0,1.7-1.3,3-3,3H36z"/>
	<path class="st1" d="M52.9,25c-1.1,0-2,0.9-2,2v1c0,1.1-0.9,2-2,2H26c-1.1,0-2,0.9-2,2v24.7c0,1.1,0.9,2,2,2h46c1.1,0,2-0.9,2-2
		v-9.5c0-1.1,0-2.9,0-4V31.7c0-1.1,0-2.9,0-4v-1.2c0-1.1-0.9-2-2-2L52.9,25z"/>
	<rect x="24.2" y="46" class="st3" width="49.5" height="6.5"/>
	<path class="st4" d="M72,59.7H26c-1.7,0-3-1.3-3-3V32c0-1.7,1.3-3,3-3h22c0.7,0,1.6-0.6,1.8-1.2l0.5-1.3c0.6-1.4,2.2-2.5,3.7-2.5
		h18c1.7,0,3,1.3,3,3v29.7C75,58.3,73.7,59.7,72,59.7z M26,31c-0.6,0-1,0.4-1,1v24.7c0,0.6,0.4,1,1,1h46c0.6,0,1-0.4,1-1V27
		c0-0.6-0.4-1-1-1H54c-0.7,0-1.6,0.6-1.8,1.2l-0.5,1.3C51.2,29.9,49.5,31,48,31H26z"/>
	<path class="st5" d="M9.5,62C7.6,62,6,60.4,6,58.5C6,56.5,7.6,55,9.5,55c1.9,0,3.5,1.6,3.5,3.5C13,60.4,11.4,62,9.5,62z M9.5,56.6
		c-1,0-1.9,0.8-1.9,1.9c0,1,0.8,1.9,1.9,1.9c1,0,1.9-0.8,1.9-1.9C11.4,57.4,10.5,56.6,9.5,56.6z"/>
	<path class="st5" d="M67.1,13.9c-2.2,0-3.9-1.8-3.9-3.9c0-2.2,1.8-3.9,3.9-3.9S71,7.8,71,9.9C71,12.1,69.2,13.9,67.1,13.9z
		 M67.1,7.8c-1.2,0-2.1,0.9-2.1,2.1c0,1.2,0.9,2.1,2.1,2.1s2.1-0.9,2.1-2.1C69.2,8.8,68.2,7.8,67.1,7.8z"/>
	<path class="st5" d="M46.3,18.3c0-0.4-0.4-0.8-1-0.9l-1.9-0.3c-0.5-0.1-1.1-0.6-1.1-1.1L42,14.1c-0.1-0.5-0.5-1-0.9-1
		c-0.4,0-0.8,0.4-0.9,1L40,16c-0.1,0.5-0.6,1.1-1.1,1.1L37,17.4c-0.5,0.1-1,0.5-1,0.9s0.4,0.8,1,0.9l1.9,0.3
		c0.5,0.1,1.1,0.6,1.1,1.1l0.3,1.9c0.1,0.5,0.5,1,0.9,1c0.4,0,0.8-0.4,0.9-1l0.3-2.1c0.1-0.5,0.6-1,1.1-1.1l1.8-0.1
		C45.9,19,46.3,18.6,46.3,18.3z"/>
	<path class="st5" d="M120.6,46.1c0-0.4-0.4-0.8-1-0.9l-1.9-0.3c-0.5-0.1-1.1-0.6-1.1-1.1l-0.3-1.9c-0.1-0.5-0.5-1-0.9-1
		c-0.4,0-0.8,0.4-0.9,1l-0.3,1.9c-0.1,0.5-0.6,1.1-1.1,1.1l-1.9,0.3c-0.5,0.1-1,0.5-1,0.9c0,0.4,0.4,0.8,1,0.9l1.9,0.3
		c0.5,0.1,1.1,0.6,1.1,1.1l0.3,1.9c0.1,0.5,0.5,1,0.9,1c0.4,0,0.8-0.4,0.9-1l0.3-2.1c0.1-0.5,0.6-1,1.1-1.1l1.8-0.1
		C120.2,46.8,120.6,46.4,120.6,46.1z"/>
	<path class="st6" d="M17.7,61c0-4.4,3.6-8,8-8H82v60H25.7c-4.4,0-8-3.6-8-8V61z"/>
	<path class="st7" d="M82,53h20c4.4,0,8,3.6,8,8v44c0,4.4-3.6,8-8,8H82L82,53z"/>
	<path class="st2" d="M69,84c0,2.2-1.8,4-4,4H35c-2.2,0-4-1.8-4-4v-6c0-2.2,1.8-4,4-4h30c2.2,0,4,1.8,4,4V84z"/>
	<path class="st8" d="M53.8,80H35c-0.6,0-1-0.4-1-1s0.4-1,1-1h18.8c0.6,0,1,0.4,1,1S54.3,80,53.8,80z"/>
	<path class="st8" d="M64.5,80H58c-0.6,0-1-0.4-1-1s0.4-1,1-1h6.5c0.6,0,1,0.4,1,1S65,80,64.5,80z"/>
	<path class="st8" d="M46.9,85H35c-0.6,0-1-0.4-1-1s0.4-1,1-1h11.9c0.6,0,1,0.4,1,1S47.5,85,46.9,85z"/>
	<path class="st8" d="M60.6,85h-9.7c-0.6,0-1-0.4-1-1s0.4-1,1-1h9.7c0.6,0,1,0.4,1,1S61.2,85,60.6,85z"/>
	<path class="st7" d="M74,101H25.5c-4.4,0-8-4.3-8-8.7v12.3c0,4.4,3.6,8,8,8H82l0-20.3C82,96.7,78.4,101,74,101z"/>
	<path class="st4" d="M82,114H25.6c-4.9,0-8.6-4-8.6-9V61c0-5,3.8-9,8.6-9H82c0.6,0,1,0.4,1,1v60C83,113.6,82.6,114,82,114z
		 M25.6,54c-3.7,0-6.7,3.1-6.7,7l0,44c0,3.9,2.9,7,6.6,7H81V54H25.6z"/>
	<path class="st3" d="M59.7,64.1c0,1.5-1.3,2.8-3,2.8H43.1c-1.7,0-3-1.2-3-2.8c0-1.5,1.3-2.8,3-2.8h13.7
		C58.4,61.3,59.7,62.6,59.7,64.1z"/>
	<path class="st9" d="M43.1,63.5h13.7c1.2,0,2.3,0.7,2.8,1.7c0.2-0.3,0.2-0.7,0.2-1.1c0-1.5-1.3-2.8-3-2.8H43.1c-1.7,0-3,1.2-3,2.8
		c0,0.4,0.1,0.8,0.2,1.1C40.8,64.2,41.8,63.5,43.1,63.5z"/>
	<path class="st4" d="M57,68H43c-2.2,0-4-1.8-4-4c0-2.2,1.8-4,4-4h14c2.2,0,4,1.8,4,4C61,66.2,59.2,68,57,68z M43,62
		c-1.1,0-2,0.9-2,2c0,1.1,0.9,2,2,2h14c1.1,0,2-0.9,2-2c0-1.1-0.9-2-2-2H43z"/>
	<path class="st2" d="M68.5,32H55.9c-1.1,0-2-0.9-2-2s0.9-2,2-2h12.7c1.1,0,2,0.9,2,2S69.6,32,68.5,32z"/>
	<path class="st2" d="M102.5,109.8c-0.4,0-0.8-0.2-0.9-0.6c-0.2-0.5,0.1-1.1,0.6-1.3c1.2-0.5,2.8-1.5,2.8-5.5V75.2c0-0.6,0.4-1,1-1
		c0.6,0,1,0.4,1,1v27.2c0,3.8-1.4,6.3-4.1,7.3C102.8,109.8,102.6,109.8,102.5,109.8z"/>
	<path class="st2" d="M106,69.3c-0.6,0-1-0.4-1-1v-9c0-0.6,0.4-1,1-1c0.6,0,1,0.4,1,1v9C107,68.9,106.6,69.3,106,69.3z"/>
	<path class="st2" d="M77,92.3c-0.6,0-1-0.4-1-1V65.1c0-3.9-3.1-7.1-7-7.1H50c-0.6,0-1-0.3-1-0.9c0-0.6,0.4-1,1-1h19c5,0,9,4,9,9
		v26.2C78,91.8,77.6,92.3,77,92.3z"/>
	<path class="st2" d="M43.2,58H33c-0.6,0-1-0.3-1-0.9c0-0.6,0.4-1,1-1h10.2c0.6,0,1,0.4,1,1C44.2,57.7,43.7,58,43.2,58z"/>
	<path class="st2" d="M47.2,35H27.9c-0.6,0-1-0.4-1-1s0.4-1,1-1h19.3c0.6,0,1,0.4,1,1S47.8,35,47.2,35z"/>
	<path class="st4" d="M116,114H12c-0.6,0-1-0.4-1-1s0.5-1,1-1h104c0.6,0,1,0.4,1,1S116.5,114,116,114z"/>
	<path class="st4" d="M102.1,114H82c-0.3,0-0.5-0.1-0.7-0.3S81,113.3,81,113l0-60c0-0.6,0.4-1,1-1h20c5,0,8.9,4,8.9,9v44
		C111,110,107,114,102.1,114z M83,112h19.1c3.9,0,7-3.1,7-7V61c0-3.9-3.1-7-7-7H83V112z"/>
</g>
</svg>
