<?xml version="1.0" encoding="utf-8"?>
<!-- Generator: Adobe Illustrator 21.0.2, SVG Export Plug-In . SVG Version: 6.00 Build 0)  -->
<svg version="1.1" id="book" xmlns="http://www.w3.org/2000/svg" xmlns:xlink="http://www.w3.org/1999/xlink" x="0px" y="0px"
	 viewBox="0 0 128 128" style="enable-background:new 0 0 128 128;" xml:space="preserve">
<style type="text/css">
	.st0{fill:#75B600;}
	.st1{fill:#628C07;}
	.st2{fill:#F74541;}
	.st3{fill:#E8372E;}
	.st4{fill:#A03513;}
	.st5{fill:#EAEAEA;}
	.st6{fill:#D4D6D6;}
	.st7{opacity:0.5;fill:#FFFFFF;}
	.st8{fill:#FFFFFF;}
</style>
<g>
	<circle class="st0" cx="64" cy="64" r="64"/>
	<path class="st1" d="M95,98l-1-68c0-2.8-2.2-5-5-5H34c-2.8,0-5,2.2-5,5c0,0,0,72.5,0.1,72.8c0.4,2.4,2.4,4.2,4.9,4.2h9v4l6-3l6,3
		v-4h44L95,98z"/>
	<path class="st2" d="M98.8,92c0,0-56,0-60,0s-5,3-5,3v-8V27c0-2.8,2.2-5,5-5h55c2.8,0,5,2.2,5,5V92z"/>
	<path class="st3" d="M39.8,22h-1c-2.8,0-5,2.2-5,5v60v8c0,0,1-3,5-3c0.2,0,0.6,0,1,0V22z"/>
	<path class="st4" d="M34,97c-0.1,0-0.1,0-0.2,0c-0.5-0.1-0.8-0.5-0.8-1V27c0-3.4,2.5-6,5.8-6h55c3.4,0,6.2,2.7,6.2,6v65
		c0,0.6-0.4,1-1,1H40.8c-4.3,0-5.9,3.4-5.9,3.4C34.7,96.8,34.4,97,34,97z M38.8,23c-2.1,0-3.8,1.8-3.8,4v66.1
		c1.2-1.1,3.1-2.1,5.8-2.1H98V27c0-2.1-2-4-4.2-4H38.8z"/>
	<path class="st5" d="M98.8,92h-60c-2.8,0-5,2.2-5,5v2c0,2.8,2.2,5,5,5h60c0,0-3-2-3-6S98.8,92,98.8,92z"/>
	<path class="st6" d="M38.8,97h57.1c0.4-3.3,2.9-5,2.9-5h-60c-2.8,0-5,2.2-5,5v2c0,0.5,0.1,1,0.3,1.5C34.7,98.5,36.6,97,38.8,97z"/>
	<path class="st4" d="M99,105H38.8c-3.3,0-5.8-2.6-5.8-6v-2c0-3.4,2.6-6,5.8-6H99c0.4,0,0.8,0.3,1,0.7c0.1,0.4,0,0.9-0.4,1.1
		C99.5,92.9,97,94.6,97,98s2.5,5.1,2.6,5.2c0.4,0.2,0.5,0.7,0.4,1.1C99.8,104.7,99.4,105,99,105z M38.8,93c-2.1,0-3.8,1.8-3.8,4v2
		c0,2.2,1.7,4,3.8,4h57.8c-0.8-1.1-1.6-2.8-1.6-5s0.8-3.9,1.6-5H38.8z"/>
	<path class="st4" d="M90,99H40c-0.6,0-1-0.4-1-1s0.5-1,1-1h50c0.6,0,1,0.4,1,1S90.5,99,90,99z"/>
	<polygon class="st2" points="59.8,108 53.8,105 47.8,108 47.8,98 59.8,98 	"/>
	<path class="st4" d="M48,109c-0.2,0-0.4,0-0.5-0.1c-0.3-0.2-0.5-0.5-0.5-0.9V98c0-0.6,0.4-1,1-1h12c0.6,0,1,0.4,1,1v10
		c0,0.3-0.2,0.7-0.5,0.8c-0.3,0.2-0.7,0.2-1,0.1l-5.8-2.8l-5.3,2.8C48.3,109,48.2,109,48,109z M53.8,104c0.1,0,0.3,0,0.4,0.1
		l4.8,2.3V99H49v7.4l4.3-2.2C53.5,104,53.6,104,53.8,104z"/>
	<path class="st7" d="M94,64c0-0.5-0.4-1-1-1c-0.6,0-1,0.4-1,1v10c0,0.6,0.4,1,1,1c0.5,0,1-0.4,1-1l0,0v0L94,64L94,64L94,64z"/>
	<path class="st7" d="M93,58c-0.6,0-1-0.4-1-1V32.5c0-2.2-0.2-3.5-3.5-3.5H60c-0.6,0-1-0.4-1-1s0.4-1,1-1h28.5
		c4.8,0,5.5,2.8,5.5,5.5V57C94,57.6,93.6,58,93,58z"/>
	<path class="st7" d="M53.9,29h-5.9c-0.6,0-1.1-0.4-1.1-1s0.5-1,1.1-1h5.9c0.6,0,1.1,0.4,1.1,1S54.5,29,53.9,29z"/>
	<path class="st8" d="M63,49H52c-0.6,0-1-0.4-1-1s0.4-1,1-1h11c0.6,0,1,0.4,1,1S63.6,49,63,49z"/>
	<path class="st8" d="M79,49H67.8c-0.6,0-1-0.4-1-1s0.5-1,1-1H79c0.6,0,1,0.4,1,1S79.5,49,79,49z"/>
	<path class="st8" d="M69,55H52c-0.6,0-1-0.4-1-1s0.4-1,1-1h17c0.6,0,1,0.4,1,1S69.6,55,69,55z"/>
	<path class="st7" d="M69,15c-2.2,0-4-1.8-4-4c0-2.2,1.8-4,4-4c2.2,0,4,1.8,4,4C73,13.2,71.2,15,69,15z M69,8.9
		c-1.2,0-2.1,1-2.1,2.1c0,1.2,1,2.1,2.1,2.1c1.2,0,2.1-1,2.1-2.1C71.1,9.8,70.2,8.9,69,8.9z"/>
	<path class="st7" d="M110.5,83c-1.9,0-3.5-1.6-3.5-3.5c0-1.9,1.6-3.5,3.5-3.5s3.5,1.6,3.5,3.5C114,81.4,112.4,83,110.5,83z
		 M110.5,77.6c-1,0-1.9,0.8-1.9,1.9c0,1,0.8,1.9,1.9,1.9c1,0,1.9-0.8,1.9-1.9C112.4,78.5,111.5,77.6,110.5,77.6z"/>
	<path class="st7" d="M22,56.9c0-0.4-0.4-0.8-1-0.9l-1.9-0.3c-0.5-0.1-1.1-0.6-1.1-1.1l-0.3-1.9c-0.1-0.5-0.5-1-0.9-1
		s-0.8,0.4-0.9,1l-0.3,1.9c-0.1,0.5-0.6,1.1-1.1,1.1L12.8,56c-0.5,0.1-1,0.5-1,0.9c0,0.4,0.4,0.8,1,0.9l1.9,0.3
		c0.5,0.1,1.1,0.6,1.1,1.1l0.3,1.9c0.1,0.5,0.5,1,0.9,1s0.8-0.4,0.9-1l0.3-2.1c0.1-0.5,0.6-1,1.1-1.1l1.8-0.1
		C21.6,57.6,22,57.3,22,56.9z"/>
	<path class="st7" d="M118,55.2c0-0.4-0.4-0.8-1-0.9l-1.9-0.3c-0.5-0.1-1.1-0.6-1.1-1.1l-0.3-1.9c-0.1-0.5-0.5-1-0.9-1
		s-0.8,0.4-0.9,1l-0.3,1.9c-0.1,0.5-0.6,1.1-1.1,1.1l-1.9,0.3c-0.5,0.1-1,0.5-1,0.9c0,0.4,0.4,0.8,1,0.9l1.9,0.3
		c0.5,0.1,1.1,0.6,1.1,1.1l0.3,1.9c0.1,0.5,0.5,1,0.9,1s0.8-0.4,0.9-1l0.3-2.1c0.1-0.5,0.6-1,1.1-1.1l1.8-0.1
		C117.6,55.9,118,55.5,118,55.2z"/>
</g>
</svg>
