<?xml version="1.0" encoding="utf-8"?>
<!-- Generator: Adobe Illustrator 21.0.2, SVG Export Plug-In . SVG Version: 6.00 Build 0)  -->
<svg version="1.1" id="console" xmlns="http://www.w3.org/2000/svg" xmlns:xlink="http://www.w3.org/1999/xlink" x="0px" y="0px"
	 viewBox="0 0 128 128" style="enable-background:new 0 0 128 128;" xml:space="preserve">
<style type="text/css">
	.st0{fill:#FBD000;}
	.st1{fill:#FFFFFF;}
	.st2{fill:#415E6D;}
	.st3{fill:#EAEAEA;}
	.st4{fill:#233E49;}
	.st5{fill:#D4D6D6;}
	.st6{fill:#2EBC93;}
	.st7{fill:#0EB8E0;}
	.st8{fill:#EA5E5E;}
	.st9{fill:#92C438;}
	.st10{fill:#F74541;}
</style>
<g>
	<circle class="st0" cx="64" cy="64" r="64"/>
	<path class="st0" d="M118,29.7c0-0.1-0.1-0.1-0.1-0.2H10.1c-0.4,0.6-0.7,1.1-1.1,1.7v65.4c3.9,6.6,9,12.4,14.9,17.1l80,0.1
		c5.8-4.6,10.7-10.2,14.6-16.5L118,29.7z"/>
	<path class="st1" d="M57,119c-2.2,0-4-1.8-4-4c0-2.2,1.8-4,4-4s4,1.8,4,4C61,117.2,59.2,119,57,119z M57,112.9
		c-1.2,0-2.1,1-2.1,2.1c0,1.2,1,2.1,2.1,2.1s2.1-1,2.1-2.1C59.1,113.8,58.2,112.9,57,112.9z"/>
	<path class="st1" d="M56.3,11c0-0.4-0.4-0.8-1-0.9l-1.9-0.3c-0.5-0.1-1.1-0.6-1.1-1.1L52,6.9c-0.1-0.5-0.5-1-0.9-1
		c-0.4,0-0.8,0.4-0.9,1L50,8.7c-0.1,0.5-0.6,1.1-1.1,1.1L47,10.2c-0.5,0.1-1,0.5-1,0.9c0,0.4,0.4,0.8,1,0.9l1.9,0.3
		c0.5,0.1,1.1,0.6,1.1,1.1l0.3,1.9c0.1,0.5,0.5,1,0.9,1c0.4,0,0.8-0.4,0.9-1l0.3-2.1c0.1-0.5,0.6-1,1.1-1.1l1.8-0.1
		C55.8,11.8,56.3,11.4,56.3,11z"/>
	<path class="st2" d="M118.6,100.1c0,2.2-1.8,4-4,4L13,104c-2.2,0-4-1.8-4-4V23.7c0-2.2,1.8-4,4-4h101c2.2,0,4,1.8,4,4L118.6,100.1z
		"/>
	<path class="st3" d="M118.7,35.1H9V23.7c0-2.2,1.8-4,4-4h101.7c0.5,0,4,1.8,4,4V35.1z"/>
	<path class="st4" d="M114,105H13c-2.8,0-5-2.2-5-5V24c0-2.8,2.2-5,5-5h101c1.3,0,2.6,0.5,3.5,1.5c0.9,0.9,1.5,2.2,1.5,3.5v76
		C119,102.8,116.8,105,114,105z M13,21c-1.7,0-3,1.3-3,3v76c0,1.7,1.3,3,3,3h101c1.7,0,3-1.3,3-3l0-76c0-0.8-0.3-1.5-0.9-2.1
		c-0.6-0.6-1.3-0.9-2.1-0.9H13z"/>
	<rect x="45" y="25" class="st5" width="67" height="5"/>
	<path class="st4" d="M117.6,36H9c-0.6,0-1-0.4-1-1s0.4-1,1-1h108.6c0.6,0,1,0.4,1,1S118.1,36,117.6,36z"/>
	<path class="st6" d="M46,45H20c-1.1,0-2-0.9-2-2s0.9-2,2-2h26c1.1,0,2,0.9,2,2S47.1,45,46,45z"/>
	<path class="st1" d="M82,45H56c-1.1,0-2-0.9-2-2s0.9-2,2-2h26c1.1,0,2,0.9,2,2S83.1,45,82,45z"/>
	<path class="st1" d="M77,54H20c-1.1,0-2-0.9-2-2s0.9-2,2-2h57c1.1,0,2,0.9,2,2S78.1,54,77,54z"/>
	<path class="st1" d="M107,63h-9c-1.1,0-2-0.9-2-2s0.9-2,2-2h9c1.1,0,2,0.9,2,2S108.1,63,107,63z"/>
	<path class="st1" d="M88,63H62c-1.1,0-2-0.9-2-2s0.9-2,2-2h26c1.1,0,2,0.9,2,2S89.1,63,88,63z"/>
	<path class="st7" d="M51,63H20c-1.1,0-2-0.9-2-2s0.9-2,2-2h31c1.1,0,2,0.9,2,2S52.1,63,51,63z"/>
	<path class="st1" d="M98,72H81c-1.1,0-2-0.9-2-2s0.9-2,2-2h17c1.1,0,2,0.9,2,2S99.1,72,98,72z"/>
	<path class="st1" d="M71,72H46c-1.1,0-2-0.9-2-2s0.9-2,2-2h25c1.1,0,2,0.9,2,2S72.1,72,71,72z"/>
	<path class="st8" d="M34,72H20c-1.1,0-2-0.9-2-2s0.9-2,2-2h14c1.1,0,2,0.9,2,2S35.1,72,34,72z"/>
	<path class="st8" d="M107,81H96c-1.1,0-2-0.9-2-2s0.9-2,2-2h11c1.1,0,2,0.9,2,2S108.1,81,107,81z"/>
	<path class="st7" d="M84,81H64c-1.1,0-2-0.9-2-2s0.9-2,2-2h20c1.1,0,2,0.9,2,2S85.1,81,84,81z"/>
	<path class="st1" d="M52,81H20c-1.1,0-2-0.9-2-2s0.9-2,2-2h32c1.1,0,2,0.9,2,2S53.1,81,52,81z"/>
	<path class="st7" d="M45,90H20c-1.1,0-2-0.9-2-2s0.9-2,2-2h25c1.1,0,2,0.9,2,2S46.1,90,45,90z"/>
	<circle class="st9" cx="26.5" cy="27.5" r="2.5"/>
	<circle class="st10" cx="17.5" cy="27.5" r="2.5"/>
	<circle class="st0" cx="35.5" cy="27.5" r="2.5"/>
</g>
</svg>
